<?xml version="1.0" encoding="utf-8"?>
<!-- Generator: Adobe Illustrator 22.1.0, SVG Export Plug-In . SVG Version: 6.00 Build 0)  -->
<svg version="1.1" id="Layer_1" xmlns="http://www.w3.org/2000/svg" xmlns:xlink="http://www.w3.org/1999/xlink" x="0px" y="0px"
	 viewBox="0 0 301 161.2" style="enable-background:new 0 0 301 161.2;" xml:space="preserve">
<style type="text/css">
	.st0{fill-rule:evenodd;clip-rule:evenodd;fill:url(#SVGID_1_);}
	.st1{fill-rule:evenodd;clip-rule:evenodd;}
	.st2{fill:url(#SVGID_2_);}
	.st3{fill:url(#SVGID_3_);}
	.st4{fill:url(#SVGID_4_);}
	.st5{fill-rule:evenodd;clip-rule:evenodd;fill:url(#SVGID_5_);}
	.st6{fill:url(#XMLID_2_);}
	.st7{fill:url(#XMLID_3_);}
	.st8{fill:url(#XMLID_4_);}
	.st9{fill:url(#XMLID_5_);}
	.st10{fill:url(#XMLID_6_);}
	.st11{fill:url(#XMLID_7_);}
	.st12{fill:url(#XMLID_8_);}
	.st13{fill:url(#XMLID_9_);}
	.st14{fill:url(#XMLID_10_);}
	.st15{fill:url(#XMLID_11_);}
	.st16{fill:url(#XMLID_12_);}
	.st17{fill:url(#XMLID_13_);}
	.st18{fill:url(#XMLID_14_);}
	.st19{fill:url(#XMLID_15_);}
	.st20{fill:url(#XMLID_16_);}
	.st21{fill:url(#XMLID_17_);}
	.st22{fill:url(#XMLID_18_);}
	.st23{fill:url(#XMLID_19_);}
	.st24{fill:url(#XMLID_20_);}
	.st25{fill:url(#XMLID_21_);}
	.st26{fill:url(#XMLID_22_);}
	.st27{fill:url(#XMLID_23_);}
	.st28{fill:url(#XMLID_24_);}
	.st29{fill:url(#XMLID_25_);}
	.st30{fill:url(#XMLID_26_);}
	.st31{fill:url(#XMLID_27_);}
	.st32{fill:url(#XMLID_28_);}
	.st33{fill:url(#XMLID_29_);}
	.st34{fill:url(#XMLID_30_);}
	.st35{fill:url(#XMLID_31_);}
	.st36{fill:url(#XMLID_32_);}
	.st37{fill:url(#XMLID_33_);}
	.st38{fill:url(#XMLID_34_);}
	.st39{fill:url(#XMLID_35_);}
	.st40{fill:url(#XMLID_36_);}
	.st41{fill:url(#XMLID_37_);}
	.st42{fill:url(#XMLID_38_);}
	.st43{fill:url(#XMLID_39_);}
	.st44{fill:url(#XMLID_40_);}
	.st45{fill:url(#SVGID_6_);}
	.st46{opacity:0.34;fill:url(#SVGID_7_);}
	.st47{opacity:0.67;fill:url(#SVGID_8_);}
	.st48{opacity:0.34;}
	.st49{fill:url(#SVGID_9_);}
	.st50{fill:none;stroke:url(#SVGID_10_);stroke-width:0.9711;stroke-miterlimit:10;}
	.st51{fill:url(#SVGID_11_);}
	.st52{fill:url(#SVGID_12_);}
	.st53{fill:url(#SVGID_13_);}
	.st54{opacity:0.21;fill:url(#SVGID_14_);}
	.st55{fill:url(#SVGID_15_);}
	.st56{opacity:0.26;}
	.st57{fill:url(#SVGID_16_);}
	.st58{fill:url(#SVGID_17_);}
	.st59{fill:#FFFFFF;}
	.st60{fill:url(#SVGID_18_);}
	.st61{fill:url(#SVGID_19_);}
	.st62{opacity:0.33;fill:url(#SVGID_20_);}
	.st63{opacity:0.45;}
	.st64{fill:url(#SVGID_21_);}
	.st65{fill:url(#SVGID_22_);}
	.st66{opacity:0.34;fill:url(#SVGID_23_);}
	.st67{opacity:0.67;fill:url(#SVGID_24_);}
	.st68{fill:url(#SVGID_25_);}
	.st69{fill:none;stroke:url(#SVGID_26_);stroke-width:0.9711;stroke-miterlimit:10;}
	.st70{fill:url(#SVGID_27_);}
	.st71{fill:url(#SVGID_28_);}
	.st72{fill:url(#SVGID_29_);}
	.st73{opacity:0.21;fill:url(#SVGID_30_);}
	.st74{fill:url(#SVGID_31_);}
	.st75{fill:url(#SVGID_32_);}
	.st76{fill:url(#SVGID_33_);}
	.st77{fill:url(#SVGID_34_);}
	.st78{fill:url(#SVGID_35_);}
	.st79{opacity:0.33;fill:url(#SVGID_36_);}
	.st80{fill:url(#SVGID_37_);}
	.st81{fill:url(#SVGID_38_);}
	.st82{opacity:0.34;fill:url(#SVGID_39_);}
	.st83{opacity:0.67;fill:url(#SVGID_40_);}
	.st84{fill:url(#SVGID_41_);}
	.st85{fill:none;stroke:url(#SVGID_42_);stroke-width:0.9711;stroke-miterlimit:10;}
	.st86{fill:url(#SVGID_43_);}
	.st87{fill:url(#SVGID_44_);}
	.st88{fill:url(#SVGID_45_);}
	.st89{opacity:0.21;fill:url(#SVGID_46_);}
	.st90{fill:url(#SVGID_47_);}
	.st91{fill:url(#SVGID_48_);}
	.st92{fill:url(#SVGID_49_);}
	.st93{fill:url(#SVGID_50_);}
	.st94{fill:url(#SVGID_51_);}
	.st95{opacity:0.33;fill:url(#SVGID_52_);}
	.st96{fill:url(#SVGID_53_);}
</style>
<g>
	<g>
		<linearGradient id="SVGID_1_" gradientUnits="userSpaceOnUse" x1="158.7075" y1="79.9087" x2="193.3918" y2="79.9087">
			<stop  offset="0" style="stop-color:#FA143B;stop-opacity:0"/>
			<stop  offset="0.1561" style="stop-color:#E81531;stop-opacity:0.1688"/>
			<stop  offset="0.4665" style="stop-color:#CB171F;stop-opacity:0.5047"/>
			<stop  offset="0.7334" style="stop-color:#B81915;stop-opacity:0.7935"/>
			<stop  offset="0.9243" style="stop-color:#B21911"/>
		</linearGradient>
		<polygon class="st0" points="193.4,68.4 193.4,91.4 185.6,91.4 185.6,81.8 180.5,91.4 161.6,91.4 158.7,81.1 158.7,68.4 		"/>
		<polygon class="st1" points="164,96.8 163.4,97.7 161.6,91.4 158.7,81.1 156.8,74.3 158.7,75.2 162.7,91.4 		"/>
		<polygon class="st1" points="186.8,81.4 186.6,89.6 186.5,91.4 186.5,95 185.6,95.2 185.6,91.4 185.6,81.8 180.5,91.4 179,94.3 
			178,93.9 177.5,92.3 177.6,92 178,91.4 184.8,78.6 		"/>
		<g>
			<linearGradient id="SVGID_2_" gradientUnits="userSpaceOnUse" x1="215.8876" y1="36.5087" x2="196.5387" y2="2.9954">
				<stop  offset="0" style="stop-color:#808080"/>
				<stop  offset="1" style="stop-color:#FFFFFF"/>
			</linearGradient>
			<path class="st2" d="M230,19.4c0.6-0.4,1.2-0.7,1.8-1c1.1-0.6,2.3-1.3,3.5-1.9c-0.3-0.2-0.6-0.3-0.8-0.5
				c-9.9-5.3-19.7-10.5-29.6-15.8c-0.5-0.3-0.8-0.3-1.3,0c-9.4,5.1-18.8,10.1-28.3,15.1c-0.7,0.4-1.4,0.7-2.1,1.1
				c0.3,0.2,0.5,0.3,0.7,0.4c3.7,2.2,7.5,4.3,11.2,6.5c0.2,0.1,0.5,0.3,0.5,0.5c0,1.5,0.1,3,0,4.4c0,0.6,0.1,1,0.6,1.3
				c0.4,0.3,0.9,0.6,1.4,0.7c1.3,0.4,2.6,0.8,3.9,1.1c4.9,0.9,9.8,1.1,14.7,1c4.6-0.1,9.1-0.4,13.6-1.6c1-0.3,1.9-0.8,2.8-1.2
				c0.3-0.2,0.5-0.6,0.6-1c0-1.5,0-3.1,0-4.6c0-0.2,0.2-0.5,0.4-0.6c1.5-1,3-1.9,4.5-2.8c0.1-0.1,0.2-0.1,0.4-0.2
				c0,0.1,0.1,0.2,0.1,0.2c0,1.5,0,3.1,0,4.6c0,0.2-0.2,0.4-0.3,0.5c-0.8,0.7-0.9,1.7-0.2,2.5c0.6,0.7,1.7,0.6,2.3,0
				c0.7-0.7,0.6-1.7-0.2-2.4c-0.2-0.1-0.3-0.4-0.3-0.6c0-1.7,0-3.4,0-5.1C229.6,19.8,229.8,19.5,230,19.4z M220.1,29.4
				c-1.3,0.4-2.7,0.7-4,0.9c-7.8,1-15.6,1-23.4,0c-1.3-0.2-2.7-0.5-4-0.9c-0.4-0.1-0.7-0.5-1-0.8c0.3-0.3,0.6-0.7,1-0.8
				c1.5-0.4,3-0.8,4.6-0.9c3.7-0.3,7.4-0.5,9.4-0.7c6.1,0.1,10.5,0.2,14.9,1c0.8,0.2,1.7,0.4,2.5,0.7c0.3,0.1,0.6,0.5,0.9,0.8
				C220.6,29,220.4,29.3,220.1,29.4z M222.5,20c-0.6-0.4-1.2-0.9-1.8-1.3c-2.7-1.6-5.6-2.4-8.6-2.8c-4.6-0.7-9.2-0.7-13.7-0.2
				c-3.1,0.3-6.2,0.9-9,2.3c-1.1,0.6-2.2,1.3-3.2,1.9c-0.1-0.5-0.1-1,0.4-1.5c1.7-1.6,3.8-2.6,6-3.3c4-1.3,8.1-1.6,12.2-1.6
				c3.4,0,6.8,0.3,10.1,1.2c2.5,0.7,4.9,1.6,6.9,3.3C222.3,18.5,222.8,19,222.5,20z"/>
			<linearGradient id="SVGID_3_" gradientUnits="userSpaceOnUse" x1="230.3929" y1="36.3805" x2="226.6192" y2="29.8442">
				<stop  offset="0" style="stop-color:#808080"/>
				<stop  offset="1" style="stop-color:#FFFFFF"/>
			</linearGradient>
			<path class="st3" d="M230.6,36.3c-0.8-0.3-1.4-0.2-2,0.3c-0.5,0.4-1,0.9-1.5,1.4c0.2-2.9,0.4-5.8,0.6-8.7c1,0,1.9,0,2.9,0
				C230.6,31.5,230.6,33.8,230.6,36.3z"/>
		</g>
		<linearGradient id="SVGID_4_" gradientUnits="userSpaceOnUse" x1="215.8938" y1="128.8806" x2="168.1418" y2="46.1717">
			<stop  offset="0" style="stop-color:#808080"/>
			<stop  offset="1" style="stop-color:#FFFFFF"/>
		</linearGradient>
		<path class="st4" d="M249.4,63.5v33.9c0,1-0.8,1.8-1.8,1.8h-24.5v24.5c0,1-0.8,1.8-1.8,1.8h-33.9c-1,0-1.8-0.8-1.8-1.8l0-28.4
			v-3.8l0-9.7l-5.1,9.7l-1.5,2.8l-8.5,16.1c-0.3,0.8-1.1,1.2-2,1.1c-0.8-0.1-1.5-0.7-1.7-1.6l-3.4-12.2l-1.8-6.3l-2.9-10.3l-1.9-6.9
			l-2.4-8.4l-5.5,21.3c-0.2,0.8-1,1.4-1.9,1.4h-26l0.3-3.7v0l0,0l0-0.1h24.1l7.4-28.5c0.2-0.9,1-1.4,1.9-1.4c0,0,0.1,0,0.1,0
			c0.9,0,1.7,0.7,1.8,1.6l3.3,11.9l6.4,23l3.2,11.5l6-11.5l10.3-19.7c0.4-0.8,1.3-1.3,2.1-1.1c0.9,0.2,1.5,1,1.5,1.9v49.3h30V97.3
			c0-1,0.8-1.8,1.8-1.8h24.5V65.3h-24.5c-1,0-1.8-0.8-1.8-1.8V39h-30.2v24.5c0,0.7-0.4,1.3-1,1.6c-0.2,0.1-0.5,0.2-0.8,0.2H168
			c-0.9,0-1.7-0.8-1.7-1.7c0-0.9,0.8-1.7,1.7-1.7h17.6V37.2c0-1,0.8-1.8,1.8-1.8h33.9c1,0,1.8,0.8,1.8,1.8v24.5h24.5
			C248.6,61.6,249.4,62.4,249.4,63.5z"/>
		<linearGradient id="SVGID_5_" gradientUnits="userSpaceOnUse" x1="192.7792" y1="80.4674" x2="242.5371" y2="80.4674">
			<stop  offset="0" style="stop-color:#B21911"/>
			<stop  offset="1" style="stop-color:#FA143B"/>
		</linearGradient>
		<polygon class="st5" points="242.5,68.4 215.8,68.4 215.8,42.6 192.8,42.6 192.8,118.3 215.8,118.3 215.8,91.4 242.5,91.4 		"/>
		<g>
			
				<radialGradient id="XMLID_2_" cx="-21.5029" cy="61.8993" r="24.9279" gradientTransform="matrix(0.969 0 0 0.969 92.7276 -14.8293)" gradientUnits="userSpaceOnUse">
				<stop  offset="2.970297e-02" style="stop-color:#F9C51B"/>
				<stop  offset="0.3639" style="stop-color:#F6C11D"/>
				<stop  offset="0.7112" style="stop-color:#ECB421"/>
				<stop  offset="1" style="stop-color:#DFA427"/>
				<stop  offset="1" style="stop-color:#DEA327"/>
			</radialGradient>
			<circle id="XMLID_1698_" class="st6" cx="71.9" cy="45.2" r="24.2"/>
			<g id="XMLID_1695_">
				
					<radialGradient id="XMLID_3_" cx="-20.6693" cy="32.503" r="2.1894" gradientTransform="matrix(0.969 0 0 0.969 92.7276 -14.8293)" gradientUnits="userSpaceOnUse">
					<stop  offset="2.970297e-02" style="stop-color:#F9C51B"/>
					<stop  offset="0.3639" style="stop-color:#F6C11D"/>
					<stop  offset="0.7112" style="stop-color:#ECB421"/>
					<stop  offset="1" style="stop-color:#DFA427"/>
					<stop  offset="1" style="stop-color:#DEA327"/>
				</radialGradient>
				<path id="XMLID_1697_" class="st7" d="M72.7,13.7c0,0,0.1,0.4,0.1,0.9c0,0.3,0.1,0.6,0.1,0.9c0,0.3,0.1,0.7,0.1,1.1
					c0,0.4,0.1,0.7,0.1,1.1c0,0.3,0,0.7-0.1,0.9c-0.1,0.3-0.1,0.5-0.2,0.7c-0.1,0.2-0.1,0.3-0.1,0.3h-0.1c0,0-0.1-0.1-0.1-0.3
					c-0.1-0.2-0.1-0.4-0.2-0.7c-0.1-0.3-0.1-0.6-0.1-0.9c0-0.3,0.1-0.7,0.1-1.1c0-0.4,0.1-0.7,0.1-1.1c0-0.3,0.1-0.7,0.1-0.9
					C72.6,14.1,72.7,13.7,72.7,13.7L72.7,13.7z"/>
				
					<radialGradient id="XMLID_4_" cx="-16.2715" cy="34.1515" r="1.3826" gradientTransform="matrix(0.969 0 0 0.969 92.7276 -14.8293)" gradientUnits="userSpaceOnUse">
					<stop  offset="2.970297e-02" style="stop-color:#F9C51B"/>
					<stop  offset="0.3639" style="stop-color:#F6C11D"/>
					<stop  offset="0.7112" style="stop-color:#ECB421"/>
					<stop  offset="1" style="stop-color:#DFA427"/>
					<stop  offset="1" style="stop-color:#DEA327"/>
				</radialGradient>
				<path id="XMLID_1696_" class="st8" d="M77.4,16.4c0,0,0,0.2,0,0.6c0,0.2,0,0.4,0,0.6c0,0.2,0,0.5,0,0.7c0,0.2,0,0.5,0,0.7
					c0,0.2-0.1,0.4-0.2,0.6C77.1,19.7,77,19.9,77,20c-0.1,0.1-0.1,0.1-0.1,0.1l-0.1,0c0,0,0-0.1-0.1-0.2c0-0.1-0.1-0.3-0.1-0.4
					c0-0.2,0-0.4,0-0.6c0-0.2,0.2-0.4,0.2-0.7c0.1-0.2,0.1-0.4,0.2-0.7c0.1-0.2,0.1-0.4,0.2-0.6C77.2,16.7,77.3,16.4,77.4,16.4
					L77.4,16.4z"/>
			</g>
			<g id="XMLID_1692_">
				
					<radialGradient id="XMLID_5_" cx="-11.0689" cy="34.4107" r="2.1866" gradientTransform="matrix(0.969 0 0 0.969 92.7276 -14.8293)" gradientUnits="userSpaceOnUse">
					<stop  offset="2.970297e-02" style="stop-color:#F9C51B"/>
					<stop  offset="0.3639" style="stop-color:#F6C11D"/>
					<stop  offset="0.7112" style="stop-color:#ECB421"/>
					<stop  offset="1" style="stop-color:#DFA427"/>
					<stop  offset="1" style="stop-color:#DEA327"/>
				</radialGradient>
				<path id="XMLID_1694_" class="st9" d="M83,15.7c0,0-0.1,0.4-0.2,0.9c-0.1,0.3-0.1,0.6-0.2,0.9c-0.1,0.3-0.2,0.7-0.3,1.1
					c-0.1,0.4-0.1,0.7-0.3,1.1c-0.1,0.3-0.3,0.6-0.4,0.9c-0.2,0.2-0.3,0.4-0.4,0.6c-0.1,0.1-0.2,0.2-0.2,0.2l-0.1,0c0,0,0-0.1,0-0.3
					c0-0.2,0-0.4,0-0.7c0-0.3,0.1-0.6,0.2-0.9c0.1-0.3,0.3-0.7,0.5-1c0.2-0.3,0.3-0.7,0.4-1c0.1-0.3,0.3-0.6,0.4-0.9
					C82.8,16,82.9,15.7,83,15.7L83,15.7z"/>
				
					<radialGradient id="XMLID_6_" cx="-7.3491" cy="37.4512" r="1.3824" gradientTransform="matrix(0.969 0 0 0.969 92.7276 -14.8293)" gradientUnits="userSpaceOnUse">
					<stop  offset="2.970297e-02" style="stop-color:#F9C51B"/>
					<stop  offset="0.3639" style="stop-color:#F6C11D"/>
					<stop  offset="0.7112" style="stop-color:#ECB421"/>
					<stop  offset="1" style="stop-color:#DFA427"/>
					<stop  offset="1" style="stop-color:#DEA327"/>
				</radialGradient>
				<path id="XMLID_1693_" class="st10" d="M86.5,19.9c0,0-0.1,0.2-0.2,0.6c-0.1,0.2-0.1,0.4-0.2,0.6c-0.1,0.2-0.2,0.4-0.2,0.6
					c-0.1,0.2-0.1,0.5-0.2,0.6c-0.1,0.2-0.2,0.3-0.4,0.5C85.2,22.9,85.1,23,85,23c-0.1,0.1-0.2,0.1-0.2,0.1l-0.1,0c0,0,0-0.1,0-0.2
					c0-0.1,0-0.3,0-0.5c0-0.2,0.1-0.4,0.2-0.6c0.1-0.2,0.3-0.4,0.4-0.5c0.1-0.2,0.3-0.4,0.4-0.6c0.1-0.2,0.3-0.3,0.4-0.5
					C86.3,20,86.5,19.8,86.5,19.9L86.5,19.9z"/>
			</g>
			<g id="XMLID_1689_">
				
					<radialGradient id="XMLID_7_" cx="-2.5971" cy="39.3737" r="2.1942" gradientTransform="matrix(0.969 0 0 0.969 92.7276 -14.8293)" gradientUnits="userSpaceOnUse">
					<stop  offset="2.970297e-02" style="stop-color:#F9C51B"/>
					<stop  offset="0.3639" style="stop-color:#F6C11D"/>
					<stop  offset="0.7112" style="stop-color:#ECB421"/>
					<stop  offset="1" style="stop-color:#DFA427"/>
					<stop  offset="1" style="stop-color:#DEA327"/>
				</radialGradient>
				<path id="XMLID_1691_" class="st11" d="M92.1,21c0,0-0.2,0.3-0.5,0.8c-0.1,0.2-0.3,0.5-0.5,0.8c-0.2,0.3-0.4,0.6-0.6,0.9
					c-0.2,0.3-0.4,0.6-0.6,0.9c-0.2,0.3-0.5,0.5-0.7,0.7c-0.2,0.2-0.4,0.3-0.6,0.4c-0.2,0.1-0.3,0.1-0.3,0.1l-0.1-0.1
					c0,0,0-0.1,0.1-0.3c0-0.2,0.1-0.4,0.3-0.7c0.1-0.3,0.3-0.5,0.5-0.8c0.2-0.3,0.5-0.5,0.8-0.8c0.3-0.3,0.5-0.5,0.8-0.8
					c0.2-0.3,0.5-0.5,0.7-0.7C91.7,21.2,92,21,92.1,21L92.1,21z"/>
				
					<radialGradient id="XMLID_8_" cx="-8.270863e-02" cy="43.4682" r="1.3816" gradientTransform="matrix(0.969 0 0 0.969 92.7276 -14.8293)" gradientUnits="userSpaceOnUse">
					<stop  offset="2.970297e-02" style="stop-color:#F9C51B"/>
					<stop  offset="0.3639" style="stop-color:#F6C11D"/>
					<stop  offset="0.7112" style="stop-color:#ECB421"/>
					<stop  offset="1" style="stop-color:#DFA427"/>
					<stop  offset="1" style="stop-color:#DEA327"/>
				</radialGradient>
				<path id="XMLID_1690_" class="st12" d="M94,26.1c0,0-0.1,0.2-0.3,0.5c-0.1,0.1-0.2,0.3-0.4,0.5c-0.1,0.2-0.3,0.3-0.4,0.5
					c-0.2,0.2-0.3,0.4-0.4,0.5c-0.2,0.1-0.3,0.2-0.5,0.3c-0.2,0.1-0.3,0.1-0.4,0.1c-0.1,0-0.2,0-0.2,0l-0.1-0.1c0,0,0-0.1,0-0.2
					c0-0.1,0.1-0.3,0.2-0.4c0.1-0.2,0.2-0.3,0.4-0.5c0.2-0.1,0.4-0.2,0.6-0.4c0.2-0.1,0.4-0.3,0.6-0.4c0.2-0.1,0.4-0.2,0.5-0.3
					C93.8,26.1,94,26,94,26.1L94,26.1z"/>
			</g>
			<g id="XMLID_1676_">
				
					<radialGradient id="XMLID_9_" cx="3.7569" cy="46.8403" r="2.192" gradientTransform="matrix(0.969 0 0 0.969 92.7276 -14.8293)" gradientUnits="userSpaceOnUse">
					<stop  offset="2.970297e-02" style="stop-color:#F9C51B"/>
					<stop  offset="0.3639" style="stop-color:#F6C11D"/>
					<stop  offset="0.7112" style="stop-color:#ECB421"/>
					<stop  offset="1" style="stop-color:#DFA427"/>
					<stop  offset="1" style="stop-color:#DEA327"/>
				</radialGradient>
				<path id="XMLID_1678_" class="st13" d="M98.9,29c0,0-0.3,0.2-0.7,0.6c-0.2,0.2-0.5,0.4-0.7,0.6c-0.3,0.2-0.6,0.4-0.9,0.7
					c-0.3,0.2-0.6,0.5-0.9,0.7c-0.3,0.2-0.6,0.3-0.9,0.4c-0.3,0.1-0.5,0.2-0.7,0.2c-0.2,0-0.3,0-0.3,0l0-0.1c0,0,0-0.1,0.2-0.2
					c0.1-0.1,0.3-0.3,0.5-0.5c0.2-0.2,0.4-0.4,0.7-0.6c0.3-0.2,0.7-0.3,1-0.5c0.3-0.2,0.7-0.3,1-0.5c0.3-0.2,0.6-0.3,0.9-0.4
					C98.5,29.1,98.8,28.9,98.9,29L98.9,29z"/>
				
					<radialGradient id="XMLID_10_" cx="4.7856" cy="51.5709" r="1.3837" gradientTransform="matrix(0.969 0 0 0.969 92.7276 -14.8293)" gradientUnits="userSpaceOnUse">
					<stop  offset="2.970297e-02" style="stop-color:#F9C51B"/>
					<stop  offset="0.3639" style="stop-color:#F6C11D"/>
					<stop  offset="0.7112" style="stop-color:#ECB421"/>
					<stop  offset="1" style="stop-color:#DFA427"/>
					<stop  offset="1" style="stop-color:#DEA327"/>
				</radialGradient>
				<path id="XMLID_1677_" class="st14" d="M99.1,34.4c0,0-0.2,0.1-0.5,0.3c-0.1,0.1-0.3,0.2-0.5,0.3c-0.2,0.1-0.4,0.2-0.6,0.4
					c-0.2,0.1-0.4,0.3-0.6,0.4c-0.2,0.1-0.4,0.1-0.6,0.1c-0.2,0-0.3,0-0.5,0c-0.1,0-0.2,0-0.2,0l0-0.1c0,0,0-0.1,0.1-0.2
					c0.1-0.1,0.2-0.2,0.3-0.4c0.1-0.1,0.3-0.3,0.5-0.3c0.2-0.1,0.4-0.1,0.7-0.2c0.2-0.1,0.4-0.1,0.7-0.2c0.2-0.1,0.4-0.1,0.6-0.1
					C98.8,34.4,99,34.3,99.1,34.4L99.1,34.4z"/>
			</g>
			<g id="XMLID_1673_">
				
					<radialGradient id="XMLID_11_" cx="7.3034" cy="56.0322" r="2.186" gradientTransform="matrix(0.969 0 0 0.969 92.7276 -14.8293)" gradientUnits="userSpaceOnUse">
					<stop  offset="2.970297e-02" style="stop-color:#F9C51B"/>
					<stop  offset="0.3639" style="stop-color:#F6C11D"/>
					<stop  offset="0.7112" style="stop-color:#ECB421"/>
					<stop  offset="1" style="stop-color:#DFA427"/>
					<stop  offset="1" style="stop-color:#DEA327"/>
				</radialGradient>
				<path id="XMLID_1675_" class="st15" d="M102.7,38.8c0,0-0.3,0.1-0.9,0.3c-0.3,0.1-0.6,0.2-0.9,0.3c-0.3,0.1-0.7,0.2-1,0.3
					c-0.4,0.1-0.7,0.3-1,0.4c-0.3,0.1-0.7,0.1-0.9,0.1c-0.3,0-0.5,0-0.7,0c-0.2,0-0.3-0.1-0.3-0.1l0-0.1c0,0,0.1-0.1,0.2-0.2
					c0.1-0.1,0.4-0.2,0.6-0.4c0.3-0.1,0.6-0.2,0.9-0.3c0.3-0.1,0.7-0.1,1.1-0.1c0.4-0.1,0.7-0.1,1.1-0.2c0.3,0,0.7-0.1,0.9-0.1
					C102.3,38.7,102.7,38.7,102.7,38.8L102.7,38.8z"/>
				
					<radialGradient id="XMLID_12_" cx="6.7321" cy="60.8023" r="1.3915" gradientTransform="matrix(0.969 0 0 0.969 92.7276 -14.8293)" gradientUnits="userSpaceOnUse">
					<stop  offset="2.970297e-02" style="stop-color:#F9C51B"/>
					<stop  offset="0.3639" style="stop-color:#F6C11D"/>
					<stop  offset="0.7112" style="stop-color:#ECB421"/>
					<stop  offset="1" style="stop-color:#DFA427"/>
					<stop  offset="1" style="stop-color:#DEA327"/>
				</radialGradient>
				<path id="XMLID_1674_" class="st16" d="M101.1,44c0,0-0.2,0.1-0.6,0.2c-0.2,0-0.4,0.1-0.6,0.1c-0.2,0.1-0.4,0.1-0.7,0.1
					c-0.2,0-0.5,0.1-0.7,0.2c-0.2,0-0.4,0-0.6-0.1c-0.2,0-0.3-0.1-0.4-0.2c-0.1-0.1-0.2-0.1-0.2-0.1l0-0.1c0,0,0.1-0.1,0.2-0.1
					c0.1-0.1,0.2-0.2,0.4-0.2c0.2-0.1,0.4-0.1,0.6-0.2c0.2,0,0.5,0.1,0.7,0.1c0.2,0,0.5,0,0.7,0c0.2,0,0.4,0,0.6,0.1
					C100.9,43.8,101.1,43.9,101.1,44L101.1,44z"/>
			</g>
			<g id="XMLID_1670_">
				
					<radialGradient id="XMLID_13_" cx="7.6481" cy="65.6622" r="2.1835" gradientTransform="matrix(0.969 0 0 0.969 92.7276 -14.8293)" gradientUnits="userSpaceOnUse">
					<stop  offset="2.970297e-02" style="stop-color:#F9C51B"/>
					<stop  offset="0.3639" style="stop-color:#F6C11D"/>
					<stop  offset="0.7112" style="stop-color:#ECB421"/>
					<stop  offset="1" style="stop-color:#DFA427"/>
					<stop  offset="1" style="stop-color:#DEA327"/>
				</radialGradient>
				<path id="XMLID_1672_" class="st17" d="M103.1,49.3c0,0-0.4,0-0.9,0c-0.3,0-0.6,0-1,0c-0.3,0-0.7,0-1.1,0c-0.4,0-0.7,0-1.1,0
					c-0.3,0-0.7-0.1-0.9-0.2c-0.3-0.1-0.5-0.2-0.6-0.3c-0.2-0.1-0.2-0.1-0.2-0.1l0-0.1c0,0,0.1,0,0.3-0.1c0.2-0.1,0.4-0.1,0.7-0.1
					c0.3,0,0.6,0,1,0c0.3,0,0.7,0.2,1.1,0.2c0.4,0.1,0.7,0.1,1.1,0.2c0.3,0.1,0.7,0.1,0.9,0.2C102.7,49.1,103.1,49.2,103.1,49.3
					L103.1,49.3z"/>
				
					<radialGradient id="XMLID_14_" cx="5.5402" cy="70.0124" r="1.3836" gradientTransform="matrix(0.969 0 0 0.969 92.7276 -14.8293)" gradientUnits="userSpaceOnUse">
					<stop  offset="2.970297e-02" style="stop-color:#F9C51B"/>
					<stop  offset="0.3639" style="stop-color:#F6C11D"/>
					<stop  offset="0.7112" style="stop-color:#ECB421"/>
					<stop  offset="1" style="stop-color:#DFA427"/>
					<stop  offset="1" style="stop-color:#DEA327"/>
				</radialGradient>
				<path id="XMLID_1671_" class="st18" d="M99.9,53.6c0,0-0.2,0-0.6,0c-0.2,0-0.4,0-0.6-0.1c-0.2,0-0.4-0.1-0.7-0.1
					c-0.2,0-0.5,0-0.7-0.1c-0.2-0.1-0.4-0.2-0.5-0.3c-0.2-0.1-0.3-0.2-0.4-0.3c-0.1-0.1-0.1-0.2-0.1-0.2l0-0.1c0,0,0.1,0,0.2-0.1
					c0.1,0,0.3-0.1,0.5-0.1c0.2,0,0.4,0,0.6,0c0.2,0.1,0.4,0.2,0.6,0.3c0.2,0.1,0.4,0.2,0.6,0.3c0.2,0.1,0.4,0.2,0.5,0.3
					C99.7,53.4,99.9,53.5,99.9,53.6L99.9,53.6z"/>
			</g>
			<g id="XMLID_1667_">
				
					<radialGradient id="XMLID_15_" cx="4.7528" cy="75.144" r="2.1881" gradientTransform="matrix(0.969 0 0 0.969 92.7276 -14.8293)" gradientUnits="userSpaceOnUse">
					<stop  offset="2.970297e-02" style="stop-color:#F9C51B"/>
					<stop  offset="0.3639" style="stop-color:#F6C11D"/>
					<stop  offset="0.7112" style="stop-color:#ECB421"/>
					<stop  offset="1" style="stop-color:#DFA427"/>
					<stop  offset="1" style="stop-color:#DEA327"/>
				</radialGradient>
				<path id="XMLID_1669_" class="st19" d="M100,59.3c0,0-0.4-0.1-0.9-0.3c-0.3-0.1-0.6-0.2-0.9-0.3c-0.3-0.1-0.7-0.2-1-0.4
					c-0.3-0.1-0.7-0.2-1-0.4c-0.3-0.1-0.6-0.3-0.8-0.5c-0.2-0.2-0.4-0.3-0.5-0.5c-0.1-0.1-0.2-0.2-0.2-0.2l0-0.1c0,0,0.1,0,0.3,0
					c0.2,0,0.4,0,0.7,0.1c0.3,0.1,0.6,0.2,0.9,0.3c0.3,0.2,0.6,0.4,0.9,0.6c0.3,0.2,0.6,0.4,0.9,0.5c0.3,0.2,0.6,0.4,0.8,0.5
					C99.7,59,100,59.2,100,59.3L100,59.3z"/>
				
					<radialGradient id="XMLID_16_" cx="1.3427" cy="78.5265" r="1.3813" gradientTransform="matrix(0.969 0 0 0.969 92.7276 -14.8293)" gradientUnits="userSpaceOnUse">
					<stop  offset="2.970297e-02" style="stop-color:#F9C51B"/>
					<stop  offset="0.3639" style="stop-color:#F6C11D"/>
					<stop  offset="0.7112" style="stop-color:#ECB421"/>
					<stop  offset="1" style="stop-color:#DFA427"/>
					<stop  offset="1" style="stop-color:#DEA327"/>
				</radialGradient>
				<path id="XMLID_1668_" class="st20" d="M95.5,62.3c0,0-0.2-0.1-0.5-0.2c-0.2-0.1-0.4-0.2-0.5-0.2c-0.2-0.1-0.4-0.2-0.6-0.3
					c-0.2-0.1-0.4-0.2-0.6-0.3c-0.2-0.1-0.3-0.3-0.4-0.4c-0.1-0.1-0.2-0.3-0.2-0.4c0-0.1-0.1-0.2-0.1-0.2l0.1-0.1c0,0,0.1,0,0.2,0
					c0.1,0,0.3,0,0.5,0.1c0.2,0,0.4,0.1,0.6,0.2c0.2,0.1,0.3,0.3,0.5,0.5c0.2,0.2,0.3,0.3,0.5,0.5c0.2,0.1,0.3,0.3,0.4,0.4
					C95.4,62.1,95.6,62.3,95.5,62.3L95.5,62.3z"/>
			</g>
			<g id="XMLID_1664_">
				
					<radialGradient id="XMLID_17_" cx="-1.0607" cy="83.0404" r="2.1951" gradientTransform="matrix(0.969 0 0 0.969 92.7276 -14.8293)" gradientUnits="userSpaceOnUse">
					<stop  offset="2.970297e-02" style="stop-color:#F9C51B"/>
					<stop  offset="0.3639" style="stop-color:#F6C11D"/>
					<stop  offset="0.7112" style="stop-color:#ECB421"/>
					<stop  offset="1" style="stop-color:#DFA427"/>
					<stop  offset="1" style="stop-color:#DEA327"/>
				</radialGradient>
				<path id="XMLID_1666_" class="st21" d="M93.8,67.7c0,0-0.3-0.2-0.7-0.6c-0.2-0.2-0.5-0.4-0.8-0.6c-0.3-0.2-0.6-0.5-0.8-0.7
					c-0.3-0.2-0.6-0.4-0.9-0.7c-0.2-0.2-0.4-0.5-0.6-0.7c-0.2-0.2-0.3-0.5-0.3-0.6c-0.1-0.2-0.1-0.3-0.1-0.3l0.1-0.1
					c0,0,0.1,0,0.3,0.1c0.2,0.1,0.4,0.2,0.6,0.3c0.2,0.2,0.5,0.3,0.8,0.6c0.2,0.2,0.5,0.6,0.7,0.8c0.2,0.3,0.5,0.6,0.7,0.8
					c0.2,0.3,0.4,0.5,0.6,0.7C93.6,67.4,93.9,67.7,93.8,67.7L93.8,67.7z"/>
				
					<radialGradient id="XMLID_18_" cx="-5.3961" cy="85.1164" r="1.3811" gradientTransform="matrix(0.969 0 0 0.969 92.7276 -14.8293)" gradientUnits="userSpaceOnUse">
					<stop  offset="2.970297e-02" style="stop-color:#F9C51B"/>
					<stop  offset="0.3639" style="stop-color:#F6C11D"/>
					<stop  offset="0.7112" style="stop-color:#ECB421"/>
					<stop  offset="1" style="stop-color:#DFA427"/>
					<stop  offset="1" style="stop-color:#DEA327"/>
				</radialGradient>
				<path id="XMLID_1665_" class="st22" d="M88.6,69.2c0,0-0.2-0.2-0.4-0.4c-0.1-0.1-0.3-0.3-0.4-0.4c-0.2-0.2-0.3-0.3-0.5-0.5
					c-0.2-0.2-0.4-0.3-0.5-0.5c-0.1-0.2-0.2-0.4-0.3-0.5c-0.1-0.2-0.1-0.3-0.1-0.5c0-0.1,0-0.2,0-0.2l0.1-0.1c0,0,0.1,0,0.2,0.1
					c0.1,0,0.3,0.1,0.4,0.2c0.2,0.1,0.3,0.2,0.4,0.4c0.1,0.2,0.2,0.4,0.3,0.6c0.1,0.2,0.2,0.4,0.3,0.6c0.1,0.2,0.2,0.4,0.3,0.5
					C88.5,68.9,88.6,69.1,88.6,69.2L88.6,69.2z"/>
			</g>
			<g id="XMLID_1661_">
				
					<radialGradient id="XMLID_19_" cx="-9.147" cy="88.5854" r="2.1887" gradientTransform="matrix(0.969 0 0 0.969 92.7276 -14.8293)" gradientUnits="userSpaceOnUse">
					<stop  offset="2.970297e-02" style="stop-color:#F9C51B"/>
					<stop  offset="0.3639" style="stop-color:#F6C11D"/>
					<stop  offset="0.7112" style="stop-color:#ECB421"/>
					<stop  offset="1" style="stop-color:#DFA427"/>
					<stop  offset="1" style="stop-color:#DEA327"/>
				</radialGradient>
				<path id="XMLID_1663_" class="st23" d="M85.1,73.7c0,0-0.2-0.3-0.5-0.8c-0.2-0.2-0.3-0.5-0.5-0.8c-0.2-0.3-0.4-0.6-0.6-0.9
					c-0.2-0.3-0.4-0.6-0.6-0.9c-0.2-0.3-0.3-0.6-0.3-0.9c-0.1-0.3-0.1-0.5-0.1-0.7c0-0.2,0-0.3,0-0.3l0.1,0c0,0,0.1,0.1,0.2,0.2
					c0.1,0.1,0.3,0.3,0.5,0.5c0.2,0.2,0.4,0.5,0.5,0.8c0.1,0.3,0.2,0.7,0.4,1c0.1,0.3,0.3,0.7,0.4,1c0.1,0.3,0.2,0.6,0.3,0.9
					C85.1,73.3,85.2,73.6,85.1,73.7L85.1,73.7z"/>
				
					<radialGradient id="XMLID_20_" cx="-13.9912" cy="89.1215" r="1.384" gradientTransform="matrix(0.969 0 0 0.969 92.7276 -14.8293)" gradientUnits="userSpaceOnUse">
					<stop  offset="2.970297e-02" style="stop-color:#F9C51B"/>
					<stop  offset="0.3639" style="stop-color:#F6C11D"/>
					<stop  offset="0.7112" style="stop-color:#ECB421"/>
					<stop  offset="1" style="stop-color:#DFA427"/>
					<stop  offset="1" style="stop-color:#DEA327"/>
				</radialGradient>
				<path id="XMLID_1662_" class="st24" d="M79.7,73.3c0,0-0.1-0.2-0.3-0.5c-0.1-0.2-0.2-0.3-0.3-0.5c-0.1-0.2-0.2-0.4-0.3-0.6
					c-0.1-0.2-0.2-0.4-0.3-0.6c-0.1-0.2-0.1-0.4-0.1-0.6c0-0.2,0-0.3,0.1-0.5c0-0.1,0.1-0.2,0.1-0.2l0.1,0c0,0,0.1,0,0.2,0.1
					c0.1,0.1,0.2,0.2,0.3,0.3c0.1,0.1,0.2,0.3,0.3,0.5c0.1,0.2,0.1,0.5,0.1,0.7c0,0.2,0.1,0.5,0.1,0.7c0,0.2,0.1,0.4,0.1,0.6
					C79.8,73,79.8,73.3,79.7,73.3L79.7,73.3z"/>
			</g>
			<g id="XMLID_1659_">
				
					<radialGradient id="XMLID_21_" cx="308.5933" cy="662.2073" r="1.3811" gradientTransform="matrix(0.723 0.6451 -0.6451 0.723 273.6763 -604.6519)" gradientUnits="userSpaceOnUse">
					<stop  offset="2.970297e-02" style="stop-color:#F9C51B"/>
					<stop  offset="0.3639" style="stop-color:#F6C11D"/>
					<stop  offset="0.7112" style="stop-color:#ECB421"/>
					<stop  offset="1" style="stop-color:#DFA427"/>
					<stop  offset="1" style="stop-color:#DEA327"/>
				</radialGradient>
				<path id="XMLID_1660_" class="st25" d="M69.4,75.1c0,0,0-0.2-0.1-0.6c0-0.2,0-0.4-0.1-0.6c0-0.2,0-0.5,0-0.7
					c0-0.2-0.1-0.5,0-0.7c0-0.2,0.1-0.4,0.2-0.6c0.1-0.2,0.2-0.3,0.2-0.4c0.1-0.1,0.1-0.1,0.1-0.1l0.1,0c0,0,0,0.1,0.1,0.2
					c0.1,0.1,0.1,0.3,0.2,0.4c0,0.2,0.1,0.4,0.1,0.6c0,0.2-0.1,0.4-0.2,0.7c-0.1,0.2-0.1,0.5-0.2,0.7c-0.1,0.2-0.1,0.4-0.2,0.6
					C69.6,74.8,69.5,75.1,69.4,75.1L69.4,75.1z"/>
			</g>
			<g id="XMLID_1656_">
				
					<radialGradient id="XMLID_22_" cx="304.8424" cy="665.6763" r="2.1887" gradientTransform="matrix(0.723 0.6451 -0.6451 0.723 273.6763 -604.6519)" gradientUnits="userSpaceOnUse">
					<stop  offset="2.970297e-02" style="stop-color:#F9C51B"/>
					<stop  offset="0.3639" style="stop-color:#F6C11D"/>
					<stop  offset="0.7112" style="stop-color:#ECB421"/>
					<stop  offset="1" style="stop-color:#DFA427"/>
					<stop  offset="1" style="stop-color:#DEA327"/>
				</radialGradient>
				<path id="XMLID_1658_" class="st26" d="M63.8,76.2c0,0,0-0.4,0.1-0.9c0-0.3,0.1-0.6,0.1-0.9c0.1-0.3,0.1-0.7,0.2-1.1
					c0.1-0.4,0.1-0.7,0.2-1.1c0.1-0.3,0.2-0.6,0.4-0.9c0.1-0.3,0.3-0.5,0.4-0.6c0.1-0.1,0.2-0.2,0.2-0.2l0.1,0c0,0,0,0.1,0,0.3
					c0,0.2,0,0.4,0,0.7c0,0.3-0.1,0.6-0.1,0.9c-0.1,0.3-0.3,0.7-0.4,1c-0.1,0.3-0.3,0.7-0.4,1c-0.1,0.3-0.2,0.6-0.4,0.9
					C64.1,75.8,63.9,76.2,63.8,76.2L63.8,76.2z"/>
				
					<radialGradient id="XMLID_23_" cx="299.9982" cy="666.2124" r="1.384" gradientTransform="matrix(0.723 0.6451 -0.6451 0.723 273.6763 -604.6519)" gradientUnits="userSpaceOnUse">
					<stop  offset="2.970297e-02" style="stop-color:#F9C51B"/>
					<stop  offset="0.3639" style="stop-color:#F6C11D"/>
					<stop  offset="0.7112" style="stop-color:#ECB421"/>
					<stop  offset="1" style="stop-color:#DFA427"/>
					<stop  offset="1" style="stop-color:#DEA327"/>
				</radialGradient>
				<path id="XMLID_1657_" class="st27" d="M60,72.3c0,0,0-0.2,0.1-0.6c0-0.2,0.1-0.4,0.1-0.6c0.1-0.2,0.1-0.4,0.2-0.7
					c0.1-0.2,0.1-0.5,0.2-0.7c0.1-0.2,0.2-0.4,0.3-0.5c0.1-0.1,0.3-0.2,0.4-0.3c0.1-0.1,0.2-0.1,0.2-0.1l0.1,0c0,0,0,0.1,0,0.2
					c0,0.1,0,0.3,0,0.5c0,0.2-0.1,0.4-0.1,0.6c-0.1,0.2-0.3,0.4-0.4,0.6c-0.1,0.2-0.2,0.4-0.4,0.6c-0.1,0.2-0.2,0.4-0.3,0.5
					C60.3,72.1,60.1,72.3,60,72.3L60,72.3z"/>
			</g>
			
				<radialGradient id="XMLID_24_" cx="-18.7174" cy="91.1642" r="2.1834" gradientTransform="matrix(0.969 0 0 0.969 92.7276 -14.8293)" gradientUnits="userSpaceOnUse">
				<stop  offset="2.970297e-02" style="stop-color:#F9C51B"/>
				<stop  offset="0.3639" style="stop-color:#F6C11D"/>
				<stop  offset="0.7112" style="stop-color:#ECB421"/>
				<stop  offset="1" style="stop-color:#DFA427"/>
				<stop  offset="1" style="stop-color:#DEA327"/>
			</radialGradient>
			<path id="XMLID_1655_" class="st28" d="M75,76.5c0,0-0.1-0.4-0.2-0.9c-0.1-0.3-0.1-0.6-0.2-0.9c-0.1-0.3-0.2-0.7-0.2-1.1
				c-0.1-0.4-0.2-0.7-0.2-1.1c0-0.3,0-0.7,0-1c0-0.3,0.1-0.5,0.1-0.7c0-0.2,0.1-0.3,0.1-0.3l0.1,0c0,0,0.1,0.1,0.1,0.2
				c0.1,0.2,0.2,0.4,0.3,0.6c0.1,0.3,0.2,0.6,0.2,0.9c0,0.3,0,0.7,0,1.1c0,0.4,0,0.7,0,1.1c0,0.3,0,0.7,0,1
				C75.1,76.1,75.1,76.4,75,76.5L75,76.5z"/>
			<g id="XMLID_1652_">
				
					<radialGradient id="XMLID_25_" cx="-37.4024" cy="86.6387" r="2.1913" gradientTransform="matrix(0.969 0 0 0.969 92.7276 -14.8293)" gradientUnits="userSpaceOnUse">
					<stop  offset="2.970297e-02" style="stop-color:#F9C51B"/>
					<stop  offset="0.3639" style="stop-color:#F6C11D"/>
					<stop  offset="0.7112" style="stop-color:#ECB421"/>
					<stop  offset="1" style="stop-color:#DFA427"/>
					<stop  offset="1" style="stop-color:#DEA327"/>
				</radialGradient>
				<path id="XMLID_1654_" class="st29" d="M54.9,71.6c0,0,0.1-0.3,0.4-0.9c0.1-0.3,0.2-0.6,0.4-0.9c0.1-0.3,0.3-0.6,0.5-1
					c0.2-0.3,0.3-0.7,0.5-1c0.2-0.3,0.4-0.5,0.6-0.8c0.2-0.2,0.4-0.4,0.5-0.5c0.1-0.1,0.2-0.2,0.2-0.2l0.1,0c0,0,0,0.1,0,0.3
					c0,0.2-0.1,0.4-0.2,0.7c-0.1,0.3-0.2,0.6-0.4,0.9c-0.2,0.3-0.4,0.6-0.7,0.9c-0.2,0.3-0.4,0.6-0.6,0.9c-0.2,0.3-0.4,0.5-0.6,0.8
					C55.2,71.4,55,71.7,54.9,71.6L54.9,71.6z"/>
				
					<radialGradient id="XMLID_26_" cx="-40.4152" cy="82.8958" r="1.3814" gradientTransform="matrix(0.969 0 0 0.969 92.7276 -14.8293)" gradientUnits="userSpaceOnUse">
					<stop  offset="2.970297e-02" style="stop-color:#F9C51B"/>
					<stop  offset="0.3639" style="stop-color:#F6C11D"/>
					<stop  offset="0.7112" style="stop-color:#ECB421"/>
					<stop  offset="1" style="stop-color:#DFA427"/>
					<stop  offset="1" style="stop-color:#DEA327"/>
				</radialGradient>
				<path id="XMLID_1653_" class="st30" d="M52.3,66.9c0,0,0.1-0.2,0.3-0.5c0.1-0.2,0.2-0.3,0.3-0.5c0.1-0.2,0.2-0.4,0.4-0.6
					c0.1-0.2,0.2-0.4,0.4-0.6c0.1-0.2,0.3-0.3,0.5-0.4c0.2-0.1,0.3-0.2,0.4-0.2c0.1,0,0.2,0,0.2,0l0.1,0.1c0,0,0,0.1,0,0.2
					c0,0.1-0.1,0.3-0.1,0.5c-0.1,0.2-0.2,0.4-0.3,0.5c-0.1,0.2-0.4,0.3-0.5,0.4c-0.2,0.2-0.3,0.3-0.5,0.5c-0.2,0.1-0.3,0.3-0.5,0.4
					C52.6,66.8,52.4,66.9,52.3,66.9L52.3,66.9z"/>
			</g>
			<g id="XMLID_1649_">
				
					<radialGradient id="XMLID_27_" cx="-44.6511" cy="80.0374" r="2.1945" gradientTransform="matrix(0.969 0 0 0.969 92.7276 -14.8293)" gradientUnits="userSpaceOnUse">
					<stop  offset="2.970297e-02" style="stop-color:#F9C51B"/>
					<stop  offset="0.3639" style="stop-color:#F6C11D"/>
					<stop  offset="0.7112" style="stop-color:#ECB421"/>
					<stop  offset="1" style="stop-color:#DFA427"/>
					<stop  offset="1" style="stop-color:#DEA327"/>
				</radialGradient>
				<path id="XMLID_1651_" class="st31" d="M47.2,64.6c0,0,0.3-0.3,0.6-0.7c0.2-0.2,0.4-0.4,0.7-0.7c0.2-0.3,0.5-0.5,0.8-0.8
					c0.3-0.3,0.5-0.6,0.8-0.8c0.3-0.2,0.5-0.4,0.8-0.5c0.3-0.1,0.5-0.2,0.6-0.3c0.2-0.1,0.3-0.1,0.3-0.1l0.1,0.1c0,0,0,0.1-0.1,0.3
					c-0.1,0.2-0.2,0.4-0.4,0.6c-0.2,0.2-0.4,0.5-0.7,0.7c-0.3,0.2-0.6,0.4-0.9,0.6c-0.3,0.2-0.6,0.4-0.9,0.6
					c-0.3,0.2-0.6,0.4-0.8,0.5C47.5,64.5,47.2,64.7,47.2,64.6L47.2,64.6z"/>
				
					<radialGradient id="XMLID_28_" cx="-46.2662" cy="75.5004" r="1.3819" gradientTransform="matrix(0.969 0 0 0.969 92.7276 -14.8293)" gradientUnits="userSpaceOnUse">
					<stop  offset="2.970297e-02" style="stop-color:#F9C51B"/>
					<stop  offset="0.3639" style="stop-color:#F6C11D"/>
					<stop  offset="0.7112" style="stop-color:#ECB421"/>
					<stop  offset="1" style="stop-color:#DFA427"/>
					<stop  offset="1" style="stop-color:#DEA327"/>
				</radialGradient>
				<path id="XMLID_1650_" class="st32" d="M46.3,59.2c0,0,0.2-0.2,0.4-0.4c0.1-0.1,0.3-0.3,0.5-0.4c0.2-0.1,0.4-0.3,0.5-0.4
					c0.2-0.1,0.3-0.3,0.5-0.4c0.2-0.1,0.4-0.2,0.6-0.2c0.2,0,0.3,0,0.5,0c0.1,0,0.2,0,0.2,0l0,0.1c0,0,0,0.1-0.1,0.2
					c-0.1,0.1-0.1,0.2-0.3,0.4c-0.1,0.1-0.3,0.3-0.5,0.4c-0.2,0.1-0.4,0.2-0.6,0.2c-0.2,0.1-0.4,0.2-0.6,0.3
					c-0.2,0.1-0.4,0.1-0.6,0.2C46.6,59.2,46.3,59.3,46.3,59.2L46.3,59.2z"/>
			</g>
			<g id="XMLID_1646_">
				
					<radialGradient id="XMLID_29_" cx="-49.3271" cy="71.4083" r="2.1868" gradientTransform="matrix(0.969 0 0 0.969 92.7276 -14.8293)" gradientUnits="userSpaceOnUse">
					<stop  offset="2.970297e-02" style="stop-color:#F9C51B"/>
					<stop  offset="0.3639" style="stop-color:#F6C11D"/>
					<stop  offset="0.7112" style="stop-color:#ECB421"/>
					<stop  offset="1" style="stop-color:#DFA427"/>
					<stop  offset="1" style="stop-color:#DEA327"/>
				</radialGradient>
				<path id="XMLID_1648_" class="st33" d="M42.1,55.4c0,0,0.3-0.2,0.8-0.4c0.2-0.1,0.5-0.3,0.9-0.4c0.3-0.2,0.6-0.3,1-0.5
					c0.3-0.2,0.7-0.4,1-0.5c0.3-0.1,0.6-0.2,0.9-0.2c0.3,0,0.5-0.1,0.7,0c0.2,0,0.3,0,0.3,0l0,0.1c0,0-0.1,0.1-0.2,0.2
					c-0.1,0.1-0.3,0.3-0.6,0.4c-0.2,0.2-0.5,0.3-0.9,0.4c-0.3,0.1-0.7,0.2-1.1,0.3c-0.4,0.1-0.7,0.2-1.1,0.3
					c-0.3,0.1-0.7,0.2-0.9,0.2C42.5,55.4,42.2,55.5,42.1,55.4L42.1,55.4z"/>
				
					<radialGradient id="XMLID_30_" cx="-49.3649" cy="66.5028" r="1.3819" gradientTransform="matrix(0.969 0 0 0.969 92.7276 -14.8293)" gradientUnits="userSpaceOnUse">
					<stop  offset="2.970297e-02" style="stop-color:#F9C51B"/>
					<stop  offset="0.3639" style="stop-color:#F6C11D"/>
					<stop  offset="0.7112" style="stop-color:#ECB421"/>
					<stop  offset="1" style="stop-color:#DFA427"/>
					<stop  offset="1" style="stop-color:#DEA327"/>
				</radialGradient>
				<path id="XMLID_1647_" class="st34" d="M43.1,50c0,0,0.2-0.1,0.5-0.2c0.2-0.1,0.4-0.1,0.6-0.2c0.2-0.1,0.4-0.2,0.6-0.2
					c0.2-0.1,0.4-0.2,0.6-0.2c0.2,0,0.4,0,0.6,0c0.2,0,0.3,0.1,0.5,0.1c0.1,0,0.2,0.1,0.2,0.1l0,0.1c0,0,0,0.1-0.1,0.1
					c-0.1,0.1-0.2,0.2-0.4,0.3c-0.2,0.1-0.3,0.2-0.6,0.2c-0.2,0-0.5,0-0.7,0c-0.2,0-0.5,0-0.7,0c-0.2,0-0.4,0-0.6,0
					C43.3,50.1,43.1,50.1,43.1,50L43.1,50z"/>
			</g>
			<g id="XMLID_1643_">
				
					<radialGradient id="XMLID_31_" cx="-50.9106" cy="61.7181" r="2.1896" gradientTransform="matrix(0.969 0 0 0.969 92.7276 -14.8293)" gradientUnits="userSpaceOnUse">
					<stop  offset="2.970297e-02" style="stop-color:#F9C51B"/>
					<stop  offset="0.3639" style="stop-color:#F6C11D"/>
					<stop  offset="0.7112" style="stop-color:#ECB421"/>
					<stop  offset="1" style="stop-color:#DFA427"/>
					<stop  offset="1" style="stop-color:#DEA327"/>
				</radialGradient>
				<path id="XMLID_1645_" class="st35" d="M40.4,45c0,0,0.4-0.1,0.9-0.1c0.3,0,0.6-0.1,0.9-0.1c0.3,0,0.7-0.1,1.1-0.1
					c0.4,0,0.7-0.1,1.1-0.1c0.3,0,0.7,0,1,0.1c0.3,0.1,0.5,0.1,0.7,0.2c0.2,0.1,0.3,0.1,0.3,0.1l0,0.1c0,0-0.1,0.1-0.3,0.1
					c-0.2,0.1-0.4,0.1-0.7,0.2c-0.3,0.1-0.6,0.1-0.9,0.1c-0.3,0-0.7-0.1-1.1-0.1c-0.4,0-0.7,0-1.1-0.1c-0.3,0-0.7-0.1-1-0.1
					C40.8,45.2,40.4,45.1,40.4,45L40.4,45z"/>
				
					<radialGradient id="XMLID_32_" cx="-49.3668" cy="57.2947" r="1.3855" gradientTransform="matrix(0.969 0 0 0.969 92.7276 -14.8293)" gradientUnits="userSpaceOnUse">
					<stop  offset="2.970297e-02" style="stop-color:#F9C51B"/>
					<stop  offset="0.3639" style="stop-color:#F6C11D"/>
					<stop  offset="0.7112" style="stop-color:#ECB421"/>
					<stop  offset="1" style="stop-color:#DFA427"/>
					<stop  offset="1" style="stop-color:#DEA327"/>
				</radialGradient>
				<path id="XMLID_1644_" class="st36" d="M43.1,40.3c0,0,0.2,0,0.6,0c0.2,0,0.4,0,0.6,0c0.2,0,0.5,0,0.7,0c0.2,0,0.5,0,0.7,0
					c0.2,0,0.4,0.1,0.6,0.2c0.2,0.1,0.3,0.2,0.4,0.3c0.1,0.1,0.1,0.1,0.1,0.1l0,0.1c0,0-0.1,0-0.2,0.1c-0.1,0.1-0.3,0.1-0.4,0.1
					c-0.2,0-0.4,0.1-0.6,0c-0.2,0-0.4-0.1-0.7-0.2c-0.2-0.1-0.4-0.1-0.7-0.2c-0.2-0.1-0.4-0.1-0.6-0.2
					C43.3,40.5,43.1,40.4,43.1,40.3L43.1,40.3z"/>
			</g>
			<g id="XMLID_1639_">
				
					<radialGradient id="XMLID_33_" cx="-49.2255" cy="52.1084" r="2.1865" gradientTransform="matrix(0.969 0 0 0.969 92.7276 -14.8293)" gradientUnits="userSpaceOnUse">
					<stop  offset="2.970297e-02" style="stop-color:#F9C51B"/>
					<stop  offset="0.3639" style="stop-color:#F6C11D"/>
					<stop  offset="0.7112" style="stop-color:#ECB421"/>
					<stop  offset="1" style="stop-color:#DFA427"/>
					<stop  offset="1" style="stop-color:#DEA327"/>
				</radialGradient>
				<path id="XMLID_1641_" class="st37" d="M42.2,34.7c0,0,0.4,0.1,0.9,0.2c0.3,0.1,0.6,0.1,0.9,0.2c0.3,0.1,0.7,0.2,1.1,0.2
					c0.4,0.1,0.7,0.1,1.1,0.2c0.3,0.1,0.6,0.3,0.9,0.4c0.2,0.1,0.4,0.3,0.6,0.4c0.1,0.1,0.2,0.2,0.2,0.2l0,0.1c0,0-0.1,0-0.3,0
					c-0.2,0-0.4,0-0.7,0c-0.3,0-0.6-0.1-0.9-0.2c-0.3-0.1-0.7-0.3-1-0.4c-0.3-0.1-0.7-0.3-1-0.4c-0.3-0.1-0.6-0.3-0.9-0.4
					C42.5,34.9,42.2,34.8,42.2,34.7L42.2,34.7z"/>
				
					<radialGradient id="XMLID_34_" cx="-46.2717" cy="48.318" r="1.3828" gradientTransform="matrix(0.969 0 0 0.969 92.7276 -14.8293)" gradientUnits="userSpaceOnUse">
					<stop  offset="2.970297e-02" style="stop-color:#F9C51B"/>
					<stop  offset="0.3639" style="stop-color:#F6C11D"/>
					<stop  offset="0.7112" style="stop-color:#ECB421"/>
					<stop  offset="1" style="stop-color:#DFA427"/>
					<stop  offset="1" style="stop-color:#DEA327"/>
				</radialGradient>
				<path id="XMLID_1640_" class="st38" d="M46.3,31.1c0,0,0.2,0.1,0.6,0.2c0.2,0,0.4,0.1,0.6,0.2c0.2,0.1,0.4,0.1,0.6,0.2
					c0.2,0.1,0.5,0.1,0.7,0.2c0.2,0.1,0.3,0.2,0.5,0.4c0.1,0.1,0.2,0.3,0.3,0.4c0.1,0.1,0.1,0.2,0.1,0.2l0,0.1c0,0-0.1,0-0.2,0
					c-0.1,0-0.3,0-0.5,0c-0.2,0-0.4-0.1-0.6-0.2c-0.2-0.1-0.4-0.3-0.6-0.4c-0.2-0.1-0.4-0.3-0.6-0.4c-0.2-0.1-0.3-0.3-0.5-0.4
					C46.4,31.3,46.2,31.2,46.3,31.1L46.3,31.1z"/>
			</g>
			<g id="XMLID_1636_">
				
					<radialGradient id="XMLID_35_" cx="-44.4591" cy="43.5186" r="2.1938" gradientTransform="matrix(0.969 0 0 0.969 92.7276 -14.8293)" gradientUnits="userSpaceOnUse">
					<stop  offset="2.970297e-02" style="stop-color:#F9C51B"/>
					<stop  offset="0.3639" style="stop-color:#F6C11D"/>
					<stop  offset="0.7112" style="stop-color:#ECB421"/>
					<stop  offset="1" style="stop-color:#DFA427"/>
					<stop  offset="1" style="stop-color:#DEA327"/>
				</radialGradient>
				<path id="XMLID_1638_" class="st39" d="M47.3,25.5c0,0,0.3,0.2,0.8,0.5c0.2,0.1,0.5,0.3,0.8,0.5c0.3,0.2,0.6,0.4,0.9,0.6
					c0.3,0.2,0.7,0.4,0.9,0.6c0.3,0.2,0.5,0.4,0.7,0.7c0.2,0.2,0.3,0.4,0.4,0.6C52,29,52,29.1,52,29.1L52,29.2c0,0-0.1,0-0.3-0.1
					c-0.2,0-0.4-0.1-0.7-0.2c-0.3-0.1-0.5-0.3-0.8-0.5c-0.3-0.2-0.5-0.5-0.8-0.7c-0.3-0.2-0.6-0.5-0.8-0.7c-0.3-0.2-0.5-0.5-0.7-0.7
					C47.5,25.9,47.3,25.6,47.3,25.5L47.3,25.5z"/>
				
					<radialGradient id="XMLID_36_" cx="-40.4236" cy="40.9103" r="1.3817" gradientTransform="matrix(0.969 0 0 0.969 92.7276 -14.8293)" gradientUnits="userSpaceOnUse">
					<stop  offset="2.970297e-02" style="stop-color:#F9C51B"/>
					<stop  offset="0.3639" style="stop-color:#F6C11D"/>
					<stop  offset="0.7112" style="stop-color:#ECB421"/>
					<stop  offset="1" style="stop-color:#DFA427"/>
					<stop  offset="1" style="stop-color:#DEA327"/>
				</radialGradient>
				<path id="XMLID_1637_" class="st40" d="M52.3,23.4c0,0,0.2,0.1,0.5,0.3c0.1,0.1,0.3,0.2,0.5,0.4c0.2,0.1,0.4,0.3,0.5,0.4
					c0.2,0.1,0.4,0.3,0.5,0.4c0.2,0.2,0.3,0.3,0.3,0.5c0.1,0.2,0.1,0.3,0.1,0.4c0,0.1,0,0.2,0,0.2l-0.1,0.1c0,0-0.1,0-0.2,0
					c-0.1,0-0.3-0.1-0.4-0.2c-0.2-0.1-0.3-0.2-0.5-0.4c-0.1-0.2-0.2-0.4-0.4-0.6c-0.1-0.2-0.3-0.4-0.4-0.6c-0.1-0.2-0.2-0.4-0.3-0.5
					C52.4,23.7,52.2,23.5,52.3,23.4L52.3,23.4z"/>
			</g>
			<g id="XMLID_1633_">
				
					<radialGradient id="XMLID_37_" cx="-37.1412" cy="36.9938" r="2.1926" gradientTransform="matrix(0.969 0 0 0.969 92.7276 -14.8293)" gradientUnits="userSpaceOnUse">
					<stop  offset="2.970297e-02" style="stop-color:#F9C51B"/>
					<stop  offset="0.3639" style="stop-color:#F6C11D"/>
					<stop  offset="0.7112" style="stop-color:#ECB421"/>
					<stop  offset="1" style="stop-color:#DFA427"/>
					<stop  offset="1" style="stop-color:#DEA327"/>
				</radialGradient>
				<path id="XMLID_1635_" class="st41" d="M55.1,18.5c0,0,0.3,0.3,0.6,0.7c0.2,0.2,0.4,0.5,0.6,0.7c0.2,0.3,0.5,0.6,0.7,0.9
					c0.2,0.3,0.5,0.6,0.7,0.8c0.2,0.3,0.3,0.6,0.4,0.8c0.1,0.3,0.2,0.5,0.2,0.7c0,0.2,0,0.3,0,0.3l-0.1,0.1c0,0-0.1,0-0.2-0.1
					c-0.1-0.1-0.3-0.3-0.5-0.4c-0.2-0.2-0.4-0.4-0.6-0.7c-0.2-0.3-0.3-0.6-0.5-1c-0.2-0.3-0.4-0.6-0.5-1c-0.2-0.3-0.3-0.6-0.4-0.8
					C55.2,18.9,55.1,18.6,55.1,18.5L55.1,18.5z"/>
				
					<radialGradient id="XMLID_38_" cx="-32.4413" cy="35.8571" r="1.3834" gradientTransform="matrix(0.969 0 0 0.969 92.7276 -14.8293)" gradientUnits="userSpaceOnUse">
					<stop  offset="2.970297e-02" style="stop-color:#F9C51B"/>
					<stop  offset="0.3639" style="stop-color:#F6C11D"/>
					<stop  offset="0.7112" style="stop-color:#ECB421"/>
					<stop  offset="1" style="stop-color:#DFA427"/>
					<stop  offset="1" style="stop-color:#DEA327"/>
				</radialGradient>
				<path id="XMLID_1634_" class="st42" d="M60.5,18.2c0,0,0.1,0.2,0.3,0.5c0.1,0.1,0.2,0.3,0.3,0.5c0.1,0.2,0.2,0.4,0.4,0.6
					c0.1,0.2,0.3,0.4,0.4,0.6c0.1,0.2,0.1,0.4,0.1,0.6c0,0.2,0,0.3,0,0.5c0,0.1,0,0.2,0,0.2l-0.1,0c0,0-0.1,0-0.2-0.1
					c-0.1-0.1-0.2-0.2-0.4-0.3c-0.1-0.1-0.3-0.3-0.3-0.5c-0.1-0.2-0.1-0.4-0.2-0.7c-0.1-0.2-0.1-0.4-0.2-0.7
					c-0.1-0.2-0.1-0.4-0.1-0.6C60.5,18.5,60.5,18.3,60.5,18.2L60.5,18.2z"/>
			</g>
			<g id="XMLID_1630_">
				
					<radialGradient id="XMLID_39_" cx="-28.0438" cy="33.2373" r="2.1861" gradientTransform="matrix(0.969 0 0 0.969 92.7276 -14.8293)" gradientUnits="userSpaceOnUse">
					<stop  offset="2.970297e-02" style="stop-color:#F9C51B"/>
					<stop  offset="0.3639" style="stop-color:#F6C11D"/>
					<stop  offset="0.7112" style="stop-color:#ECB421"/>
					<stop  offset="1" style="stop-color:#DFA427"/>
					<stop  offset="1" style="stop-color:#DEA327"/>
				</radialGradient>
				<path id="XMLID_1632_" class="st43" d="M64.8,14.5c0,0,0.1,0.3,0.3,0.9c0.1,0.3,0.2,0.6,0.3,0.9c0.1,0.3,0.2,0.7,0.4,1
					c0.1,0.4,0.3,0.7,0.4,1c0.1,0.3,0.1,0.7,0.1,0.9c0,0.3,0,0.5,0,0.7c0,0.2-0.1,0.3-0.1,0.3l-0.1,0c0,0-0.1-0.1-0.2-0.2
					c-0.1-0.1-0.2-0.3-0.4-0.6c-0.1-0.3-0.3-0.6-0.3-0.9c-0.1-0.3-0.1-0.7-0.2-1.1c-0.1-0.4-0.1-0.7-0.2-1.1
					c-0.1-0.3-0.1-0.7-0.1-0.9C64.8,14.9,64.7,14.5,64.8,14.5L64.8,14.5z"/>
				
					<radialGradient id="XMLID_40_" cx="-23.2346" cy="33.6983" r="1.3901" gradientTransform="matrix(0.969 0 0 0.969 92.7276 -14.8293)" gradientUnits="userSpaceOnUse">
					<stop  offset="2.970297e-02" style="stop-color:#F9C51B"/>
					<stop  offset="0.3639" style="stop-color:#F6C11D"/>
					<stop  offset="0.7112" style="stop-color:#ECB421"/>
					<stop  offset="1" style="stop-color:#DFA427"/>
					<stop  offset="1" style="stop-color:#DEA327"/>
				</radialGradient>
				<path id="XMLID_1631_" class="st44" d="M70,16c0,0,0.1,0.2,0.2,0.6c0,0.2,0.1,0.4,0.2,0.6c0.1,0.2,0.1,0.4,0.2,0.7
					c0,0.2,0.1,0.5,0.2,0.7c0,0.2,0,0.4-0.1,0.6c0,0.2-0.1,0.3-0.2,0.4c-0.1,0.1-0.1,0.2-0.1,0.2l-0.1,0c0,0-0.1-0.1-0.1-0.1
					c-0.1-0.1-0.2-0.2-0.2-0.4c-0.1-0.2-0.1-0.4-0.2-0.6c0-0.2,0-0.5,0-0.7c0-0.2,0-0.5,0-0.7c0-0.2,0-0.4,0-0.6
					C69.9,16.2,69.9,16,70,16L70,16z"/>
			</g>
		</g>
		<g>
			<g>
				
					<radialGradient id="SVGID_6_" cx="-17.9001" cy="71.9711" r="62.8724" gradientTransform="matrix(0.969 0 0 0.969 92.7276 -14.8293)" gradientUnits="userSpaceOnUse">
					<stop  offset="0" style="stop-color:#616161"/>
					<stop  offset="1" style="stop-color:#808080"/>
				</radialGradient>
				<path class="st45" d="M107.6,125.2c0.1,0,0.3-0.1,0.4-0.1c0.3-0.1,0.6-0.2,1-0.3c0.9-0.3,1.9-0.5,2.8-0.9c0,0,0.1,0,0.1,0
					c2.1-0.7,4.1-1.6,6.1-2.7c0.2-0.1,0.4-0.2,0.5-0.3c0.2-0.1,0.4-0.2,0.6-0.3c20.4-11.4,28.8-36.5,18.7-58.4
					c-8.8-19.1-26.7-26.1-41.8-26C79.4,36.4,63.9,49.6,71,65.2c4.2-22.9,45-28.1,57.5-0.4c9.7,21.3-0.1,44.2-19.6,50.6
					C76.2,126,50.3,99.8,53.4,70.2c0,0,0,0,0,0l-0.6,2.5c-0.6,2.8-0.8,5.7-0.8,8.7c0,8.8,2.5,17,6.9,24c0,0.1,0.1,0.1,0.1,0.2
					c0.1,0.2,0.2,0.3,0.3,0.5c3.5,5.4,8,9.8,13.2,13.2c0.1,0.1,0.2,0.1,0.3,0.2c0.1,0.1,0.2,0.1,0.3,0.2c5.2,3.3,11.2,5.5,17.5,6.4
					c0.2,0,0.4,0.1,0.5,0.1c0.1,0,0.1,0,0.2,0c4.8,0.6,9.7,0.4,14.5-0.5c0,0,0.1,0,0.1,0C106.6,125.5,107.1,125.3,107.6,125.2z"/>
				<linearGradient id="SVGID_7_" gradientUnits="userSpaceOnUse" x1="52.7543" y1="81.9884" x2="138.1973" y2="81.9884">
					<stop  offset="0" style="stop-color:#474747"/>
					<stop  offset="1" style="stop-color:#808080"/>
				</linearGradient>
				<path class="st46" d="M59.7,103.9c0,0.1,0.1,0.1,0.1,0.2c0.1,0.1,0.2,0.3,0.3,0.4c3.3,4.9,7.5,9,12.3,12
					c0.1,0.1,0.2,0.1,0.3,0.2c0.1,0.1,0.2,0.1,0.3,0.2c4.9,3,10.4,5,16.4,5.8c0.2,0,0.3,0,0.5,0.1c0.1,0,0.1,0,0.2,0
					c4.4,0.5,9,0.4,13.5-0.5c0,0,0.1,0,0.1,0c0.5-0.1,1-0.2,1.5-0.3c0.1,0,0.3-0.1,0.4-0.1c0.3-0.1,0.6-0.2,0.9-0.2
					c0.9-0.2,1.7-0.5,2.6-0.8c0,0,0.1,0,0.1,0c2-0.7,3.9-1.5,5.7-2.4c0.2-0.1,0.3-0.2,0.5-0.3c0.2-0.1,0.4-0.2,0.5-0.3
					c19-10.4,27.8-33.9,18.4-53.8c-8.2-17.4-24.9-24.3-39.9-23c-13.4,1.2-21.8,8.6-25.2,15.7c-0.1,2.7,0.4,5.6,1.7,8.5
					c4.2-22.9,45-28.1,57.5-0.4c9.7,21.3-0.1,44.2-19.6,50.6C76.2,126,50.3,99.8,53.4,70.2C51.1,84.5,55.7,97.6,59.7,103.9z"/>
				<linearGradient id="SVGID_8_" gradientUnits="userSpaceOnUse" x1="60.8438" y1="56.7324" x2="78.2092" y2="51.234">
					<stop  offset="5.008000e-04" style="stop-color:#5F5F5F"/>
					<stop  offset="1" style="stop-color:#898989;stop-opacity:0.2"/>
				</linearGradient>
				<path class="st47" d="M74,57.7c-1.3-10.6,8.5-17.8,12.6-19.8c-12,3.3-21.4,17.1-15.4,26.3C71.5,62.3,72.8,59.3,74,57.7z"/>
				<g class="st48">
					<linearGradient id="SVGID_9_" gradientUnits="userSpaceOnUse" x1="86.4651" y1="41.9723" x2="105.7054" y2="122.369">
						<stop  offset="0" style="stop-color:#474747"/>
						<stop  offset="1" style="stop-color:#808080"/>
					</linearGradient>
					<path class="st49" d="M53.4,70.2c-1.5,10.1,0.1,20.6,4.5,29.8c4.4,9.1,12.6,16.3,22,19.9c9.4,3.6,20.2,3.8,29.7,0.4
						c4.8-1.7,9.2-4.3,13.1-7.5c3.9-3.2,7.1-7.2,9.6-11.6c5-8.7,6.8-19.4,4.4-29.2c-2.4-9.8-8.4-18.8-16.9-24.3
						c-8.5-5.6-19.1-7.6-29.1-5.9c-5,0.9-9.8,2.9-13.9,6c-4,3.1-7.3,7.3-8.8,12.2c1.3-5,4.6-9.2,8.6-12.4c4-3.2,8.9-5.2,13.9-6.2
						c10.1-2,20.9,0.1,29.6,5.7c8.7,5.6,14.9,14.7,17.4,24.7c2.5,10.1,0.7,21-4.4,29.9c-2.5,4.5-5.9,8.5-9.9,11.8
						c-4,3.3-8.5,5.9-13.4,7.6c-9.7,3.5-20.7,3.3-30.3-0.5c-9.6-3.8-17.8-11.1-22.2-20.4C53.2,90.8,51.7,80.3,53.4,70.2z"/>
				</g>
			</g>
			<linearGradient id="SVGID_10_" gradientUnits="userSpaceOnUse" x1="54.6125" y1="71.8343" x2="54.6125" y2="71.8343">
				<stop  offset="0" style="stop-color:#888888"/>
				<stop  offset="1" style="stop-color:#474747"/>
			</linearGradient>
			<path class="st50" d="M54.6,71.8"/>
			<linearGradient id="SVGID_11_" gradientUnits="userSpaceOnUse" x1="126.597" y1="49.5376" x2="76.0379" y2="28.7502">
				<stop  offset="5.008000e-04" style="stop-color:#5F5F5F"/>
				<stop  offset="1" style="stop-color:#898989"/>
			</linearGradient>
			<path class="st51" d="M93.9,36.4c0.5,0,0.9-0.1,1.4-0.1C94.9,36.4,94.4,36.4,93.9,36.4z"/>
			<linearGradient id="SVGID_12_" gradientUnits="userSpaceOnUse" x1="95.1222" y1="36.8795" x2="93.009" y2="36.0107">
				<stop  offset="5.008000e-04" style="stop-color:#5F5F5F"/>
				<stop  offset="1" style="stop-color:#898989"/>
			</linearGradient>
			<path class="st52" d="M92.8,36.5c0.8-0.1,1.7-0.1,2.5-0.2C94.5,36.4,93.6,36.4,92.8,36.5z"/>
			<g>
				<linearGradient id="SVGID_13_" gradientUnits="userSpaceOnUse" x1="116.575" y1="73.8612" x2="64.9234" y2="52.6247">
					<stop  offset="5.008000e-04" style="stop-color:#5F5F5F"/>
					<stop  offset="1" style="stop-color:#898989"/>
				</linearGradient>
				<path class="st53" d="M116.3,76.9c-8,16.6-32.9,15.1-43.2,6.9c-17.1-13.6-8.7-46.3,22.2-47.5c-24.4,0.7-32.7,28.6-16,38.4
					c11.6,6.9,28.1,2.3,24.9-9l0.1-2.9l11,2.4C119.7,68.7,117.8,72.8,116.3,76.9z"/>
				<linearGradient id="SVGID_14_" gradientUnits="userSpaceOnUse" x1="101.603" y1="50.9567" x2="73.1995" y2="78.492">
					<stop  offset="5.008000e-04" style="stop-color:#5F5F5F"/>
					<stop  offset="1" style="stop-color:#898989"/>
				</linearGradient>
				<path class="st54" d="M104.2,65.8c3.2,11.3-13.3,15.9-24.9,9C63.6,65.4,70.1,40,91.5,36.7c0,0,0,0,0,0c-3.1,0.4-5.9,1.1-8.5,2.2
					c-2.7,1.2-5.7,3.2-8.8,6.3c-9,11.8-8.3,25.8,2.6,34.2c11.3,8.8,39.5,3,34.1-15.1l-6.5-1.4L104.2,65.8z"/>
				<linearGradient id="SVGID_15_" gradientUnits="userSpaceOnUse" x1="78.322" y1="81.1882" x2="92.5552" y2="84.7126">
					<stop  offset="5.008000e-04" style="stop-color:#5F5F5F"/>
					<stop  offset="0.999" style="stop-color:#898989;stop-opacity:0"/>
				</linearGradient>
				<path class="st55" d="M79.9,76c-1.3,2.8-1.3,3.8-1.5,7c-0.1,0.8-0.1,1.7,0,2.5c3,2,6.4,3.9,11.9,4.3c-1.7-3.7-2.1-9.8-0.6-11.8
					C86.9,77.8,80.3,76.2,79.9,76z"/>
				<g class="st56">
					<linearGradient id="SVGID_16_" gradientUnits="userSpaceOnUse" x1="109.6257" y1="76.9207" x2="66.6044" y2="59.2326">
						<stop  offset="5.008000e-04" style="stop-color:#5F5F5F"/>
						<stop  offset="1" style="stop-color:#898989"/>
					</linearGradient>
					<path class="st57" d="M74.1,45.2c-2.1,2.9-3.8,6.2-4.8,9.6c-1,3.4-1.4,7.1-0.8,10.6c0.6,3.5,2.1,6.8,4.3,9.6
						c2.2,2.7,5,5.1,8.3,6.3c3.3,1.3,6.9,1.7,10.5,1.6c3.6-0.1,7.1-0.9,10.4-2.2c3.2-1.4,6.3-3.6,7.9-6.8c0.8-1.6,1.3-3.3,1.3-5.1
						c0.1-1.8-0.3-3.6-0.8-5.3c1.3,3.3,1.6,7.3-0.1,10.7c-1.6,3.4-4.7,5.7-8.1,7.3c-3.3,1.5-7,2.3-10.7,2.4
						c-3.7,0.1-7.4-0.3-10.9-1.6c-1.7-0.7-3.4-1.6-4.8-2.8c-1.4-1.2-2.7-2.5-3.9-3.9c-2.3-2.9-3.8-6.4-4.3-10
						c-0.5-3.6-0.1-7.4,1-10.8C70,51.2,71.9,48,74.1,45.2z"/>
				</g>
				<linearGradient id="SVGID_17_" gradientUnits="userSpaceOnUse" x1="111.7016" y1="59.7923" x2="110.6366" y2="73.5317">
					<stop  offset="5.008000e-04" style="stop-color:#5F5F5F"/>
					<stop  offset="0.999" style="stop-color:#898989;stop-opacity:0"/>
				</linearGradient>
				<path class="st58" d="M104.5,69.7c3.3-1.1,8.1,0.4,10.4,3.2c0.9,1.1,1.4,2.4,1.5,3.7c1.4-4,3.1-7.9-1.2-11.3l-11-2.4l-0.1,2.9
					C104.7,67.5,104.7,68.6,104.5,69.7z"/>
			</g>
			<path class="st59" d="M93.9,36.4c0.5,0,0.9-0.1,1.4-0.1C94.9,36.4,94.4,36.4,93.9,36.4z"/>
			<g>
				<linearGradient id="SVGID_18_" gradientUnits="userSpaceOnUse" x1="121.5629" y1="104.794" x2="72.8308" y2="54.7582">
					<stop  offset="0" style="stop-color:#686868"/>
					<stop  offset="0.998" style="stop-color:#868686"/>
				</linearGradient>
				<path class="st60" d="M116.3,76.9c5.5-9.8-1.8-27.1-21.9-23.7C72.4,57,63.8,87,82.6,102.8c14.5,12.1,41.5,2.8,38.8-18
					c-6.4,16.1-33.5,17.9-35.2-1.8C84.2,60.8,120.9,62,116.3,76.9z"/>
				
					<radialGradient id="SVGID_19_" cx="20.4949" cy="81.7052" r="27.0544" gradientTransform="matrix(0.969 0 0 0.969 92.7276 -14.8293)" gradientUnits="userSpaceOnUse">
					<stop  offset="2.043270e-03" style="stop-color:#868686"/>
					<stop  offset="1" style="stop-color:#868686;stop-opacity:0"/>
				</radialGradient>
				<path class="st61" d="M116.3,76.9c5.5-9.8-1.8-27.1-21.9-23.7C72.4,57,63.8,87,82.6,102.8c14.5,12.1,41.5,2.8,38.8-18
					c-6.4,16.1-33.5,17.9-35.2-1.8C84.2,60.8,120.9,62,116.3,76.9z"/>
				<linearGradient id="SVGID_20_" gradientUnits="userSpaceOnUse" x1="106.5238" y1="103.055" x2="94.8266" y2="62.8112">
					<stop  offset="0" style="stop-color:#686868"/>
					<stop  offset="1" style="stop-color:#868686"/>
				</linearGradient>
				<path class="st62" d="M121.5,86.4c0-0.5,0-1.1-0.1-1.6c-6.4,16.1-33.5,17.9-35.2-1.8c-2-22.2,34.7-21,30.2-6.1
					c1.5-2.6,2.1-6.1,1.6-9.5c-1.7-5.9-7.7-10-19.4-8.2c-18.7,2.8-26.8,27.7-10,39.2C102.1,107.7,121,100.5,121.5,86.4z"/>
				<g class="st63">
					<linearGradient id="SVGID_21_" gradientUnits="userSpaceOnUse" x1="106.2101" y1="102.8315" x2="93.7165" y2="59.8475">
						<stop  offset="0" style="stop-color:#686868"/>
						<stop  offset="1" style="stop-color:#868686"/>
					</linearGradient>
					<path class="st64" d="M118,67.4c-0.7-2.3-2.2-4.4-4.2-5.8c-2-1.4-4.4-2.1-6.8-2.4c-2.4-0.3-4.9-0.2-7.3,0.1
						c-2.4,0.3-4.8,0.9-6.9,2c-4.4,2-8,5.5-10.3,9.8c-2.3,4.2-3.2,9.2-2.3,13.9c0.8,4.7,3.5,9.1,7.3,12c3.8,3,8.4,4.8,13.3,5.1
						c4.8,0.3,9.8-0.8,13.8-3.6c2-1.4,3.7-3.1,5-5.2c1.2-2.1,1.9-4.5,2.1-6.9c0,1.2-0.2,2.5-0.5,3.6c-0.3,1.2-0.8,2.3-1.4,3.4
						c-1.2,2.2-2.9,4-4.9,5.5c-4.1,2.9-9.1,4.2-14.1,3.9c-5-0.2-9.9-2.1-13.8-5.2c-4-3-6.8-7.6-7.7-12.5c-0.9-5,0.1-10.1,2.5-14.5
						c2.4-4.4,6.2-8,10.8-10c2.3-1,4.7-1.6,7.2-1.9c2.5-0.3,4.9-0.3,7.4,0c2.4,0.4,4.9,1.2,6.9,2.7C115.9,62.9,117.3,65.1,118,67.4z
						"/>
				</g>
			</g>
		</g>
		<g>
			<g>
				
					<radialGradient id="SVGID_22_" cx="-17.9001" cy="71.9711" r="62.8724" gradientTransform="matrix(0.969 0 0 0.969 92.7276 -14.8293)" gradientUnits="userSpaceOnUse">
					<stop  offset="0" style="stop-color:#616161"/>
					<stop  offset="1" style="stop-color:#808080"/>
				</radialGradient>
				<path class="st65" d="M107.6,125.2c0.1,0,0.3-0.1,0.4-0.1c0.3-0.1,0.6-0.2,1-0.3c0.9-0.3,1.9-0.5,2.8-0.9c0,0,0.1,0,0.1,0
					c2.1-0.7,4.1-1.6,6.1-2.7c0.2-0.1,0.4-0.2,0.5-0.3c0.2-0.1,0.4-0.2,0.6-0.3c20.4-11.4,28.8-36.5,18.7-58.4
					c-8.8-19.1-26.7-26.1-41.8-26C79.4,36.4,63.9,49.6,71,65.2c4.2-22.9,45-28.1,57.5-0.4c9.7,21.3-0.1,44.2-19.6,50.6
					C76.2,126,50.3,99.8,53.4,70.2c0,0,0,0,0,0l-0.6,2.5c-0.6,2.8-0.8,5.7-0.8,8.7c0,8.8,2.5,17,6.9,24c0,0.1,0.1,0.1,0.1,0.2
					c0.1,0.2,0.2,0.3,0.3,0.5c3.5,5.4,8,9.8,13.2,13.2c0.1,0.1,0.2,0.1,0.3,0.2c0.1,0.1,0.2,0.1,0.3,0.2c5.2,3.3,11.2,5.5,17.5,6.4
					c0.2,0,0.4,0.1,0.5,0.1c0.1,0,0.1,0,0.2,0c4.8,0.6,9.7,0.4,14.5-0.5c0,0,0.1,0,0.1,0C106.6,125.5,107.1,125.3,107.6,125.2z"/>
				<linearGradient id="SVGID_23_" gradientUnits="userSpaceOnUse" x1="52.7543" y1="81.9884" x2="138.1973" y2="81.9884">
					<stop  offset="0" style="stop-color:#474747"/>
					<stop  offset="1" style="stop-color:#808080"/>
				</linearGradient>
				<path class="st66" d="M59.7,103.9c0,0.1,0.1,0.1,0.1,0.2c0.1,0.1,0.2,0.3,0.3,0.4c3.3,4.9,7.5,9,12.3,12
					c0.1,0.1,0.2,0.1,0.3,0.2c0.1,0.1,0.2,0.1,0.3,0.2c4.9,3,10.4,5,16.4,5.8c0.2,0,0.3,0,0.5,0.1c0.1,0,0.1,0,0.2,0
					c4.4,0.5,9,0.4,13.5-0.5c0,0,0.1,0,0.1,0c0.5-0.1,1-0.2,1.5-0.3c0.1,0,0.3-0.1,0.4-0.1c0.3-0.1,0.6-0.2,0.9-0.2
					c0.9-0.2,1.7-0.5,2.6-0.8c0,0,0.1,0,0.1,0c2-0.7,3.9-1.5,5.7-2.4c0.2-0.1,0.3-0.2,0.5-0.3c0.2-0.1,0.4-0.2,0.5-0.3
					c19-10.4,27.8-33.9,18.4-53.8c-8.2-17.4-24.9-24.3-39.9-23c-13.4,1.2-21.8,8.6-25.2,15.7c-0.1,2.7,0.4,5.6,1.7,8.5
					c4.2-22.9,45-28.1,57.5-0.4c9.7,21.3-0.1,44.2-19.6,50.6C76.2,126,50.3,99.8,53.4,70.2C51.1,84.5,55.7,97.6,59.7,103.9z"/>
				<linearGradient id="SVGID_24_" gradientUnits="userSpaceOnUse" x1="60.8438" y1="56.7324" x2="78.2092" y2="51.234">
					<stop  offset="5.008000e-04" style="stop-color:#5F5F5F"/>
					<stop  offset="1" style="stop-color:#898989;stop-opacity:0.2"/>
				</linearGradient>
				<path class="st67" d="M74,57.7c-1.3-10.6,8.5-17.8,12.6-19.8c-12,3.3-21.4,17.1-15.4,26.3C71.5,62.3,72.8,59.3,74,57.7z"/>
				<g class="st48">
					<linearGradient id="SVGID_25_" gradientUnits="userSpaceOnUse" x1="86.4651" y1="41.9723" x2="105.7054" y2="122.369">
						<stop  offset="0" style="stop-color:#474747"/>
						<stop  offset="1" style="stop-color:#808080"/>
					</linearGradient>
					<path class="st68" d="M53.4,70.2c-1.5,10.1,0.1,20.6,4.5,29.8c4.4,9.1,12.6,16.3,22,19.9c9.4,3.6,20.2,3.8,29.7,0.4
						c4.8-1.7,9.2-4.3,13.1-7.5c3.9-3.2,7.1-7.2,9.6-11.6c5-8.7,6.8-19.4,4.4-29.2c-2.4-9.8-8.4-18.8-16.9-24.3
						c-8.5-5.6-19.1-7.6-29.1-5.9c-5,0.9-9.8,2.9-13.9,6c-4,3.1-7.3,7.3-8.8,12.2c1.3-5,4.6-9.2,8.6-12.4c4-3.2,8.9-5.2,13.9-6.2
						c10.1-2,20.9,0.1,29.6,5.7c8.7,5.6,14.9,14.7,17.4,24.7c2.5,10.1,0.7,21-4.4,29.9c-2.5,4.5-5.9,8.5-9.9,11.8
						c-4,3.3-8.5,5.9-13.4,7.6c-9.7,3.5-20.7,3.3-30.3-0.5c-9.6-3.8-17.8-11.1-22.2-20.4C53.2,90.8,51.7,80.3,53.4,70.2z"/>
				</g>
			</g>
			<linearGradient id="SVGID_26_" gradientUnits="userSpaceOnUse" x1="54.6125" y1="71.8343" x2="54.6125" y2="71.8343">
				<stop  offset="0" style="stop-color:#888888"/>
				<stop  offset="1" style="stop-color:#474747"/>
			</linearGradient>
			<path class="st69" d="M54.6,71.8"/>
			<linearGradient id="SVGID_27_" gradientUnits="userSpaceOnUse" x1="126.597" y1="49.5376" x2="76.0379" y2="28.7502">
				<stop  offset="5.008000e-04" style="stop-color:#5F5F5F"/>
				<stop  offset="1" style="stop-color:#898989"/>
			</linearGradient>
			<path class="st70" d="M93.9,36.4c0.5,0,0.9-0.1,1.4-0.1C94.9,36.4,94.4,36.4,93.9,36.4z"/>
			<linearGradient id="SVGID_28_" gradientUnits="userSpaceOnUse" x1="95.1222" y1="36.8795" x2="93.009" y2="36.0107">
				<stop  offset="5.008000e-04" style="stop-color:#5F5F5F"/>
				<stop  offset="1" style="stop-color:#898989"/>
			</linearGradient>
			<path class="st71" d="M92.8,36.5c0.8-0.1,1.7-0.1,2.5-0.2C94.5,36.4,93.6,36.4,92.8,36.5z"/>
			<g>
				<linearGradient id="SVGID_29_" gradientUnits="userSpaceOnUse" x1="116.575" y1="73.8612" x2="64.9234" y2="52.6247">
					<stop  offset="5.008000e-04" style="stop-color:#5F5F5F"/>
					<stop  offset="1" style="stop-color:#898989"/>
				</linearGradient>
				<path class="st72" d="M116.3,76.9c-8,16.6-32.9,15.1-43.2,6.9c-17.1-13.6-8.7-46.3,22.2-47.5c-24.4,0.7-32.7,28.6-16,38.4
					c11.6,6.9,28.1,2.3,24.9-9l0.1-2.9l11,2.4C119.7,68.7,117.8,72.8,116.3,76.9z"/>
				<linearGradient id="SVGID_30_" gradientUnits="userSpaceOnUse" x1="101.603" y1="50.9567" x2="73.1995" y2="78.492">
					<stop  offset="5.008000e-04" style="stop-color:#5F5F5F"/>
					<stop  offset="1" style="stop-color:#898989"/>
				</linearGradient>
				<path class="st73" d="M104.2,65.8c3.2,11.3-13.3,15.9-24.9,9C63.6,65.4,70.1,40,91.5,36.7c0,0,0,0,0,0c-3.1,0.4-5.9,1.1-8.5,2.2
					c-2.7,1.2-5.7,3.2-8.8,6.3c-9,11.8-8.3,25.8,2.6,34.2c11.3,8.8,39.5,3,34.1-15.1l-6.5-1.4L104.2,65.8z"/>
				<linearGradient id="SVGID_31_" gradientUnits="userSpaceOnUse" x1="78.322" y1="81.1882" x2="92.5552" y2="84.7126">
					<stop  offset="5.008000e-04" style="stop-color:#5F5F5F"/>
					<stop  offset="0.999" style="stop-color:#898989;stop-opacity:0"/>
				</linearGradient>
				<path class="st74" d="M79.9,76c-1.3,2.8-1.3,3.8-1.5,7c-0.1,0.8-0.1,1.7,0,2.5c3,2,6.4,3.9,11.9,4.3c-1.7-3.7-2.1-9.8-0.6-11.8
					C86.9,77.8,80.3,76.2,79.9,76z"/>
				<g class="st56">
					<linearGradient id="SVGID_32_" gradientUnits="userSpaceOnUse" x1="109.6257" y1="76.9207" x2="66.6044" y2="59.2326">
						<stop  offset="5.008000e-04" style="stop-color:#5F5F5F"/>
						<stop  offset="1" style="stop-color:#898989"/>
					</linearGradient>
					<path class="st75" d="M74.1,45.2c-2.1,2.9-3.8,6.2-4.8,9.6c-1,3.4-1.4,7.1-0.8,10.6c0.6,3.5,2.1,6.8,4.3,9.6
						c2.2,2.7,5,5.1,8.3,6.3c3.3,1.3,6.9,1.7,10.5,1.6c3.6-0.1,7.1-0.9,10.4-2.2c3.2-1.4,6.3-3.6,7.9-6.8c0.8-1.6,1.3-3.3,1.3-5.1
						c0.1-1.8-0.3-3.6-0.8-5.3c1.3,3.3,1.6,7.3-0.1,10.7c-1.6,3.4-4.7,5.7-8.1,7.3c-3.3,1.5-7,2.3-10.7,2.4
						c-3.7,0.1-7.4-0.3-10.9-1.6c-1.7-0.7-3.4-1.6-4.8-2.8c-1.4-1.2-2.7-2.5-3.9-3.9c-2.3-2.9-3.8-6.4-4.3-10
						c-0.5-3.6-0.1-7.4,1-10.8C70,51.2,71.9,48,74.1,45.2z"/>
				</g>
				<linearGradient id="SVGID_33_" gradientUnits="userSpaceOnUse" x1="111.7016" y1="59.7923" x2="110.6366" y2="73.5317">
					<stop  offset="5.008000e-04" style="stop-color:#5F5F5F"/>
					<stop  offset="0.999" style="stop-color:#898989;stop-opacity:0"/>
				</linearGradient>
				<path class="st76" d="M104.5,69.7c3.3-1.1,8.1,0.4,10.4,3.2c0.9,1.1,1.4,2.4,1.5,3.7c1.4-4,3.1-7.9-1.2-11.3l-11-2.4l-0.1,2.9
					C104.7,67.5,104.7,68.6,104.5,69.7z"/>
			</g>
			<path class="st59" d="M93.9,36.4c0.5,0,0.9-0.1,1.4-0.1C94.9,36.4,94.4,36.4,93.9,36.4z"/>
			<g>
				<linearGradient id="SVGID_34_" gradientUnits="userSpaceOnUse" x1="121.5629" y1="104.794" x2="72.8308" y2="54.7582">
					<stop  offset="0" style="stop-color:#686868"/>
					<stop  offset="0.998" style="stop-color:#868686"/>
				</linearGradient>
				<path class="st77" d="M116.3,76.9c5.5-9.8-1.8-27.1-21.9-23.7C72.4,57,63.8,87,82.6,102.8c14.5,12.1,41.5,2.8,38.8-18
					c-6.4,16.1-33.5,17.9-35.2-1.8C84.2,60.8,120.9,62,116.3,76.9z"/>
				
					<radialGradient id="SVGID_35_" cx="20.4949" cy="81.7052" r="27.0544" gradientTransform="matrix(0.969 0 0 0.969 92.7276 -14.8293)" gradientUnits="userSpaceOnUse">
					<stop  offset="2.043270e-03" style="stop-color:#868686"/>
					<stop  offset="1" style="stop-color:#868686;stop-opacity:0"/>
				</radialGradient>
				<path class="st78" d="M116.3,76.9c5.5-9.8-1.8-27.1-21.9-23.7C72.4,57,63.8,87,82.6,102.8c14.5,12.1,41.5,2.8,38.8-18
					c-6.4,16.1-33.5,17.9-35.2-1.8C84.2,60.8,120.9,62,116.3,76.9z"/>
				<linearGradient id="SVGID_36_" gradientUnits="userSpaceOnUse" x1="106.5238" y1="103.055" x2="94.8266" y2="62.8112">
					<stop  offset="0" style="stop-color:#686868"/>
					<stop  offset="1" style="stop-color:#868686"/>
				</linearGradient>
				<path class="st79" d="M121.5,86.4c0-0.5,0-1.1-0.1-1.6c-6.4,16.1-33.5,17.9-35.2-1.8c-2-22.2,34.7-21,30.2-6.1
					c1.5-2.6,2.1-6.1,1.6-9.5c-1.7-5.9-7.7-10-19.4-8.2c-18.7,2.8-26.8,27.7-10,39.2C102.1,107.7,121,100.5,121.5,86.4z"/>
				<g class="st63">
					<linearGradient id="SVGID_37_" gradientUnits="userSpaceOnUse" x1="106.2101" y1="102.8315" x2="93.7165" y2="59.8475">
						<stop  offset="0" style="stop-color:#686868"/>
						<stop  offset="1" style="stop-color:#868686"/>
					</linearGradient>
					<path class="st80" d="M118,67.4c-0.7-2.3-2.2-4.4-4.2-5.8c-2-1.4-4.4-2.1-6.8-2.4c-2.4-0.3-4.9-0.2-7.3,0.1
						c-2.4,0.3-4.8,0.9-6.9,2c-4.4,2-8,5.5-10.3,9.8c-2.3,4.2-3.2,9.2-2.3,13.9c0.8,4.7,3.5,9.1,7.3,12c3.8,3,8.4,4.8,13.3,5.1
						c4.8,0.3,9.8-0.8,13.8-3.6c2-1.4,3.7-3.1,5-5.2c1.2-2.1,1.9-4.5,2.1-6.9c0,1.2-0.2,2.5-0.5,3.6c-0.3,1.2-0.8,2.3-1.4,3.4
						c-1.2,2.2-2.9,4-4.9,5.5c-4.1,2.9-9.1,4.2-14.1,3.9c-5-0.2-9.9-2.1-13.8-5.2c-4-3-6.8-7.6-7.7-12.5c-0.9-5,0.1-10.1,2.5-14.5
						c2.4-4.4,6.2-8,10.8-10c2.3-1,4.7-1.6,7.2-1.9c2.5-0.3,4.9-0.3,7.4,0c2.4,0.4,4.9,1.2,6.9,2.7C115.9,62.9,117.3,65.1,118,67.4z
						"/>
				</g>
			</g>
		</g>
		<g>
			<g>
				
					<radialGradient id="SVGID_38_" cx="-17.9001" cy="71.9711" r="62.8724" gradientTransform="matrix(0.969 0 0 0.969 92.7276 -14.8293)" gradientUnits="userSpaceOnUse">
					<stop  offset="0" style="stop-color:#616161"/>
					<stop  offset="1" style="stop-color:#808080"/>
				</radialGradient>
				<path class="st81" d="M107.6,125.2c0.1,0,0.3-0.1,0.4-0.1c0.3-0.1,0.6-0.2,1-0.3c0.9-0.3,1.9-0.5,2.8-0.9c0,0,0.1,0,0.1,0
					c2.1-0.7,4.1-1.6,6.1-2.7c0.2-0.1,0.4-0.2,0.5-0.3c0.2-0.1,0.4-0.2,0.6-0.3c20.4-11.4,28.8-36.5,18.7-58.4
					c-8.8-19.1-26.7-26.1-41.8-26C79.4,36.4,63.9,49.6,71,65.2c4.2-22.9,45-28.1,57.5-0.4c9.7,21.3-0.1,44.2-19.6,50.6
					C76.2,126,50.3,99.8,53.4,70.2c0,0,0,0,0,0l-0.6,2.5c-0.6,2.8-0.8,5.7-0.8,8.7c0,8.8,2.5,17,6.9,24c0,0.1,0.1,0.1,0.1,0.2
					c0.1,0.2,0.2,0.3,0.3,0.5c3.5,5.4,8,9.8,13.2,13.2c0.1,0.1,0.2,0.1,0.3,0.2c0.1,0.1,0.2,0.1,0.3,0.2c5.2,3.3,11.2,5.5,17.5,6.4
					c0.2,0,0.4,0.1,0.5,0.1c0.1,0,0.1,0,0.2,0c4.8,0.6,9.7,0.4,14.5-0.5c0,0,0.1,0,0.1,0C106.6,125.5,107.1,125.3,107.6,125.2z"/>
				<linearGradient id="SVGID_39_" gradientUnits="userSpaceOnUse" x1="52.7543" y1="81.9884" x2="138.1973" y2="81.9884">
					<stop  offset="0" style="stop-color:#474747"/>
					<stop  offset="1" style="stop-color:#808080"/>
				</linearGradient>
				<path class="st82" d="M59.7,103.9c0,0.1,0.1,0.1,0.1,0.2c0.1,0.1,0.2,0.3,0.3,0.4c3.3,4.9,7.5,9,12.3,12
					c0.1,0.1,0.2,0.1,0.3,0.2c0.1,0.1,0.2,0.1,0.3,0.2c4.9,3,10.4,5,16.4,5.8c0.2,0,0.3,0,0.5,0.1c0.1,0,0.1,0,0.2,0
					c4.4,0.5,9,0.4,13.5-0.5c0,0,0.1,0,0.1,0c0.5-0.1,1-0.2,1.5-0.3c0.1,0,0.3-0.1,0.4-0.1c0.3-0.1,0.6-0.2,0.9-0.2
					c0.9-0.2,1.7-0.5,2.6-0.8c0,0,0.1,0,0.1,0c2-0.7,3.9-1.5,5.7-2.4c0.2-0.1,0.3-0.2,0.5-0.3c0.2-0.1,0.4-0.2,0.5-0.3
					c19-10.4,27.8-33.9,18.4-53.8c-8.2-17.4-24.9-24.3-39.9-23c-13.4,1.2-21.8,8.6-25.2,15.7c-0.1,2.7,0.4,5.6,1.7,8.5
					c4.2-22.9,45-28.1,57.5-0.4c9.7,21.3-0.1,44.2-19.6,50.6C76.2,126,50.3,99.8,53.4,70.2C51.1,84.5,55.7,97.6,59.7,103.9z"/>
				<linearGradient id="SVGID_40_" gradientUnits="userSpaceOnUse" x1="60.8438" y1="56.7324" x2="78.2092" y2="51.234">
					<stop  offset="5.008000e-04" style="stop-color:#5F5F5F"/>
					<stop  offset="1" style="stop-color:#898989;stop-opacity:0.2"/>
				</linearGradient>
				<path class="st83" d="M74,57.7c-1.3-10.6,8.5-17.8,12.6-19.8c-12,3.3-21.4,17.1-15.4,26.3C71.5,62.3,72.8,59.3,74,57.7z"/>
				<g class="st48">
					<linearGradient id="SVGID_41_" gradientUnits="userSpaceOnUse" x1="86.4651" y1="41.9723" x2="105.7054" y2="122.369">
						<stop  offset="0" style="stop-color:#474747"/>
						<stop  offset="1" style="stop-color:#808080"/>
					</linearGradient>
					<path class="st84" d="M53.4,70.2c-1.5,10.1,0.1,20.6,4.5,29.8c4.4,9.1,12.6,16.3,22,19.9c9.4,3.6,20.2,3.8,29.7,0.4
						c4.8-1.7,9.2-4.3,13.1-7.5c3.9-3.2,7.1-7.2,9.6-11.6c5-8.7,6.8-19.4,4.4-29.2c-2.4-9.8-8.4-18.8-16.9-24.3
						c-8.5-5.6-19.1-7.6-29.1-5.9c-5,0.9-9.8,2.9-13.9,6c-4,3.1-7.3,7.3-8.8,12.2c1.3-5,4.6-9.2,8.6-12.4c4-3.2,8.9-5.2,13.9-6.2
						c10.1-2,20.9,0.1,29.6,5.7c8.7,5.6,14.9,14.7,17.4,24.7c2.5,10.1,0.7,21-4.4,29.9c-2.5,4.5-5.9,8.5-9.9,11.8
						c-4,3.3-8.5,5.9-13.4,7.6c-9.7,3.5-20.7,3.3-30.3-0.5c-9.6-3.8-17.8-11.1-22.2-20.4C53.2,90.8,51.7,80.3,53.4,70.2z"/>
				</g>
			</g>
			<linearGradient id="SVGID_42_" gradientUnits="userSpaceOnUse" x1="54.6125" y1="71.8343" x2="54.6125" y2="71.8343">
				<stop  offset="0" style="stop-color:#888888"/>
				<stop  offset="1" style="stop-color:#474747"/>
			</linearGradient>
			<path class="st85" d="M54.6,71.8"/>
			<linearGradient id="SVGID_43_" gradientUnits="userSpaceOnUse" x1="126.597" y1="49.5376" x2="76.0379" y2="28.7502">
				<stop  offset="5.008000e-04" style="stop-color:#5F5F5F"/>
				<stop  offset="1" style="stop-color:#898989"/>
			</linearGradient>
			<path class="st86" d="M93.9,36.4c0.5,0,0.9-0.1,1.4-0.1C94.9,36.4,94.4,36.4,93.9,36.4z"/>
			<linearGradient id="SVGID_44_" gradientUnits="userSpaceOnUse" x1="95.1222" y1="36.8795" x2="93.009" y2="36.0107">
				<stop  offset="5.008000e-04" style="stop-color:#5F5F5F"/>
				<stop  offset="1" style="stop-color:#898989"/>
			</linearGradient>
			<path class="st87" d="M92.8,36.5c0.8-0.1,1.7-0.1,2.5-0.2C94.5,36.4,93.6,36.4,92.8,36.5z"/>
			<g>
				<linearGradient id="SVGID_45_" gradientUnits="userSpaceOnUse" x1="116.575" y1="73.8612" x2="64.9234" y2="52.6247">
					<stop  offset="5.008000e-04" style="stop-color:#5F5F5F"/>
					<stop  offset="1" style="stop-color:#898989"/>
				</linearGradient>
				<path class="st88" d="M116.3,76.9c-8,16.6-32.9,15.1-43.2,6.9c-17.1-13.6-8.7-46.3,22.2-47.5c-24.4,0.7-32.7,28.6-16,38.4
					c11.6,6.9,28.1,2.3,24.9-9l0.1-2.9l11,2.4C119.7,68.7,117.8,72.8,116.3,76.9z"/>
				<linearGradient id="SVGID_46_" gradientUnits="userSpaceOnUse" x1="101.603" y1="50.9567" x2="73.1995" y2="78.492">
					<stop  offset="5.008000e-04" style="stop-color:#5F5F5F"/>
					<stop  offset="1" style="stop-color:#898989"/>
				</linearGradient>
				<path class="st89" d="M104.2,65.8c3.2,11.3-13.3,15.9-24.9,9C63.6,65.4,70.1,40,91.5,36.7c0,0,0,0,0,0c-3.1,0.4-5.9,1.1-8.5,2.2
					c-2.7,1.2-5.7,3.2-8.8,6.3c-9,11.8-8.3,25.8,2.6,34.2c11.3,8.8,39.5,3,34.1-15.1l-6.5-1.4L104.2,65.8z"/>
				<linearGradient id="SVGID_47_" gradientUnits="userSpaceOnUse" x1="78.322" y1="81.1882" x2="92.5552" y2="84.7126">
					<stop  offset="5.008000e-04" style="stop-color:#5F5F5F"/>
					<stop  offset="0.999" style="stop-color:#898989;stop-opacity:0"/>
				</linearGradient>
				<path class="st90" d="M79.9,76c-1.3,2.8-1.3,3.8-1.5,7c-0.1,0.8-0.1,1.7,0,2.5c3,2,6.4,3.9,11.9,4.3c-1.7-3.7-2.1-9.8-0.6-11.8
					C86.9,77.8,80.3,76.2,79.9,76z"/>
				<g class="st56">
					<linearGradient id="SVGID_48_" gradientUnits="userSpaceOnUse" x1="109.6257" y1="76.9207" x2="66.6044" y2="59.2326">
						<stop  offset="5.008000e-04" style="stop-color:#5F5F5F"/>
						<stop  offset="1" style="stop-color:#898989"/>
					</linearGradient>
					<path class="st91" d="M74.1,45.2c-2.1,2.9-3.8,6.2-4.8,9.6c-1,3.4-1.4,7.1-0.8,10.6c0.6,3.5,2.1,6.8,4.3,9.6
						c2.2,2.7,5,5.1,8.3,6.3c3.3,1.3,6.9,1.7,10.5,1.6c3.6-0.1,7.1-0.9,10.4-2.2c3.2-1.4,6.3-3.6,7.9-6.8c0.8-1.6,1.3-3.3,1.3-5.1
						c0.1-1.8-0.3-3.6-0.8-5.3c1.3,3.3,1.6,7.3-0.1,10.7c-1.6,3.4-4.7,5.7-8.1,7.3c-3.3,1.5-7,2.3-10.7,2.4
						c-3.7,0.1-7.4-0.3-10.9-1.6c-1.7-0.7-3.4-1.6-4.8-2.8c-1.4-1.2-2.7-2.5-3.9-3.9c-2.3-2.9-3.8-6.4-4.3-10
						c-0.5-3.6-0.1-7.4,1-10.8C70,51.2,71.9,48,74.1,45.2z"/>
				</g>
				<linearGradient id="SVGID_49_" gradientUnits="userSpaceOnUse" x1="111.7016" y1="59.7923" x2="110.6366" y2="73.5317">
					<stop  offset="5.008000e-04" style="stop-color:#5F5F5F"/>
					<stop  offset="0.999" style="stop-color:#898989;stop-opacity:0"/>
				</linearGradient>
				<path class="st92" d="M104.5,69.7c3.3-1.1,8.1,0.4,10.4,3.2c0.9,1.1,1.4,2.4,1.5,3.7c1.4-4,3.1-7.9-1.2-11.3l-11-2.4l-0.1,2.9
					C104.7,67.5,104.7,68.6,104.5,69.7z"/>
			</g>
			<path class="st59" d="M93.9,36.4c0.5,0,0.9-0.1,1.4-0.1C94.9,36.4,94.4,36.4,93.9,36.4z"/>
			<g>
				<linearGradient id="SVGID_50_" gradientUnits="userSpaceOnUse" x1="121.5629" y1="104.794" x2="72.8308" y2="54.7582">
					<stop  offset="0" style="stop-color:#686868"/>
					<stop  offset="0.998" style="stop-color:#868686"/>
				</linearGradient>
				<path class="st93" d="M116.3,76.9c5.5-9.8-1.8-27.1-21.9-23.7C72.4,57,63.8,87,82.6,102.8c14.5,12.1,41.5,2.8,38.8-18
					c-6.4,16.1-33.5,17.9-35.2-1.8C84.2,60.8,120.9,62,116.3,76.9z"/>
				
					<radialGradient id="SVGID_51_" cx="20.4949" cy="81.7052" r="27.0544" gradientTransform="matrix(0.969 0 0 0.969 92.7276 -14.8293)" gradientUnits="userSpaceOnUse">
					<stop  offset="2.043270e-03" style="stop-color:#868686"/>
					<stop  offset="1" style="stop-color:#868686;stop-opacity:0"/>
				</radialGradient>
				<path class="st94" d="M116.3,76.9c5.5-9.8-1.8-27.1-21.9-23.7C72.4,57,63.8,87,82.6,102.8c14.5,12.1,41.5,2.8,38.8-18
					c-6.4,16.1-33.5,17.9-35.2-1.8C84.2,60.8,120.9,62,116.3,76.9z"/>
				<linearGradient id="SVGID_52_" gradientUnits="userSpaceOnUse" x1="106.5238" y1="103.055" x2="94.8266" y2="62.8112">
					<stop  offset="0" style="stop-color:#686868"/>
					<stop  offset="1" style="stop-color:#868686"/>
				</linearGradient>
				<path class="st95" d="M121.5,86.4c0-0.5,0-1.1-0.1-1.6c-6.4,16.1-33.5,17.9-35.2-1.8c-2-22.2,34.7-21,30.2-6.1
					c1.5-2.6,2.1-6.1,1.6-9.5c-1.7-5.9-7.7-10-19.4-8.2c-18.7,2.8-26.8,27.7-10,39.2C102.1,107.7,121,100.5,121.5,86.4z"/>
				<g class="st63">
					<linearGradient id="SVGID_53_" gradientUnits="userSpaceOnUse" x1="106.2101" y1="102.8315" x2="93.7165" y2="59.8475">
						<stop  offset="0" style="stop-color:#686868"/>
						<stop  offset="1" style="stop-color:#868686"/>
					</linearGradient>
					<path class="st96" d="M118,67.4c-0.7-2.3-2.2-4.4-4.2-5.8c-2-1.4-4.4-2.1-6.8-2.4c-2.4-0.3-4.9-0.2-7.3,0.1
						c-2.4,0.3-4.8,0.9-6.9,2c-4.4,2-8,5.5-10.3,9.8c-2.3,4.2-3.2,9.2-2.3,13.9c0.8,4.7,3.5,9.1,7.3,12c3.8,3,8.4,4.8,13.3,5.1
						c4.8,0.3,9.8-0.8,13.8-3.6c2-1.4,3.7-3.1,5-5.2c1.2-2.1,1.9-4.5,2.1-6.9c0,1.2-0.2,2.5-0.5,3.6c-0.3,1.2-0.8,2.3-1.4,3.4
						c-1.2,2.2-2.9,4-4.9,5.5c-4.1,2.9-9.1,4.2-14.1,3.9c-5-0.2-9.9-2.1-13.8-5.2c-4-3-6.8-7.6-7.7-12.5c-0.9-5,0.1-10.1,2.5-14.5
						c2.4-4.4,6.2-8,10.8-10c2.3-1,4.7-1.6,7.2-1.9c2.5-0.3,4.9-0.3,7.4,0c2.4,0.4,4.9,1.2,6.9,2.7C115.9,62.9,117.3,65.1,118,67.4z
						"/>
				</g>
			</g>
		</g>
	</g>
	<g>
		<g>
			<g>
				<g>
					<path class="st59" d="M14.9,160.5v-27.6h13.3v5.5h-7.4v5.4h6.8v5.1h-6.8v6h7.8v5.6H14.9z"/>
					<path class="st59" d="M44.1,160.5l-3.8-9.1l-3.8,9.1H30l6.8-14.5l-6.2-13.1H37l3.4,8.4l3.4-8.4h6.4L44,146l6.9,14.5H44.1z"/>
					<path class="st59" d="M62,161.2c-6.4,0-10.7-6-10.7-14.5c0-8.7,4.3-14.5,10.7-14.5c3.7,0,6.1,1.5,7.6,3.5l-3.4,4.5
						c-0.9-1.2-2-2-3.8-2c-3.3,0-5,3.7-5,8.6c0,4.8,1.7,8.6,5,8.6c1.7,0,2.9-1,3.7-2.1l3.5,4.3C68.2,159.6,65.9,161.2,62,161.2z"/>
					<path class="st59" d="M72.4,160.5v-27.6h13.3v5.5h-7.4v5.4h6.8v5.1h-6.8v6h7.8v5.6H72.4z"/>
					<path class="st59" d="M89.9,160.5v-27.6h6.3v21.8h7.4v5.8H89.9z"/>
					<path class="st59" d="M113.2,160.5v-27.6h13.3v5.5h-7.4v5.4h6.8v5.1h-6.8v6h7.8v5.6H113.2z"/>
					<path class="st59" d="M138.5,160.5h-7.8v-27.6h7.8c7.9,0,11.5,5.4,11.5,13.9C149.9,155.1,146.3,160.5,138.5,160.5z
						 M138.5,138.3H137V155h1.5c3,0,5.1-2.9,5.1-8.3C143.6,141.2,141.5,138.3,138.5,138.3z"/>
					<path class="st59" d="M162.5,161.2c-6.7,0-9.2-4.8-9.2-11v-17.4h6.3v16.8c0,3.1,0.6,5.5,3.1,5.5s3.1-2.4,3.1-5.5v-16.8h6.2
						v17.4C171.9,156.4,169.2,161.2,162.5,161.2z"/>
					<path class="st59" d="M185.9,161.2c-6.4,0-10.7-6-10.7-14.5c0-8.7,4.3-14.5,10.7-14.5c3.7,0,6.1,1.5,7.6,3.5l-3.4,4.5
						c-0.9-1.2-2-2-3.8-2c-3.3,0-5,3.7-5,8.6c0,4.8,1.7,8.6,5,8.6c1.7,0,2.9-1,3.7-2.1l3.5,4.3C192.1,159.6,189.8,161.2,185.9,161.2
						z"/>
					<path class="st59" d="M208.1,160.5l-1.1-5h-6.2l-1.1,5h-6.2l6.7-27.6h7.8l6.7,27.6H208.1z M204,138.9h-0.2l-2.3,11.7h4.7
						L204,138.9z"/>
					<path class="st59" d="M225,138.2v22.3h-6.1v-22.3h-5.1v-5.3h16.3v5.3H225z"/>
					<path class="st59" d="M232.5,160.5v-27.6h6.3v27.6H232.5z"/>
					<path class="st59" d="M253.2,161.2c-6.6,0-10.6-5.8-10.6-14.6c0-8.7,4-14.5,10.6-14.5c6.6,0,10.6,5.7,10.6,14.5
						C263.8,155.4,259.7,161.2,253.2,161.2z M253.2,138.2c-2.8,0-4.2,3.6-4.2,8.4c0,4.8,1.4,8.5,4.2,8.5c2.8,0,4.2-3.7,4.2-8.5
						C257.4,141.8,256,138.2,253.2,138.2z"/>
					<path class="st59" d="M279.5,160.5l-6.4-16.8H273l0.2,16.8h-5.6v-27.6h6.9l6.4,17h0.1l-0.1-17h5.4v27.6H279.5z"/>
				</g>
				<g>
					<path class="st59" d="M14.9,160.5v-27.6h13.3v5.5h-7.4v5.4h6.8v5.1h-6.8v6h7.8v5.6H14.9z"/>
					<path class="st59" d="M44.1,160.5l-3.8-9.1l-3.8,9.1H30l6.8-14.5l-6.2-13.1H37l3.4,8.4l3.4-8.4h6.4L44,146l6.9,14.5H44.1z"/>
					<path class="st59" d="M62,161.2c-6.4,0-10.7-6-10.7-14.5c0-8.7,4.3-14.5,10.7-14.5c3.7,0,6.1,1.5,7.6,3.5l-3.4,4.5
						c-0.9-1.2-2-2-3.8-2c-3.3,0-5,3.7-5,8.6c0,4.8,1.7,8.6,5,8.6c1.7,0,2.9-1,3.7-2.1l3.5,4.3C68.2,159.6,65.9,161.2,62,161.2z"/>
					<path class="st59" d="M72.4,160.5v-27.6h13.3v5.5h-7.4v5.4h6.8v5.1h-6.8v6h7.8v5.6H72.4z"/>
					<path class="st59" d="M89.9,160.5v-27.6h6.3v21.8h7.4v5.8H89.9z"/>
					<path class="st59" d="M113.2,160.5v-27.6h13.3v5.5h-7.4v5.4h6.8v5.1h-6.8v6h7.8v5.6H113.2z"/>
					<path class="st59" d="M138.5,160.5h-7.8v-27.6h7.8c7.9,0,11.5,5.4,11.5,13.9C149.9,155.1,146.3,160.5,138.5,160.5z
						 M138.5,138.3H137V155h1.5c3,0,5.1-2.9,5.1-8.3C143.6,141.2,141.5,138.3,138.5,138.3z"/>
					<path class="st59" d="M162.5,161.2c-6.7,0-9.2-4.8-9.2-11v-17.4h6.3v16.8c0,3.1,0.6,5.5,3.1,5.5s3.1-2.4,3.1-5.5v-16.8h6.2
						v17.4C171.9,156.4,169.2,161.2,162.5,161.2z"/>
					<path class="st59" d="M185.9,161.2c-6.4,0-10.7-6-10.7-14.5c0-8.7,4.3-14.5,10.7-14.5c3.7,0,6.1,1.5,7.6,3.5l-3.4,4.5
						c-0.9-1.2-2-2-3.8-2c-3.3,0-5,3.7-5,8.6c0,4.8,1.7,8.6,5,8.6c1.7,0,2.9-1,3.7-2.1l3.5,4.3C192.1,159.6,189.8,161.2,185.9,161.2
						z"/>
					<path class="st59" d="M208.1,160.5l-1.1-5h-6.2l-1.1,5h-6.2l6.7-27.6h7.8l6.7,27.6H208.1z M204,138.9h-0.2l-2.3,11.7h4.7
						L204,138.9z"/>
					<path class="st59" d="M225,138.2v22.3h-6.1v-22.3h-5.1v-5.3h16.3v5.3H225z"/>
					<path class="st59" d="M232.5,160.5v-27.6h6.3v27.6H232.5z"/>
					<path class="st59" d="M253.2,161.2c-6.6,0-10.6-5.8-10.6-14.6c0-8.7,4-14.5,10.6-14.5c6.6,0,10.6,5.7,10.6,14.5
						C263.8,155.4,259.7,161.2,253.2,161.2z M253.2,138.2c-2.8,0-4.2,3.6-4.2,8.4c0,4.8,1.4,8.5,4.2,8.5c2.8,0,4.2-3.7,4.2-8.5
						C257.4,141.8,256,138.2,253.2,138.2z"/>
					<path class="st59" d="M279.5,160.5l-6.4-16.8H273l0.2,16.8h-5.6v-27.6h6.9l6.4,17h0.1l-0.1-17h5.4v27.6H279.5z"/>
				</g>
			</g>
		</g>
		<g>
			<g id="XMLID_1625_">
				<g id="XMLID_1628_">
					<g id="XMLID_1629_">
						<polygon class="st59" points="9,149.7 5.4,146.2 9,142.5 10.4,144 8.2,146.2 10.4,148.3 						"/>
					</g>
				</g>
				<g id="XMLID_1626_">
					<g id="XMLID_1627_">
						<polygon class="st59" points="5.8,152.5 0,146.1 6.2,139.4 7.7,140.7 2.7,146.1 7.3,151.2 						"/>
					</g>
				</g>
			</g>
			<g id="XMLID_1620_">
				<g id="XMLID_1623_">
					<g id="XMLID_1624_">
						<polygon class="st59" points="292,149.7 295.6,146.2 292,142.5 290.6,144 292.8,146.2 290.6,148.3 						"/>
					</g>
				</g>
				<g id="XMLID_1621_">
					<g id="XMLID_1622_">
						<polygon class="st59" points="295.2,152.5 301,146.1 294.8,139.4 293.3,140.7 298.3,146.1 293.7,151.2 						"/>
					</g>
				</g>
			</g>
		</g>
	</g>
</g>
</svg>
