<?xml version="1.0" encoding="utf-8"?>
<!-- Generator: Adobe Illustrator 22.1.0, SVG Export Plug-In . SVG Version: 6.00 Build 0)  -->
<svg version="1.1" id="Layer_1" xmlns="http://www.w3.org/2000/svg" xmlns:xlink="http://www.w3.org/1999/xlink" x="0px" y="0px"
	 viewBox="0 0 301 161.2" style="enable-background:new 0 0 301 161.2;" xml:space="preserve">
<style type="text/css">
	.st0{fill-rule:evenodd;clip-rule:evenodd;}
	.st1{fill-rule:evenodd;clip-rule:evenodd;fill:url(#SVGID_1_);}
	.st2{fill:url(#SVGID_2_);}
	.st3{fill:url(#SVGID_3_);}
	.st4{fill:url(#XMLID_138_);}
	.st5{fill-rule:evenodd;clip-rule:evenodd;fill:url(#SVGID_4_);}
	.st6{fill:url(#XMLID_139_);}
	.st7{fill:url(#XMLID_140_);}
	.st8{fill:url(#XMLID_141_);}
	.st9{fill:url(#XMLID_142_);}
	.st10{fill:url(#XMLID_143_);}
	.st11{fill:url(#XMLID_144_);}
	.st12{fill:url(#XMLID_145_);}
	.st13{fill:url(#XMLID_146_);}
	.st14{fill:url(#XMLID_147_);}
	.st15{fill:url(#XMLID_148_);}
	.st16{fill:url(#XMLID_149_);}
	.st17{fill:url(#XMLID_150_);}
	.st18{fill:url(#XMLID_151_);}
	.st19{fill:url(#XMLID_152_);}
	.st20{fill:url(#XMLID_153_);}
	.st21{fill:url(#XMLID_154_);}
	.st22{fill:url(#XMLID_155_);}
	.st23{fill:url(#XMLID_156_);}
	.st24{fill:url(#XMLID_157_);}
	.st25{fill:url(#XMLID_158_);}
	.st26{fill:url(#XMLID_159_);}
	.st27{fill:url(#XMLID_160_);}
	.st28{fill:url(#XMLID_161_);}
	.st29{fill:url(#XMLID_162_);}
	.st30{fill:url(#XMLID_163_);}
	.st31{fill:url(#XMLID_164_);}
	.st32{fill:url(#XMLID_165_);}
	.st33{fill:url(#XMLID_166_);}
	.st34{fill:url(#XMLID_167_);}
	.st35{fill:url(#XMLID_168_);}
	.st36{fill:url(#XMLID_169_);}
	.st37{fill:url(#XMLID_170_);}
	.st38{fill:url(#XMLID_171_);}
	.st39{fill:url(#XMLID_172_);}
	.st40{fill:url(#XMLID_173_);}
	.st41{fill:url(#XMLID_174_);}
	.st42{fill:url(#XMLID_175_);}
	.st43{fill:url(#XMLID_176_);}
	.st44{fill:url(#XMLID_177_);}
	.st45{fill:url(#SVGID_5_);}
	.st46{opacity:0.34;fill:url(#SVGID_6_);}
	.st47{opacity:0.67;fill:url(#SVGID_7_);}
	.st48{opacity:0.34;}
	.st49{fill:url(#SVGID_8_);}
	.st50{fill:none;stroke:url(#SVGID_9_);stroke-width:0.9711;stroke-miterlimit:10;}
	.st51{fill:url(#SVGID_10_);}
	.st52{fill:url(#SVGID_11_);}
	.st53{fill:url(#SVGID_12_);}
	.st54{opacity:0.21;fill:url(#SVGID_13_);}
	.st55{fill:url(#SVGID_14_);}
	.st56{opacity:0.26;}
	.st57{fill:url(#SVGID_15_);}
	.st58{fill:url(#SVGID_16_);}
	.st59{fill:#FFFFFF;}
	.st60{fill:url(#SVGID_17_);}
	.st61{fill:url(#SVGID_18_);}
	.st62{opacity:0.33;fill:url(#SVGID_19_);}
	.st63{opacity:0.45;}
	.st64{fill:url(#SVGID_20_);}
	.st65{fill:url(#SVGID_21_);}
	.st66{opacity:0.34;fill:url(#SVGID_22_);}
	.st67{opacity:0.67;fill:url(#SVGID_23_);}
	.st68{fill:url(#SVGID_24_);}
	.st69{fill:none;stroke:url(#SVGID_25_);stroke-width:0.9711;stroke-miterlimit:10;}
	.st70{fill:url(#SVGID_26_);}
	.st71{fill:url(#SVGID_27_);}
	.st72{fill:url(#SVGID_28_);}
	.st73{opacity:0.21;fill:url(#SVGID_29_);}
	.st74{fill:url(#SVGID_30_);}
	.st75{fill:url(#SVGID_31_);}
	.st76{fill:url(#SVGID_32_);}
	.st77{fill:url(#SVGID_33_);}
	.st78{fill:url(#SVGID_34_);}
	.st79{opacity:0.33;fill:url(#SVGID_35_);}
	.st80{fill:url(#SVGID_36_);}
	.st81{fill:url(#SVGID_37_);}
	.st82{opacity:0.34;fill:url(#SVGID_38_);}
	.st83{opacity:0.67;fill:url(#SVGID_39_);}
	.st84{fill:url(#SVGID_40_);}
	.st85{fill:none;stroke:url(#SVGID_41_);stroke-width:0.9711;stroke-miterlimit:10;}
	.st86{fill:url(#SVGID_42_);}
	.st87{fill:url(#SVGID_43_);}
	.st88{fill:url(#SVGID_44_);}
	.st89{opacity:0.21;fill:url(#SVGID_45_);}
	.st90{fill:url(#SVGID_46_);}
	.st91{fill:url(#SVGID_47_);}
	.st92{fill:url(#SVGID_48_);}
	.st93{fill:url(#SVGID_49_);}
	.st94{fill:url(#SVGID_50_);}
	.st95{opacity:0.33;fill:url(#SVGID_51_);}
	.st96{fill:url(#SVGID_52_);}
	.st97{fill-rule:evenodd;clip-rule:evenodd;fill:url(#SVGID_53_);}
	.st98{fill-rule:evenodd;clip-rule:evenodd;fill:#FFFFFF;}
	.st99{fill:url(#SVGID_54_);}
	.st100{fill:url(#SVGID_55_);}
	.st101{fill:url(#SVGID_56_);}
	.st102{fill-rule:evenodd;clip-rule:evenodd;fill:url(#SVGID_57_);}
	.st103{fill:url(#XMLID_178_);}
	.st104{fill:url(#XMLID_179_);}
	.st105{fill:url(#XMLID_180_);}
	.st106{fill:url(#XMLID_181_);}
	.st107{fill:url(#XMLID_182_);}
	.st108{fill:url(#XMLID_183_);}
	.st109{fill:url(#XMLID_184_);}
	.st110{fill:url(#XMLID_185_);}
	.st111{fill:url(#XMLID_186_);}
	.st112{fill:url(#XMLID_187_);}
	.st113{fill:url(#XMLID_188_);}
	.st114{fill:url(#XMLID_189_);}
	.st115{fill:url(#XMLID_190_);}
	.st116{fill:url(#XMLID_191_);}
	.st117{fill:url(#XMLID_192_);}
	.st118{fill:url(#XMLID_193_);}
	.st119{fill:url(#XMLID_194_);}
	.st120{fill:url(#XMLID_195_);}
	.st121{fill:url(#XMLID_196_);}
	.st122{fill:url(#XMLID_197_);}
	.st123{fill:url(#XMLID_198_);}
	.st124{fill:url(#XMLID_199_);}
	.st125{fill:url(#XMLID_200_);}
	.st126{fill:url(#XMLID_201_);}
	.st127{fill:url(#XMLID_202_);}
	.st128{fill:url(#XMLID_203_);}
	.st129{fill:url(#XMLID_204_);}
	.st130{fill:url(#XMLID_205_);}
	.st131{fill:url(#XMLID_206_);}
	.st132{fill:url(#XMLID_207_);}
	.st133{fill:url(#XMLID_208_);}
	.st134{fill:url(#XMLID_209_);}
	.st135{fill:url(#XMLID_210_);}
	.st136{fill:url(#XMLID_211_);}
	.st137{fill:url(#XMLID_212_);}
	.st138{fill:url(#XMLID_213_);}
	.st139{fill:url(#XMLID_214_);}
	.st140{fill:url(#XMLID_215_);}
	.st141{fill:url(#XMLID_216_);}
	.st142{fill:url(#SVGID_58_);}
	.st143{opacity:0.34;fill:url(#SVGID_59_);}
	.st144{opacity:0.67;fill:url(#SVGID_60_);}
	.st145{fill:url(#SVGID_61_);}
	.st146{fill:none;stroke:url(#SVGID_62_);stroke-width:0.9711;stroke-miterlimit:10;}
	.st147{fill:url(#SVGID_63_);}
	.st148{fill:url(#SVGID_64_);}
	.st149{fill:url(#SVGID_65_);}
	.st150{opacity:0.21;fill:url(#SVGID_66_);}
	.st151{fill:url(#SVGID_67_);}
	.st152{fill:url(#SVGID_68_);}
	.st153{fill:url(#SVGID_69_);}
	.st154{fill:url(#SVGID_70_);}
	.st155{fill:url(#SVGID_71_);}
	.st156{opacity:0.33;fill:url(#SVGID_72_);}
	.st157{fill:url(#SVGID_73_);}
	.st158{fill:url(#SVGID_74_);}
	.st159{fill:url(#SVGID_75_);}
	.st160{fill:url(#SVGID_76_);}
	.st161{fill:url(#SVGID_77_);}
	.st162{opacity:0.34;fill:url(#SVGID_78_);}
	.st163{opacity:0.67;fill:url(#SVGID_79_);}
	.st164{fill:url(#SVGID_80_);}
	.st165{fill:none;stroke:url(#SVGID_81_);stroke-width:0.9711;stroke-miterlimit:10;}
	.st166{fill:url(#SVGID_82_);}
	.st167{fill:url(#SVGID_83_);}
	.st168{fill:url(#SVGID_84_);}
	.st169{opacity:0.21;fill:url(#SVGID_85_);}
	.st170{fill:url(#SVGID_86_);}
	.st171{fill:url(#SVGID_87_);}
	.st172{fill:url(#SVGID_88_);}
	.st173{fill:url(#SVGID_89_);}
	.st174{fill:url(#SVGID_90_);}
	.st175{opacity:0.33;fill:url(#SVGID_91_);}
	.st176{fill:url(#SVGID_92_);}
	.st177{fill:#231F20;}
	.st178{fill-rule:evenodd;clip-rule:evenodd;fill:url(#SVGID_93_);}
	.st179{fill:url(#SVGID_94_);}
	.st180{fill:url(#SVGID_95_);}
	.st181{fill:url(#SVGID_96_);}
	.st182{fill-rule:evenodd;clip-rule:evenodd;fill:url(#SVGID_97_);}
	.st183{fill:url(#XMLID_217_);}
	.st184{fill:url(#XMLID_218_);}
	.st185{fill:url(#XMLID_219_);}
	.st186{fill:url(#XMLID_220_);}
	.st187{fill:url(#XMLID_221_);}
	.st188{fill:url(#XMLID_222_);}
	.st189{fill:url(#XMLID_223_);}
	.st190{fill:url(#XMLID_224_);}
	.st191{fill:url(#XMLID_225_);}
	.st192{fill:url(#XMLID_226_);}
	.st193{fill:url(#XMLID_227_);}
	.st194{fill:url(#XMLID_228_);}
	.st195{fill:url(#XMLID_229_);}
	.st196{fill:url(#XMLID_230_);}
	.st197{fill:url(#XMLID_231_);}
	.st198{fill:url(#XMLID_232_);}
	.st199{fill:url(#XMLID_233_);}
	.st200{fill:url(#XMLID_234_);}
	.st201{fill:url(#XMLID_235_);}
	.st202{fill:url(#XMLID_236_);}
	.st203{fill:url(#XMLID_237_);}
	.st204{fill:url(#XMLID_238_);}
	.st205{fill:url(#XMLID_239_);}
	.st206{fill:url(#XMLID_240_);}
	.st207{fill:url(#XMLID_241_);}
	.st208{fill:url(#XMLID_242_);}
	.st209{fill:url(#XMLID_243_);}
	.st210{fill:url(#XMLID_244_);}
	.st211{fill:url(#XMLID_245_);}
	.st212{fill:url(#XMLID_246_);}
	.st213{fill:url(#XMLID_247_);}
	.st214{fill:url(#XMLID_248_);}
	.st215{fill:url(#XMLID_249_);}
	.st216{fill:url(#XMLID_250_);}
	.st217{fill:url(#XMLID_251_);}
	.st218{fill:url(#XMLID_252_);}
	.st219{fill:url(#XMLID_253_);}
	.st220{fill:url(#XMLID_254_);}
	.st221{fill:url(#XMLID_255_);}
	.st222{fill:url(#SVGID_98_);}
	.st223{opacity:0.34;fill:url(#SVGID_99_);}
	.st224{opacity:0.67;fill:url(#SVGID_100_);}
	.st225{fill:url(#SVGID_101_);}
	.st226{fill:none;stroke:url(#SVGID_102_);stroke-width:0.9711;stroke-miterlimit:10;}
	.st227{fill:url(#SVGID_103_);}
	.st228{fill:url(#SVGID_104_);}
	.st229{fill:url(#SVGID_105_);}
	.st230{opacity:0.21;fill:url(#SVGID_106_);}
	.st231{fill:url(#SVGID_107_);}
	.st232{fill:url(#SVGID_108_);}
	.st233{fill:url(#SVGID_109_);}
	.st234{fill:url(#SVGID_110_);}
	.st235{fill:url(#SVGID_111_);}
	.st236{opacity:0.33;fill:url(#SVGID_112_);}
	.st237{fill:url(#SVGID_113_);}
	.st238{fill:url(#SVGID_114_);}
	.st239{fill:url(#SVGID_115_);}
	.st240{fill:url(#SVGID_116_);}
	.st241{fill:url(#SVGID_117_);}
	.st242{opacity:0.34;fill:url(#SVGID_118_);}
	.st243{opacity:0.67;fill:url(#SVGID_119_);}
	.st244{fill:url(#SVGID_120_);}
	.st245{fill:none;stroke:url(#SVGID_121_);stroke-width:0.9711;stroke-miterlimit:10;}
	.st246{fill:url(#SVGID_122_);}
	.st247{fill:url(#SVGID_123_);}
	.st248{fill:url(#SVGID_124_);}
	.st249{opacity:0.21;fill:url(#SVGID_125_);}
	.st250{fill:url(#SVGID_126_);}
	.st251{fill:url(#SVGID_127_);}
	.st252{fill:url(#SVGID_128_);}
	.st253{fill:url(#SVGID_129_);}
	.st254{fill:url(#SVGID_130_);}
	.st255{opacity:0.33;fill:url(#SVGID_131_);}
	.st256{fill:url(#SVGID_132_);}
	.st257{fill-rule:evenodd;clip-rule:evenodd;fill:url(#SVGID_133_);}
	.st258{fill:url(#SVGID_134_);}
	.st259{fill:url(#SVGID_135_);}
	.st260{fill:url(#SVGID_136_);}
	.st261{fill-rule:evenodd;clip-rule:evenodd;fill:url(#SVGID_137_);}
	.st262{fill:url(#XMLID_256_);}
	.st263{fill:url(#XMLID_257_);}
	.st264{fill:url(#XMLID_258_);}
	.st265{fill:url(#XMLID_259_);}
	.st266{fill:url(#XMLID_260_);}
	.st267{fill:url(#XMLID_261_);}
	.st268{fill:url(#XMLID_262_);}
	.st269{fill:url(#XMLID_263_);}
	.st270{fill:url(#XMLID_264_);}
	.st271{fill:url(#XMLID_265_);}
	.st272{fill:url(#XMLID_266_);}
	.st273{fill:url(#XMLID_267_);}
	.st274{fill:url(#XMLID_268_);}
	.st275{fill:url(#XMLID_269_);}
	.st276{fill:url(#XMLID_270_);}
	.st277{fill:url(#XMLID_271_);}
	.st278{fill:url(#XMLID_272_);}
	.st279{fill:url(#XMLID_273_);}
	.st280{fill:url(#XMLID_274_);}
	.st281{fill:url(#XMLID_275_);}
	.st282{fill:url(#XMLID_276_);}
	.st283{fill:url(#XMLID_277_);}
	.st284{fill:url(#XMLID_278_);}
	.st285{fill:url(#XMLID_279_);}
	.st286{fill:url(#XMLID_280_);}
	.st287{fill:url(#XMLID_281_);}
	.st288{fill:url(#XMLID_282_);}
	.st289{fill:url(#XMLID_283_);}
	.st290{fill:url(#XMLID_284_);}
	.st291{fill:url(#XMLID_285_);}
	.st292{fill:url(#XMLID_286_);}
	.st293{fill:url(#XMLID_287_);}
	.st294{fill:url(#XMLID_288_);}
	.st295{fill:url(#XMLID_289_);}
	.st296{fill:url(#XMLID_290_);}
	.st297{fill:url(#XMLID_291_);}
	.st298{fill:url(#XMLID_292_);}
	.st299{fill:url(#XMLID_293_);}
	.st300{fill:url(#XMLID_294_);}
	.st301{fill:url(#SVGID_138_);}
	.st302{opacity:0.34;fill:url(#SVGID_139_);}
	.st303{opacity:0.67;fill:url(#SVGID_140_);}
	.st304{fill:url(#SVGID_141_);}
	.st305{fill:none;stroke:url(#SVGID_142_);stroke-width:0.9711;stroke-miterlimit:10;}
	.st306{fill:url(#SVGID_143_);}
	.st307{fill:url(#SVGID_144_);}
	.st308{fill:url(#SVGID_145_);}
	.st309{opacity:0.21;fill:url(#SVGID_146_);}
	.st310{fill:url(#SVGID_147_);}
	.st311{fill:url(#SVGID_148_);}
	.st312{fill:url(#SVGID_149_);}
	.st313{fill:url(#SVGID_150_);}
	.st314{fill:url(#SVGID_151_);}
	.st315{opacity:0.33;fill:url(#SVGID_152_);}
	.st316{fill:url(#SVGID_153_);}
	.st317{fill:url(#SVGID_154_);}
	.st318{fill:url(#SVGID_155_);}
	.st319{fill:url(#SVGID_156_);}
	.st320{fill:url(#SVGID_157_);}
	.st321{opacity:0.34;fill:url(#SVGID_158_);}
	.st322{opacity:0.67;fill:url(#SVGID_159_);}
	.st323{fill:url(#SVGID_160_);}
	.st324{fill:none;stroke:url(#SVGID_161_);stroke-width:0.9711;stroke-miterlimit:10;}
	.st325{fill:url(#SVGID_162_);}
	.st326{fill:url(#SVGID_163_);}
	.st327{fill:url(#SVGID_164_);}
	.st328{opacity:0.21;fill:url(#SVGID_165_);}
	.st329{fill:url(#SVGID_166_);}
	.st330{fill:url(#SVGID_167_);}
	.st331{fill:url(#SVGID_168_);}
	.st332{fill:url(#SVGID_169_);}
	.st333{fill:url(#SVGID_170_);}
	.st334{opacity:0.33;fill:url(#SVGID_171_);}
	.st335{fill:url(#SVGID_172_);}
	.st336{fill-rule:evenodd;clip-rule:evenodd;fill:url(#SVGID_173_);}
	.st337{fill:url(#SVGID_174_);}
	.st338{fill:url(#SVGID_175_);}
	.st339{fill:url(#SVGID_176_);}
	.st340{fill-rule:evenodd;clip-rule:evenodd;fill:url(#SVGID_177_);}
	.st341{fill:url(#XMLID_295_);}
	.st342{fill:url(#XMLID_296_);}
	.st343{fill:url(#XMLID_297_);}
	.st344{fill:url(#XMLID_298_);}
	.st345{fill:url(#XMLID_299_);}
	.st346{fill:url(#XMLID_300_);}
	.st347{fill:url(#XMLID_301_);}
	.st348{fill:url(#XMLID_302_);}
	.st349{fill:url(#XMLID_303_);}
	.st350{fill:url(#XMLID_304_);}
	.st351{fill:url(#XMLID_305_);}
	.st352{fill:url(#XMLID_306_);}
	.st353{fill:url(#XMLID_307_);}
	.st354{fill:url(#XMLID_308_);}
	.st355{fill:url(#XMLID_309_);}
	.st356{fill:url(#XMLID_310_);}
	.st357{fill:url(#XMLID_311_);}
	.st358{fill:url(#XMLID_312_);}
	.st359{fill:url(#XMLID_313_);}
	.st360{fill:url(#XMLID_314_);}
	.st361{fill:url(#XMLID_315_);}
	.st362{fill:url(#XMLID_316_);}
	.st363{fill:url(#XMLID_317_);}
	.st364{fill:url(#XMLID_318_);}
	.st365{fill:url(#XMLID_319_);}
	.st366{fill:url(#XMLID_320_);}
	.st367{fill:url(#XMLID_321_);}
	.st368{fill:url(#XMLID_322_);}
	.st369{fill:url(#XMLID_323_);}
	.st370{fill:url(#XMLID_324_);}
	.st371{fill:url(#XMLID_325_);}
	.st372{fill:url(#XMLID_326_);}
	.st373{fill:url(#XMLID_327_);}
	.st374{fill:url(#XMLID_328_);}
	.st375{fill:url(#XMLID_329_);}
	.st376{fill:url(#XMLID_330_);}
	.st377{fill:url(#XMLID_331_);}
	.st378{fill:url(#XMLID_332_);}
	.st379{fill:url(#XMLID_333_);}
	.st380{fill:url(#SVGID_178_);}
	.st381{opacity:0.34;fill:url(#SVGID_179_);}
	.st382{opacity:0.67;fill:url(#SVGID_180_);}
	.st383{fill:url(#SVGID_181_);}
	.st384{fill:none;stroke:url(#SVGID_182_);stroke-width:0.9711;stroke-miterlimit:10;}
	.st385{fill:url(#SVGID_183_);}
	.st386{fill:url(#SVGID_184_);}
	.st387{fill:url(#SVGID_185_);}
	.st388{opacity:0.21;fill:url(#SVGID_186_);}
	.st389{fill:url(#SVGID_187_);}
	.st390{fill:url(#SVGID_188_);}
	.st391{fill:url(#SVGID_189_);}
	.st392{fill:url(#SVGID_190_);}
	.st393{fill:url(#SVGID_191_);}
	.st394{opacity:0.33;fill:url(#SVGID_192_);}
	.st395{fill:url(#SVGID_193_);}
	.st396{fill:url(#SVGID_194_);}
	.st397{opacity:0.34;fill:url(#SVGID_195_);}
	.st398{opacity:0.67;fill:url(#SVGID_196_);}
	.st399{fill:url(#SVGID_197_);}
	.st400{fill:none;stroke:url(#SVGID_198_);stroke-width:0.9711;stroke-miterlimit:10;}
	.st401{fill:url(#SVGID_199_);}
	.st402{fill:url(#SVGID_200_);}
	.st403{fill:url(#SVGID_201_);}
	.st404{opacity:0.21;fill:url(#SVGID_202_);}
	.st405{fill:url(#SVGID_203_);}
	.st406{fill:url(#SVGID_204_);}
	.st407{fill:url(#SVGID_205_);}
	.st408{fill:url(#SVGID_206_);}
	.st409{fill:url(#SVGID_207_);}
	.st410{opacity:0.33;fill:url(#SVGID_208_);}
	.st411{fill:url(#SVGID_209_);}
	.st412{fill:url(#SVGID_210_);}
	.st413{opacity:0.34;fill:url(#SVGID_211_);}
	.st414{opacity:0.67;fill:url(#SVGID_212_);}
	.st415{fill:url(#SVGID_213_);}
	.st416{fill:none;stroke:url(#SVGID_214_);stroke-width:0.9711;stroke-miterlimit:10;}
	.st417{fill:url(#SVGID_215_);}
	.st418{fill:url(#SVGID_216_);}
	.st419{fill:url(#SVGID_217_);}
	.st420{opacity:0.21;fill:url(#SVGID_218_);}
	.st421{fill:url(#SVGID_219_);}
	.st422{fill:url(#SVGID_220_);}
	.st423{fill:url(#SVGID_221_);}
	.st424{fill:url(#SVGID_222_);}
	.st425{fill:url(#SVGID_223_);}
	.st426{opacity:0.33;fill:url(#SVGID_224_);}
	.st427{fill:url(#SVGID_225_);}
</style>
<g>
	<g>
		<linearGradient id="SVGID_1_" gradientUnits="userSpaceOnUse" x1="158.685" y1="79.9256" x2="192.7621" y2="79.9256">
			<stop  offset="0" style="stop-color:#FA143B;stop-opacity:0"/>
			<stop  offset="0.1688" style="stop-color:#E81531;stop-opacity:0.1688"/>
			<stop  offset="0.5047" style="stop-color:#CB171F;stop-opacity:0.5047"/>
			<stop  offset="0.7935" style="stop-color:#B81915;stop-opacity:0.7935"/>
			<stop  offset="1" style="stop-color:#B21911"/>
		</linearGradient>
		<polygon class="st1" points="192.8,68.4 192.8,91.4 185.6,91.4 185.6,81.8 180.5,91.4 161.6,91.4 158.7,81.2 158.7,68.4 		"/>
		<polygon class="st98" points="164,96.8 163.3,97.7 161.6,91.4 158.7,81.2 156.7,74.3 158.7,75.3 162.7,91.4 		"/>
		<polygon class="st98" points="186.8,81.4 186.5,89.6 186.5,91.4 186.4,95.1 185.6,95.3 185.6,91.4 185.6,81.8 180.5,91.4 
			179,94.3 178,93.9 177.4,92.4 177.6,92 177.9,91.4 184.8,78.6 		"/>
		<g>
			<linearGradient id="SVGID_2_" gradientUnits="userSpaceOnUse" x1="215.8547" y1="36.5272" x2="196.5102" y2="3.0215">
				<stop  offset="0" style="stop-color:#000000"/>
				<stop  offset="1" style="stop-color:#808080"/>
			</linearGradient>
			<path class="st2" d="M230,19.4c0.6-0.4,1.2-0.7,1.8-1c1.1-0.6,2.3-1.3,3.5-1.9c-0.3-0.2-0.6-0.3-0.8-0.5
				c-9.9-5.3-19.7-10.5-29.6-15.8c-0.5-0.3-0.8-0.3-1.3,0c-9.4,5.1-18.8,10.1-28.3,15.1c-0.7,0.4-1.3,0.7-2.1,1.1
				c0.3,0.2,0.5,0.3,0.7,0.4c3.7,2.2,7.5,4.3,11.2,6.5c0.2,0.1,0.5,0.3,0.5,0.5c0,1.5,0.1,3,0,4.4c0,0.6,0.1,1,0.6,1.3
				c0.4,0.3,0.9,0.6,1.4,0.7c1.3,0.4,2.6,0.8,3.9,1.1c4.9,0.9,9.8,1.1,14.7,1c4.6-0.1,9.1-0.4,13.6-1.6c1-0.3,1.9-0.8,2.8-1.2
				c0.3-0.2,0.5-0.6,0.6-1c0-1.5-0.1-3.1,0-4.6c0-0.2,0.2-0.5,0.4-0.6c1.5-1,3-1.9,4.5-2.8c0.1-0.1,0.2-0.1,0.4-0.2
				c0,0.1,0.1,0.2,0.1,0.2c0,1.5,0,3.1,0,4.6c0,0.2-0.2,0.4-0.3,0.5c-0.8,0.7-0.9,1.7-0.2,2.5c0.6,0.7,1.7,0.6,2.3,0
				c0.7-0.7,0.6-1.7-0.2-2.4c-0.2-0.1-0.3-0.4-0.3-0.6c0-1.7,0-3.4,0-5.1C229.6,19.8,229.8,19.6,230,19.4z M220,29.5
				c-1.3,0.4-2.7,0.7-4,0.9c-7.8,1-15.6,1-23.4,0c-1.3-0.2-2.7-0.5-4-0.9c-0.4-0.1-0.7-0.5-1-0.8c0.3-0.3,0.6-0.7,1-0.8
				c1.5-0.4,3-0.8,4.6-0.9c3.7-0.3,7.4-0.5,9.4-0.7c6.1,0.1,10.5,0.2,14.9,1c0.8,0.2,1.7,0.4,2.5,0.7c0.3,0.1,0.6,0.5,0.9,0.8
				C220.6,29,220.4,29.4,220,29.5z M222.5,20c-0.6-0.4-1.2-0.9-1.8-1.3c-2.7-1.6-5.6-2.4-8.6-2.8c-4.6-0.7-9.1-0.7-13.7-0.2
				c-3.1,0.3-6.2,0.9-9,2.3c-1.1,0.6-2.2,1.3-3.2,1.9c-0.1-0.5-0.1-1,0.4-1.5c1.7-1.6,3.8-2.6,6-3.3c4-1.3,8.1-1.6,12.2-1.6
				c3.4,0,6.8,0.3,10.1,1.2c2.5,0.7,4.8,1.6,6.8,3.3C222.3,18.5,222.8,19.1,222.5,20z"/>
			<linearGradient id="SVGID_3_" gradientUnits="userSpaceOnUse" x1="230.357" y1="36.4016" x2="226.5838" y2="29.8662">
				<stop  offset="0" style="stop-color:#000000"/>
				<stop  offset="1" style="stop-color:#808080"/>
			</linearGradient>
			<path class="st3" d="M230.5,36.3c-0.8-0.3-1.4-0.2-2,0.3c-0.5,0.4-1,0.9-1.5,1.4c0.2-2.9,0.4-5.8,0.6-8.7c1,0,1.9,0,2.9,0
				C230.5,31.5,230.5,33.9,230.5,36.3z"/>
		</g>
		<linearGradient id="SVGID_4_" gradientUnits="userSpaceOnUse" x1="215.8613" y1="128.8863" x2="168.1165" y2="46.1901">
			<stop  offset="0" style="stop-color:#000000"/>
			<stop  offset="1" style="stop-color:#808080"/>
		</linearGradient>
		<path style="fill:url(#SVGID_4_);" d="M249.4,63.5v33.9c0,1-0.8,1.8-1.8,1.8h-24.5v24.5c0,1-0.8,1.8-1.8,1.8h-33.9
			c-1,0-1.8-0.8-1.8-1.8l0-28.4l0-3.8l0-9.7l-5.1,9.7l-1.5,2.8l-8.5,16c-0.3,0.8-1.2,1.2-2,1.1c-0.8-0.1-1.5-0.7-1.7-1.6l-3.4-12.2
			l-1.8-6.2l-2.9-10.3l-1.9-6.9l-2.4-8.4l-5.5,21.3c-0.2,0.8-1,1.4-1.9,1.4h-26l0.3-3.8c0,0,0,0,0,0l0-0.1h24.1l7.4-28.4
			c0.2-0.9,1-1.4,1.9-1.4c0,0,0.1,0,0.1,0c0.9,0,1.7,0.7,1.8,1.6l3.3,11.9l6.4,23l3.2,11.5l6-11.5l10.3-19.7
			c0.4-0.8,1.3-1.3,2.2-1.1c0.9,0.2,1.5,1,1.5,1.9v49.2h30V97.4c0-1,0.8-1.8,1.8-1.8h24.5V65.3h-24.5c-1,0-1.8-0.8-1.8-1.8V39h-30.2
			v24.5c0,0.7-0.4,1.3-1,1.6c-0.2,0.1-0.5,0.2-0.8,0.2H168c-0.9,0-1.7-0.8-1.7-1.7c0-0.9,0.8-1.7,1.7-1.7h17.6V37.2
			c0-1,0.8-1.8,1.8-1.8h33.9c1,0,1.8,0.8,1.8,1.8v24.5h24.5C248.6,61.6,249.4,62.5,249.4,63.5z"/>
		<linearGradient id="SVGID_5_" gradientUnits="userSpaceOnUse" x1="192.7491" y1="80.4816" x2="242.4993" y2="80.4816">
			<stop  offset="0" style="stop-color:#B21911"/>
			<stop  offset="1" style="stop-color:#FA143B"/>
		</linearGradient>
		<polygon style="fill-rule:evenodd;clip-rule:evenodd;fill:url(#SVGID_5_);" points="242.5,68.4 215.8,68.4 215.8,42.6 192.7,42.6 
			192.7,118.4 215.8,118.4 215.8,91.4 242.5,91.4 		"/>
		<g>
			<radialGradient id="XMLID_138_" cx="71.8802" cy="45.1703" r="24.1512" gradientUnits="userSpaceOnUse">
				<stop  offset="2.970297e-02" style="stop-color:#F9C51B"/>
				<stop  offset="0.3639" style="stop-color:#F6C11D"/>
				<stop  offset="0.7112" style="stop-color:#ECB421"/>
				<stop  offset="1" style="stop-color:#DFA427"/>
				<stop  offset="1" style="stop-color:#DEA327"/>
			</radialGradient>
			<circle id="XMLID_68_" class="st4" cx="71.9" cy="45.2" r="24.2"/>
			<g id="XMLID_65_">
				<radialGradient id="XMLID_139_" cx="72.6879" cy="16.69" r="2.1212" gradientUnits="userSpaceOnUse">
					<stop  offset="2.970297e-02" style="stop-color:#F9C51B"/>
					<stop  offset="0.3639" style="stop-color:#F6C11D"/>
					<stop  offset="0.7112" style="stop-color:#ECB421"/>
					<stop  offset="1" style="stop-color:#DFA427"/>
					<stop  offset="1" style="stop-color:#DEA327"/>
				</radialGradient>
				<path id="XMLID_67_" class="st6" d="M72.7,13.7c0,0,0.1,0.4,0.1,0.9c0,0.3,0.1,0.6,0.1,0.9c0,0.3,0.1,0.7,0.1,1.1
					c0,0.4,0.1,0.7,0.1,1.1c0,0.3,0,0.7-0.1,0.9c-0.1,0.3-0.1,0.5-0.2,0.7c-0.1,0.2-0.1,0.3-0.1,0.3h-0.1c0,0-0.1-0.1-0.1-0.3
					c-0.1-0.2-0.1-0.4-0.2-0.7c-0.1-0.3-0.1-0.6-0.1-0.9c0-0.3,0.1-0.7,0.1-1.1c0-0.4,0.1-0.7,0.1-1.1c0-0.3,0.1-0.7,0.1-0.9
					C72.6,14.1,72.6,13.7,72.7,13.7L72.7,13.7z"/>
				<radialGradient id="XMLID_140_" cx="76.9486" cy="18.2871" r="1.3395" gradientUnits="userSpaceOnUse">
					<stop  offset="2.970297e-02" style="stop-color:#F9C51B"/>
					<stop  offset="0.3639" style="stop-color:#F6C11D"/>
					<stop  offset="0.7112" style="stop-color:#ECB421"/>
					<stop  offset="1" style="stop-color:#DFA427"/>
					<stop  offset="1" style="stop-color:#DEA327"/>
				</radialGradient>
				<path id="XMLID_66_" class="st7" d="M77.4,16.5c0,0,0,0.2,0,0.6c0,0.2,0,0.4,0,0.6c0,0.2,0,0.5,0,0.7c0,0.2,0,0.5,0,0.7
					c0,0.2-0.1,0.4-0.2,0.6C77.1,19.8,77,19.9,77,20c-0.1,0.1-0.1,0.1-0.1,0.1l-0.1,0c0,0,0-0.1-0.1-0.2c0-0.1-0.1-0.3-0.1-0.4
					c0-0.2,0-0.4,0-0.6c0-0.2,0.2-0.4,0.2-0.7c0.1-0.2,0.1-0.4,0.2-0.7c0.1-0.2,0.1-0.4,0.2-0.6C77.2,16.7,77.3,16.5,77.4,16.5
					L77.4,16.5z"/>
			</g>
			<g id="XMLID_62_">
				<radialGradient id="XMLID_141_" cx="81.9891" cy="18.5382" r="2.1185" gradientUnits="userSpaceOnUse">
					<stop  offset="2.970297e-02" style="stop-color:#F9C51B"/>
					<stop  offset="0.3639" style="stop-color:#F6C11D"/>
					<stop  offset="0.7112" style="stop-color:#ECB421"/>
					<stop  offset="1" style="stop-color:#DFA427"/>
					<stop  offset="1" style="stop-color:#DEA327"/>
				</radialGradient>
				<path id="XMLID_64_" class="st8" d="M83,15.8c0,0-0.1,0.4-0.2,0.9c-0.1,0.3-0.1,0.6-0.2,0.9c-0.1,0.3-0.2,0.7-0.3,1.1
					c-0.1,0.4-0.1,0.7-0.3,1.1c-0.1,0.3-0.3,0.6-0.4,0.9c-0.2,0.2-0.3,0.4-0.4,0.6c-0.1,0.1-0.2,0.2-0.2,0.2l-0.1,0c0,0,0-0.1,0-0.3
					c0-0.2,0-0.4,0-0.7c0-0.3,0.1-0.6,0.2-0.9c0.1-0.3,0.3-0.7,0.5-1c0.2-0.3,0.3-0.7,0.4-1c0.1-0.3,0.3-0.6,0.4-0.9
					C82.8,16.1,82.9,15.7,83,15.8L83,15.8z"/>
				<radialGradient id="XMLID_142_" cx="85.593" cy="21.484" r="1.3394" gradientUnits="userSpaceOnUse">
					<stop  offset="2.970297e-02" style="stop-color:#F9C51B"/>
					<stop  offset="0.3639" style="stop-color:#F6C11D"/>
					<stop  offset="0.7112" style="stop-color:#ECB421"/>
					<stop  offset="1" style="stop-color:#DFA427"/>
					<stop  offset="1" style="stop-color:#DEA327"/>
				</radialGradient>
				<path id="XMLID_63_" class="st9" d="M86.5,19.9c0,0-0.1,0.2-0.2,0.6c-0.1,0.2-0.1,0.4-0.2,0.6c-0.1,0.2-0.2,0.4-0.2,0.6
					c-0.1,0.2-0.1,0.5-0.2,0.6c-0.1,0.2-0.2,0.3-0.4,0.5C85.2,22.9,85.1,23,85,23c-0.1,0.1-0.2,0.1-0.2,0.1l-0.1,0c0,0,0-0.1,0-0.2
					c0-0.1,0-0.3,0-0.5c0-0.2,0.1-0.4,0.2-0.6c0.1-0.2,0.3-0.4,0.4-0.5c0.1-0.2,0.3-0.4,0.4-0.6c0.1-0.2,0.3-0.3,0.4-0.5
					C86.3,20,86.4,19.8,86.5,19.9L86.5,19.9z"/>
			</g>
			<g id="XMLID_59_">
				<radialGradient id="XMLID_143_" cx="90.197" cy="23.3465" r="2.1259" gradientUnits="userSpaceOnUse">
					<stop  offset="2.970297e-02" style="stop-color:#F9C51B"/>
					<stop  offset="0.3639" style="stop-color:#F6C11D"/>
					<stop  offset="0.7112" style="stop-color:#ECB421"/>
					<stop  offset="1" style="stop-color:#DFA427"/>
					<stop  offset="1" style="stop-color:#DEA327"/>
				</radialGradient>
				<path id="XMLID_61_" class="st10" d="M92.1,21.1c0,0-0.2,0.3-0.5,0.8c-0.1,0.2-0.3,0.5-0.5,0.8c-0.2,0.3-0.4,0.6-0.6,0.9
					c-0.2,0.3-0.4,0.6-0.6,0.9c-0.2,0.3-0.5,0.5-0.7,0.7c-0.2,0.2-0.4,0.3-0.6,0.4c-0.2,0.1-0.3,0.1-0.3,0.1l-0.1-0.1
					c0,0,0-0.1,0.1-0.3c0-0.2,0.1-0.4,0.3-0.7c0.1-0.3,0.3-0.5,0.5-0.8c0.2-0.3,0.5-0.5,0.8-0.8c0.3-0.3,0.5-0.5,0.8-0.8
					c0.2-0.3,0.5-0.5,0.7-0.7C91.7,21.3,92,21,92.1,21.1L92.1,21.1z"/>
				<radialGradient id="XMLID_144_" cx="92.633" cy="27.3135" r="1.3385" gradientUnits="userSpaceOnUse">
					<stop  offset="2.970297e-02" style="stop-color:#F9C51B"/>
					<stop  offset="0.3639" style="stop-color:#F6C11D"/>
					<stop  offset="0.7112" style="stop-color:#ECB421"/>
					<stop  offset="1" style="stop-color:#DFA427"/>
					<stop  offset="1" style="stop-color:#DEA327"/>
				</radialGradient>
				<path id="XMLID_60_" class="st11" d="M94,26.1c0,0-0.1,0.2-0.3,0.5c-0.1,0.1-0.2,0.3-0.4,0.5c-0.1,0.2-0.3,0.3-0.4,0.5
					c-0.2,0.2-0.3,0.4-0.4,0.5c-0.2,0.1-0.3,0.2-0.5,0.3c-0.2,0.1-0.3,0.1-0.4,0.1c-0.1,0-0.2,0-0.2,0l-0.1-0.1c0,0,0-0.1,0-0.2
					c0-0.1,0.1-0.3,0.2-0.4c0.1-0.2,0.2-0.3,0.4-0.5c0.2-0.1,0.4-0.2,0.6-0.4c0.2-0.1,0.4-0.3,0.6-0.4c0.2-0.1,0.4-0.2,0.5-0.3
					C93.8,26.1,94,26,94,26.1L94,26.1z"/>
			</g>
			<g id="XMLID_56_">
				<radialGradient id="XMLID_145_" cx="96.3529" cy="30.5805" r="2.1237" gradientUnits="userSpaceOnUse">
					<stop  offset="2.970297e-02" style="stop-color:#F9C51B"/>
					<stop  offset="0.3639" style="stop-color:#F6C11D"/>
					<stop  offset="0.7112" style="stop-color:#ECB421"/>
					<stop  offset="1" style="stop-color:#DFA427"/>
					<stop  offset="1" style="stop-color:#DEA327"/>
				</radialGradient>
				<path id="XMLID_58_" class="st12" d="M98.9,29c0,0-0.3,0.2-0.7,0.6c-0.2,0.2-0.5,0.4-0.7,0.6c-0.3,0.2-0.6,0.4-0.9,0.7
					c-0.3,0.2-0.6,0.5-0.9,0.7c-0.3,0.2-0.6,0.3-0.9,0.4c-0.3,0.1-0.5,0.2-0.7,0.2c-0.2,0-0.3,0-0.3,0l0-0.1c0,0,0-0.1,0.2-0.2
					c0.1-0.1,0.3-0.3,0.5-0.5c0.2-0.2,0.4-0.4,0.7-0.6c0.3-0.2,0.7-0.3,1-0.5c0.3-0.2,0.7-0.3,1-0.5c0.3-0.2,0.6-0.3,0.9-0.4
					C98.5,29.1,98.8,29,98.9,29L98.9,29z"/>
				<radialGradient id="XMLID_146_" cx="97.3496" cy="35.1638" r="1.3406" gradientUnits="userSpaceOnUse">
					<stop  offset="2.970297e-02" style="stop-color:#F9C51B"/>
					<stop  offset="0.3639" style="stop-color:#F6C11D"/>
					<stop  offset="0.7112" style="stop-color:#ECB421"/>
					<stop  offset="1" style="stop-color:#DFA427"/>
					<stop  offset="1" style="stop-color:#DEA327"/>
				</radialGradient>
				<path id="XMLID_57_" class="st13" d="M99.1,34.4c0,0-0.2,0.1-0.5,0.3c-0.1,0.1-0.3,0.2-0.5,0.3c-0.2,0.1-0.4,0.2-0.6,0.4
					c-0.2,0.1-0.4,0.3-0.6,0.4c-0.2,0.1-0.4,0.1-0.6,0.1c-0.2,0-0.3,0-0.5,0c-0.1,0-0.2,0-0.2,0l0-0.1c0,0,0-0.1,0.1-0.2
					c0.1-0.1,0.2-0.2,0.3-0.4c0.1-0.1,0.3-0.3,0.5-0.3c0.2-0.1,0.4-0.1,0.7-0.2c0.2-0.1,0.4-0.1,0.7-0.2c0.2-0.1,0.4-0.1,0.6-0.1
					C98.8,34.4,99,34.4,99.1,34.4L99.1,34.4z"/>
			</g>
			<g id="XMLID_53_">
				<radialGradient id="XMLID_147_" cx="99.7889" cy="39.486" r="2.1179" gradientUnits="userSpaceOnUse">
					<stop  offset="2.970297e-02" style="stop-color:#F9C51B"/>
					<stop  offset="0.3639" style="stop-color:#F6C11D"/>
					<stop  offset="0.7112" style="stop-color:#ECB421"/>
					<stop  offset="1" style="stop-color:#DFA427"/>
					<stop  offset="1" style="stop-color:#DEA327"/>
				</radialGradient>
				<path id="XMLID_55_" class="st14" d="M102.7,38.8c0,0-0.3,0.1-0.9,0.3c-0.3,0.1-0.6,0.2-0.9,0.3c-0.3,0.1-0.7,0.2-1,0.3
					c-0.4,0.1-0.7,0.3-1,0.4c-0.3,0.1-0.7,0.1-0.9,0.1c-0.3,0-0.5,0-0.7,0c-0.2,0-0.3-0.1-0.3-0.1l0-0.1c0,0,0.1-0.1,0.2-0.2
					c0.1-0.1,0.4-0.2,0.6-0.4c0.3-0.1,0.6-0.2,0.9-0.3c0.3-0.1,0.7-0.1,1.1-0.1c0.4-0.1,0.7-0.1,1.1-0.2c0.3,0,0.7-0.1,0.9-0.1
					C102.3,38.7,102.7,38.7,102.7,38.8L102.7,38.8z"/>
				<radialGradient id="XMLID_148_" cx="99.2354" cy="44.1075" r="1.3482" gradientUnits="userSpaceOnUse">
					<stop  offset="2.970297e-02" style="stop-color:#F9C51B"/>
					<stop  offset="0.3639" style="stop-color:#F6C11D"/>
					<stop  offset="0.7112" style="stop-color:#ECB421"/>
					<stop  offset="1" style="stop-color:#DFA427"/>
					<stop  offset="1" style="stop-color:#DEA327"/>
				</radialGradient>
				<path id="XMLID_54_" class="st15" d="M101.1,44c0,0-0.2,0.1-0.6,0.2c-0.2,0-0.4,0.1-0.6,0.1c-0.2,0.1-0.4,0.1-0.7,0.1
					c-0.2,0-0.5,0.1-0.7,0.2c-0.2,0-0.4,0-0.6-0.1c-0.2,0-0.3-0.1-0.4-0.2c-0.1-0.1-0.2-0.1-0.2-0.1l0-0.1c0,0,0.1-0.1,0.2-0.1
					c0.1-0.1,0.2-0.2,0.4-0.2c0.2-0.1,0.4-0.1,0.6-0.2c0.2,0,0.5,0.1,0.7,0.1c0.2,0,0.5,0,0.7,0c0.2,0,0.4,0,0.6,0.1
					C100.8,43.8,101.1,43.9,101.1,44L101.1,44z"/>
			</g>
			<g id="XMLID_50_">
				<radialGradient id="XMLID_149_" cx="100.1229" cy="48.8159" r="2.1154" gradientUnits="userSpaceOnUse">
					<stop  offset="2.970297e-02" style="stop-color:#F9C51B"/>
					<stop  offset="0.3639" style="stop-color:#F6C11D"/>
					<stop  offset="0.7112" style="stop-color:#ECB421"/>
					<stop  offset="1" style="stop-color:#DFA427"/>
					<stop  offset="1" style="stop-color:#DEA327"/>
				</radialGradient>
				<path id="XMLID_52_" class="st16" d="M103.1,49.3c0,0-0.4,0-0.9,0c-0.3,0-0.6,0-1,0c-0.3,0-0.7,0-1.1,0c-0.4,0-0.7,0-1.1,0
					c-0.3,0-0.7-0.1-0.9-0.2c-0.3-0.1-0.5-0.2-0.6-0.3c-0.2-0.1-0.2-0.1-0.2-0.1l0-0.1c0,0,0.1,0,0.3-0.1c0.2-0.1,0.4-0.1,0.7-0.1
					c0.3,0,0.6,0,1,0c0.3,0,0.7,0.2,1.1,0.2c0.4,0.1,0.7,0.1,1.1,0.2c0.3,0.1,0.7,0.1,0.9,0.2C102.7,49.1,103.1,49.2,103.1,49.3
					L103.1,49.3z"/>
				<radialGradient id="XMLID_150_" cx="98.0807" cy="53.0306" r="1.3405" gradientUnits="userSpaceOnUse">
					<stop  offset="2.970297e-02" style="stop-color:#F9C51B"/>
					<stop  offset="0.3639" style="stop-color:#F6C11D"/>
					<stop  offset="0.7112" style="stop-color:#ECB421"/>
					<stop  offset="1" style="stop-color:#DFA427"/>
					<stop  offset="1" style="stop-color:#DEA327"/>
				</radialGradient>
				<path id="XMLID_51_" class="st17" d="M99.9,53.6c0,0-0.2,0-0.6,0c-0.2,0-0.4,0-0.6-0.1c-0.2,0-0.4-0.1-0.7-0.1
					c-0.2,0-0.5,0-0.7-0.1c-0.2-0.1-0.4-0.2-0.5-0.3c-0.2-0.1-0.3-0.2-0.4-0.3c-0.1-0.1-0.1-0.2-0.1-0.2l0-0.1c0,0,0.1,0,0.2-0.1
					c0.1,0,0.3-0.1,0.5-0.1c0.2,0,0.4,0,0.6,0c0.2,0.1,0.4,0.2,0.6,0.3c0.2,0.1,0.4,0.2,0.6,0.3c0.2,0.1,0.4,0.2,0.5,0.3
					C99.7,53.4,99.9,53.6,99.9,53.6L99.9,53.6z"/>
			</g>
			<g id="XMLID_47_">
				<radialGradient id="XMLID_151_" cx="97.3178" cy="58.0023" r="2.1199" gradientUnits="userSpaceOnUse">
					<stop  offset="2.970297e-02" style="stop-color:#F9C51B"/>
					<stop  offset="0.3639" style="stop-color:#F6C11D"/>
					<stop  offset="0.7112" style="stop-color:#ECB421"/>
					<stop  offset="1" style="stop-color:#DFA427"/>
					<stop  offset="1" style="stop-color:#DEA327"/>
				</radialGradient>
				<path id="XMLID_49_" class="st18" d="M100,59.3c0,0-0.4-0.1-0.9-0.3c-0.3-0.1-0.6-0.2-0.9-0.3c-0.3-0.1-0.7-0.2-1-0.4
					c-0.3-0.1-0.7-0.2-1-0.4c-0.3-0.1-0.6-0.3-0.8-0.5c-0.2-0.2-0.4-0.3-0.5-0.5c-0.1-0.1-0.2-0.2-0.2-0.2l0-0.1c0,0,0.1,0,0.3,0
					c0.2,0,0.4,0,0.7,0.1c0.3,0.1,0.6,0.2,0.9,0.3c0.3,0.2,0.6,0.4,0.9,0.6c0.3,0.2,0.6,0.4,0.9,0.5c0.3,0.2,0.6,0.4,0.8,0.5
					C99.7,59,100,59.2,100,59.3L100,59.3z"/>
				<radialGradient id="XMLID_152_" cx="94.0139" cy="61.2794" r="1.3382" gradientUnits="userSpaceOnUse">
					<stop  offset="2.970297e-02" style="stop-color:#F9C51B"/>
					<stop  offset="0.3639" style="stop-color:#F6C11D"/>
					<stop  offset="0.7112" style="stop-color:#ECB421"/>
					<stop  offset="1" style="stop-color:#DFA427"/>
					<stop  offset="1" style="stop-color:#DEA327"/>
				</radialGradient>
				<path id="XMLID_48_" class="st19" d="M95.5,62.4c0,0-0.2-0.1-0.5-0.2c-0.2-0.1-0.4-0.2-0.5-0.2c-0.2-0.1-0.4-0.2-0.6-0.3
					c-0.2-0.1-0.4-0.2-0.6-0.3c-0.2-0.1-0.3-0.3-0.4-0.4c-0.1-0.1-0.2-0.3-0.2-0.4c0-0.1-0.1-0.2-0.1-0.2l0.1-0.1c0,0,0.1,0,0.2,0
					c0.1,0,0.3,0,0.5,0.1c0.2,0,0.4,0.1,0.5,0.2c0.2,0.1,0.3,0.3,0.5,0.5c0.2,0.2,0.3,0.3,0.5,0.5c0.2,0.1,0.3,0.3,0.4,0.4
					C95.4,62.1,95.6,62.3,95.5,62.4L95.5,62.4z"/>
			</g>
			<g id="XMLID_44_">
				<radialGradient id="XMLID_153_" cx="91.6855" cy="65.6527" r="2.1267" gradientUnits="userSpaceOnUse">
					<stop  offset="2.970297e-02" style="stop-color:#F9C51B"/>
					<stop  offset="0.3639" style="stop-color:#F6C11D"/>
					<stop  offset="0.7112" style="stop-color:#ECB421"/>
					<stop  offset="1" style="stop-color:#DFA427"/>
					<stop  offset="1" style="stop-color:#DEA327"/>
				</radialGradient>
				<path id="XMLID_46_" class="st20" d="M93.8,67.8c0,0-0.3-0.2-0.7-0.6c-0.2-0.2-0.5-0.4-0.8-0.6c-0.3-0.2-0.6-0.5-0.8-0.7
					c-0.3-0.2-0.6-0.4-0.9-0.7c-0.2-0.2-0.4-0.5-0.6-0.7c-0.2-0.2-0.3-0.5-0.3-0.6c-0.1-0.2-0.1-0.3-0.1-0.3l0.1-0.1
					c0,0,0.1,0,0.3,0.1c0.2,0.1,0.4,0.2,0.6,0.3c0.2,0.2,0.5,0.3,0.8,0.6c0.2,0.2,0.5,0.6,0.7,0.8c0.2,0.3,0.5,0.6,0.7,0.8
					c0.2,0.3,0.4,0.5,0.6,0.7C93.6,67.4,93.8,67.7,93.8,67.8L93.8,67.8z"/>
				<radialGradient id="XMLID_154_" cx="87.4851" cy="67.6639" r="1.3381" gradientUnits="userSpaceOnUse">
					<stop  offset="2.970297e-02" style="stop-color:#F9C51B"/>
					<stop  offset="0.3639" style="stop-color:#F6C11D"/>
					<stop  offset="0.7112" style="stop-color:#ECB421"/>
					<stop  offset="1" style="stop-color:#DFA427"/>
					<stop  offset="1" style="stop-color:#DEA327"/>
				</radialGradient>
				<path id="XMLID_45_" class="st21" d="M88.5,69.2c0,0-0.2-0.2-0.4-0.4c-0.1-0.1-0.3-0.3-0.4-0.4c-0.2-0.2-0.3-0.3-0.5-0.5
					c-0.2-0.2-0.4-0.3-0.5-0.5c-0.1-0.2-0.2-0.4-0.3-0.5c-0.1-0.2-0.1-0.3-0.1-0.5c0-0.1,0-0.2,0-0.2l0.1-0.1c0,0,0.1,0,0.2,0.1
					c0.1,0,0.3,0.1,0.4,0.2c0.2,0.1,0.3,0.2,0.4,0.4c0.1,0.2,0.2,0.4,0.3,0.6c0.1,0.2,0.2,0.4,0.3,0.6c0.1,0.2,0.2,0.4,0.3,0.5
					C88.5,68.9,88.6,69.1,88.5,69.2L88.5,69.2z"/>
			</g>
			<g id="XMLID_41_">
				<radialGradient id="XMLID_155_" cx="83.8511" cy="71.0249" r="2.1205" gradientUnits="userSpaceOnUse">
					<stop  offset="2.970297e-02" style="stop-color:#F9C51B"/>
					<stop  offset="0.3639" style="stop-color:#F6C11D"/>
					<stop  offset="0.7112" style="stop-color:#ECB421"/>
					<stop  offset="1" style="stop-color:#DFA427"/>
					<stop  offset="1" style="stop-color:#DEA327"/>
				</radialGradient>
				<path id="XMLID_43_" class="st22" d="M85.1,73.7c0,0-0.2-0.3-0.5-0.8c-0.2-0.2-0.3-0.5-0.5-0.8c-0.2-0.3-0.4-0.6-0.6-0.9
					c-0.2-0.3-0.4-0.6-0.6-0.9c-0.2-0.3-0.3-0.6-0.3-0.9c-0.1-0.3-0.1-0.5-0.1-0.7c0-0.2,0-0.3,0-0.3l0.1,0c0,0,0.1,0.1,0.2,0.2
					c0.1,0.1,0.3,0.3,0.5,0.5c0.2,0.2,0.4,0.5,0.5,0.8c0.1,0.3,0.2,0.7,0.4,1c0.1,0.3,0.3,0.7,0.4,1c0.1,0.3,0.2,0.6,0.3,0.9
					C85.1,73.3,85.2,73.7,85.1,73.7L85.1,73.7z"/>
				<radialGradient id="XMLID_156_" cx="79.1578" cy="71.5443" r="1.3409" gradientUnits="userSpaceOnUse">
					<stop  offset="2.970297e-02" style="stop-color:#F9C51B"/>
					<stop  offset="0.3639" style="stop-color:#F6C11D"/>
					<stop  offset="0.7112" style="stop-color:#ECB421"/>
					<stop  offset="1" style="stop-color:#DFA427"/>
					<stop  offset="1" style="stop-color:#DEA327"/>
				</radialGradient>
				<path id="XMLID_42_" class="st23" d="M79.7,73.3c0,0-0.1-0.2-0.3-0.5c-0.1-0.2-0.2-0.3-0.3-0.5c-0.1-0.2-0.2-0.4-0.3-0.6
					c-0.1-0.2-0.2-0.4-0.3-0.6c-0.1-0.2-0.1-0.4-0.1-0.6c0-0.2,0-0.3,0.1-0.5c0-0.1,0.1-0.2,0.1-0.2l0.1,0c0,0,0.1,0,0.2,0.1
					c0.1,0.1,0.2,0.2,0.3,0.3c0.1,0.1,0.2,0.3,0.3,0.5c0.1,0.2,0.1,0.5,0.1,0.7c0,0.2,0.1,0.5,0.1,0.7c0,0.2,0.1,0.4,0.1,0.6
					C79.8,73.1,79.8,73.3,79.7,73.3L79.7,73.3z"/>
			</g>
			<g id="XMLID_39_">
				
					<radialGradient id="XMLID_157_" cx="1956.1318" cy="45.9759" r="1.3381" gradientTransform="matrix(0.7462 0.6658 -0.6658 0.7462 -1359.4105 -1263.3654)" gradientUnits="userSpaceOnUse">
					<stop  offset="2.970297e-02" style="stop-color:#F9C51B"/>
					<stop  offset="0.3639" style="stop-color:#F6C11D"/>
					<stop  offset="0.7112" style="stop-color:#ECB421"/>
					<stop  offset="1" style="stop-color:#DFA427"/>
					<stop  offset="1" style="stop-color:#DEA327"/>
				</radialGradient>
				<path id="XMLID_40_" class="st24" d="M69.4,75.1c0,0,0-0.2-0.1-0.6c0-0.2,0-0.4-0.1-0.6c0-0.2,0-0.5,0-0.7c0-0.2-0.1-0.5,0-0.7
					c0-0.2,0.1-0.4,0.2-0.6c0.1-0.2,0.2-0.3,0.2-0.4c0.1-0.1,0.1-0.1,0.1-0.1l0.1,0c0,0,0,0.1,0.1,0.2c0.1,0.1,0.1,0.3,0.2,0.4
					c0,0.2,0.1,0.4,0.1,0.6c0,0.2-0.1,0.4-0.2,0.7c-0.1,0.2-0.1,0.5-0.2,0.7c-0.1,0.2-0.1,0.4-0.2,0.6
					C69.5,74.9,69.5,75.1,69.4,75.1L69.4,75.1z"/>
			</g>
			<g id="XMLID_36_">
				
					<radialGradient id="XMLID_158_" cx="1952.4977" cy="49.3369" r="2.1205" gradientTransform="matrix(0.7462 0.6658 -0.6658 0.7462 -1359.4105 -1263.3654)" gradientUnits="userSpaceOnUse">
					<stop  offset="2.970297e-02" style="stop-color:#F9C51B"/>
					<stop  offset="0.3639" style="stop-color:#F6C11D"/>
					<stop  offset="0.7112" style="stop-color:#ECB421"/>
					<stop  offset="1" style="stop-color:#DFA427"/>
					<stop  offset="1" style="stop-color:#DEA327"/>
				</radialGradient>
				<path id="XMLID_38_" class="st25" d="M63.8,76.2c0,0,0-0.4,0.1-0.9c0-0.3,0.1-0.6,0.1-0.9c0.1-0.3,0.1-0.7,0.2-1.1
					c0.1-0.4,0.1-0.7,0.2-1.1c0.1-0.3,0.2-0.6,0.4-0.9c0.1-0.3,0.3-0.5,0.4-0.6c0.1-0.1,0.2-0.2,0.2-0.2l0.1,0c0,0,0,0.1,0,0.3
					c0,0.2,0,0.4,0,0.7c0,0.3-0.1,0.6-0.1,0.9c-0.1,0.3-0.3,0.7-0.4,1c-0.1,0.3-0.3,0.7-0.4,1c-0.1,0.3-0.2,0.6-0.4,0.9
					C64.1,75.9,63.9,76.2,63.8,76.2L63.8,76.2z"/>
				
					<radialGradient id="XMLID_159_" cx="1947.8044" cy="49.8563" r="1.3409" gradientTransform="matrix(0.7462 0.6658 -0.6658 0.7462 -1359.4105 -1263.3654)" gradientUnits="userSpaceOnUse">
					<stop  offset="2.970297e-02" style="stop-color:#F9C51B"/>
					<stop  offset="0.3639" style="stop-color:#F6C11D"/>
					<stop  offset="0.7112" style="stop-color:#ECB421"/>
					<stop  offset="1" style="stop-color:#DFA427"/>
					<stop  offset="1" style="stop-color:#DEA327"/>
				</radialGradient>
				<path id="XMLID_37_" class="st26" d="M60,72.3c0,0,0-0.2,0.1-0.6c0-0.2,0.1-0.4,0.1-0.6c0.1-0.2,0.1-0.4,0.2-0.7
					c0.1-0.2,0.1-0.5,0.2-0.7c0.1-0.2,0.2-0.4,0.3-0.5c0.1-0.1,0.3-0.2,0.4-0.3c0.1-0.1,0.2-0.1,0.2-0.1l0.1,0c0,0,0,0.1,0,0.2
					c0,0.1,0,0.3,0,0.5c0,0.2-0.1,0.4-0.1,0.6c-0.1,0.2-0.3,0.4-0.4,0.6c-0.1,0.2-0.2,0.4-0.4,0.6c-0.1,0.2-0.2,0.4-0.3,0.5
					C60.3,72.1,60.1,72.3,60,72.3L60,72.3z"/>
			</g>
			<radialGradient id="XMLID_160_" cx="74.5789" cy="73.5234" r="2.1153" gradientUnits="userSpaceOnUse">
				<stop  offset="2.970297e-02" style="stop-color:#F9C51B"/>
				<stop  offset="0.3639" style="stop-color:#F6C11D"/>
				<stop  offset="0.7112" style="stop-color:#ECB421"/>
				<stop  offset="1" style="stop-color:#DFA427"/>
				<stop  offset="1" style="stop-color:#DEA327"/>
			</radialGradient>
			<path id="XMLID_35_" class="st27" d="M75,76.5c0,0-0.1-0.4-0.2-0.9c-0.1-0.3-0.1-0.6-0.2-0.9c-0.1-0.3-0.2-0.7-0.2-1.1
				c-0.1-0.4-0.2-0.7-0.2-1.1c0-0.3,0-0.7,0-1c0-0.3,0.1-0.5,0.1-0.7c0-0.2,0.1-0.3,0.1-0.3l0.1,0c0,0,0.1,0.1,0.1,0.2
				c0.1,0.2,0.2,0.4,0.3,0.6c0.1,0.3,0.2,0.6,0.2,0.9c0,0.3,0,0.7,0,1.1c0,0.4,0,0.7,0,1.1c0,0.3,0,0.7,0,1
				C75.1,76.1,75.1,76.5,75,76.5L75,76.5z"/>
			<g id="XMLID_32_">
				<radialGradient id="XMLID_161_" cx="56.4761" cy="69.1389" r="2.123" gradientUnits="userSpaceOnUse">
					<stop  offset="2.970297e-02" style="stop-color:#F9C51B"/>
					<stop  offset="0.3639" style="stop-color:#F6C11D"/>
					<stop  offset="0.7112" style="stop-color:#ECB421"/>
					<stop  offset="1" style="stop-color:#DFA427"/>
					<stop  offset="1" style="stop-color:#DEA327"/>
				</radialGradient>
				<path id="XMLID_34_" class="st28" d="M54.9,71.7c0,0,0.1-0.3,0.4-0.9c0.1-0.3,0.2-0.6,0.4-0.9c0.1-0.3,0.3-0.6,0.5-1
					c0.2-0.3,0.3-0.7,0.5-1c0.2-0.3,0.4-0.5,0.6-0.8c0.2-0.2,0.4-0.4,0.5-0.5c0.1-0.1,0.2-0.2,0.2-0.2l0.1,0c0,0,0,0.1,0,0.3
					c0,0.2-0.1,0.4-0.2,0.7c-0.1,0.3-0.2,0.6-0.4,0.9c-0.2,0.3-0.4,0.6-0.7,0.9c-0.2,0.3-0.4,0.6-0.6,0.9c-0.2,0.3-0.4,0.5-0.6,0.8
					C55.2,71.4,55,71.7,54.9,71.7L54.9,71.7z"/>
				<radialGradient id="XMLID_162_" cx="53.5572" cy="65.5126" r="1.3383" gradientUnits="userSpaceOnUse">
					<stop  offset="2.970297e-02" style="stop-color:#F9C51B"/>
					<stop  offset="0.3639" style="stop-color:#F6C11D"/>
					<stop  offset="0.7112" style="stop-color:#ECB421"/>
					<stop  offset="1" style="stop-color:#DFA427"/>
					<stop  offset="1" style="stop-color:#DEA327"/>
				</radialGradient>
				<path id="XMLID_33_" class="st29" d="M52.3,66.9c0,0,0.1-0.2,0.3-0.5c0.1-0.2,0.2-0.3,0.3-0.5c0.1-0.2,0.2-0.4,0.4-0.6
					c0.1-0.2,0.2-0.4,0.4-0.6c0.1-0.2,0.3-0.3,0.5-0.4c0.2-0.1,0.3-0.2,0.4-0.2c0.1,0,0.2,0,0.2,0l0.1,0.1c0,0,0,0.1,0,0.2
					c0,0.1-0.1,0.3-0.1,0.5c-0.1,0.2-0.2,0.4-0.3,0.5c-0.1,0.2-0.4,0.3-0.5,0.4c-0.2,0.2-0.3,0.3-0.5,0.5c-0.2,0.1-0.3,0.3-0.5,0.4
					C52.6,66.8,52.4,67,52.3,66.9L52.3,66.9z"/>
			</g>
			<g id="XMLID_29_">
				<radialGradient id="XMLID_163_" cx="49.4532" cy="62.7433" r="2.1262" gradientUnits="userSpaceOnUse">
					<stop  offset="2.970297e-02" style="stop-color:#F9C51B"/>
					<stop  offset="0.3639" style="stop-color:#F6C11D"/>
					<stop  offset="0.7112" style="stop-color:#ECB421"/>
					<stop  offset="1" style="stop-color:#DFA427"/>
					<stop  offset="1" style="stop-color:#DEA327"/>
				</radialGradient>
				<path id="XMLID_31_" class="st30" d="M47.1,64.6c0,0,0.2-0.3,0.6-0.7c0.2-0.2,0.4-0.4,0.7-0.7c0.2-0.3,0.5-0.5,0.8-0.8
					c0.3-0.3,0.5-0.6,0.8-0.8c0.3-0.2,0.5-0.4,0.8-0.5c0.3-0.1,0.5-0.2,0.6-0.3c0.2-0.1,0.3-0.1,0.3-0.1l0.1,0.1c0,0,0,0.1-0.1,0.3
					c-0.1,0.2-0.2,0.4-0.4,0.6c-0.2,0.2-0.4,0.5-0.7,0.7c-0.3,0.2-0.6,0.4-0.9,0.6c-0.3,0.2-0.6,0.4-0.9,0.6
					c-0.3,0.2-0.6,0.4-0.8,0.5C47.5,64.5,47.2,64.7,47.1,64.6L47.1,64.6z"/>
				<radialGradient id="XMLID_164_" cx="47.8885" cy="58.3476" r="1.3389" gradientUnits="userSpaceOnUse">
					<stop  offset="2.970297e-02" style="stop-color:#F9C51B"/>
					<stop  offset="0.3639" style="stop-color:#F6C11D"/>
					<stop  offset="0.7112" style="stop-color:#ECB421"/>
					<stop  offset="1" style="stop-color:#DFA427"/>
					<stop  offset="1" style="stop-color:#DEA327"/>
				</radialGradient>
				<path id="XMLID_30_" class="st31" d="M46.3,59.3c0,0,0.2-0.2,0.4-0.4c0.1-0.1,0.3-0.3,0.5-0.4c0.2-0.1,0.4-0.3,0.5-0.4
					c0.2-0.1,0.3-0.3,0.5-0.4c0.2-0.1,0.4-0.2,0.6-0.2c0.2,0,0.3,0,0.5,0c0.1,0,0.2,0,0.2,0l0,0.1c0,0,0,0.1-0.1,0.2
					c-0.1,0.1-0.1,0.2-0.3,0.4c-0.1,0.1-0.3,0.3-0.5,0.4c-0.2,0.1-0.4,0.2-0.6,0.2c-0.2,0.1-0.4,0.2-0.6,0.3
					c-0.2,0.1-0.4,0.1-0.6,0.2C46.5,59.3,46.3,59.3,46.3,59.3L46.3,59.3z"/>
			</g>
			<g id="XMLID_26_">
				<radialGradient id="XMLID_165_" cx="44.9229" cy="54.383" r="2.1187" gradientUnits="userSpaceOnUse">
					<stop  offset="2.970297e-02" style="stop-color:#F9C51B"/>
					<stop  offset="0.3639" style="stop-color:#F6C11D"/>
					<stop  offset="0.7112" style="stop-color:#ECB421"/>
					<stop  offset="1" style="stop-color:#DFA427"/>
					<stop  offset="1" style="stop-color:#DEA327"/>
				</radialGradient>
				<path id="XMLID_28_" class="st32" d="M42.1,55.4c0,0,0.3-0.2,0.8-0.4c0.2-0.1,0.5-0.3,0.9-0.4c0.3-0.2,0.6-0.3,1-0.5
					c0.3-0.2,0.7-0.4,1-0.5c0.3-0.1,0.6-0.2,0.9-0.2c0.3,0,0.5-0.1,0.7,0c0.2,0,0.3,0,0.3,0l0,0.1c0,0-0.1,0.1-0.2,0.2
					c-0.1,0.1-0.3,0.3-0.6,0.4c-0.2,0.2-0.5,0.3-0.9,0.4c-0.3,0.1-0.7,0.2-1.1,0.3c-0.4,0.1-0.7,0.2-1.1,0.3
					c-0.3,0.1-0.7,0.2-0.9,0.2C42.5,55.4,42.2,55.5,42.1,55.4L42.1,55.4z"/>
				<radialGradient id="XMLID_166_" cx="44.8864" cy="49.6303" r="1.3389" gradientUnits="userSpaceOnUse">
					<stop  offset="2.970297e-02" style="stop-color:#F9C51B"/>
					<stop  offset="0.3639" style="stop-color:#F6C11D"/>
					<stop  offset="0.7112" style="stop-color:#ECB421"/>
					<stop  offset="1" style="stop-color:#DFA427"/>
					<stop  offset="1" style="stop-color:#DEA327"/>
				</radialGradient>
				<path id="XMLID_27_" class="st33" d="M43.1,50.1c0,0,0.2-0.1,0.5-0.2c0.2-0.1,0.4-0.1,0.6-0.2c0.2-0.1,0.4-0.2,0.6-0.2
					c0.2-0.1,0.4-0.2,0.6-0.2c0.2,0,0.4,0,0.6,0c0.2,0,0.3,0.1,0.5,0.1c0.1,0,0.2,0.1,0.2,0.1l0,0.1c0,0,0,0.1-0.1,0.1
					c-0.1,0.1-0.2,0.2-0.4,0.3c-0.2,0.1-0.3,0.2-0.6,0.2c-0.2,0-0.5,0-0.7,0c-0.2,0-0.5,0-0.7,0c-0.2,0-0.4,0-0.6,0
					C43.3,50.2,43.1,50.1,43.1,50.1L43.1,50.1z"/>
			</g>
			<g id="XMLID_23_">
				<radialGradient id="XMLID_167_" cx="43.3888" cy="44.9948" r="2.1214" gradientUnits="userSpaceOnUse">
					<stop  offset="2.970297e-02" style="stop-color:#F9C51B"/>
					<stop  offset="0.3639" style="stop-color:#F6C11D"/>
					<stop  offset="0.7112" style="stop-color:#ECB421"/>
					<stop  offset="1" style="stop-color:#DFA427"/>
					<stop  offset="1" style="stop-color:#DEA327"/>
				</radialGradient>
				<path id="XMLID_25_" class="st34" d="M40.4,45c0,0,0.4-0.1,0.9-0.1c0.3,0,0.6-0.1,0.9-0.1c0.3,0,0.7-0.1,1.1-0.1
					c0.4,0,0.7-0.1,1.1-0.1c0.3,0,0.7,0,1,0.1c0.3,0.1,0.5,0.1,0.7,0.2c0.2,0.1,0.3,0.1,0.3,0.1l0,0.1c0,0-0.1,0.1-0.3,0.1
					c-0.2,0.1-0.4,0.1-0.7,0.2c-0.3,0.1-0.6,0.1-0.9,0.1c-0.3,0-0.7-0.1-1.1-0.1c-0.4,0-0.7,0-1.1-0.1c-0.3,0-0.7-0.1-1-0.1
					C40.8,45.2,40.4,45.1,40.4,45L40.4,45z"/>
				<radialGradient id="XMLID_168_" cx="44.8846" cy="40.7092" r="1.3423" gradientUnits="userSpaceOnUse">
					<stop  offset="2.970297e-02" style="stop-color:#F9C51B"/>
					<stop  offset="0.3639" style="stop-color:#F6C11D"/>
					<stop  offset="0.7112" style="stop-color:#ECB421"/>
					<stop  offset="1" style="stop-color:#DFA427"/>
					<stop  offset="1" style="stop-color:#DEA327"/>
				</radialGradient>
				<path id="XMLID_24_" class="st35" d="M43.1,40.3c0,0,0.2,0,0.6,0c0.2,0,0.4,0,0.6,0c0.2,0,0.5,0,0.7,0c0.2,0,0.5,0,0.7,0
					c0.2,0,0.4,0.1,0.6,0.2c0.2,0.1,0.3,0.2,0.4,0.3c0.1,0.1,0.1,0.1,0.1,0.1l0,0.1c0,0-0.1,0-0.2,0.1c-0.1,0.1-0.3,0.1-0.4,0.1
					c-0.2,0-0.4,0.1-0.6,0c-0.2,0-0.4-0.1-0.7-0.2c-0.2-0.1-0.4-0.1-0.7-0.2c-0.2-0.1-0.4-0.1-0.6-0.2C43.3,40.5,43,40.4,43.1,40.3
					L43.1,40.3z"/>
			</g>
			<g id="XMLID_20_">
				<radialGradient id="XMLID_169_" cx="45.0215" cy="35.6845" r="2.1183" gradientUnits="userSpaceOnUse">
					<stop  offset="2.970297e-02" style="stop-color:#F9C51B"/>
					<stop  offset="0.3639" style="stop-color:#F6C11D"/>
					<stop  offset="0.7112" style="stop-color:#ECB421"/>
					<stop  offset="1" style="stop-color:#DFA427"/>
					<stop  offset="1" style="stop-color:#DEA327"/>
				</radialGradient>
				<path id="XMLID_22_" class="st36" d="M42.2,34.7c0,0,0.4,0.1,0.9,0.2c0.3,0.1,0.6,0.1,0.9,0.2c0.3,0.1,0.7,0.2,1.1,0.2
					c0.4,0.1,0.7,0.1,1.1,0.2c0.3,0.1,0.6,0.3,0.9,0.4c0.2,0.1,0.4,0.3,0.6,0.4c0.1,0.1,0.2,0.2,0.2,0.2l0,0.1c0,0-0.1,0-0.3,0
					c-0.2,0-0.4,0-0.7,0c-0.3,0-0.6-0.1-0.9-0.2c-0.3-0.1-0.7-0.3-1-0.4c-0.3-0.1-0.7-0.3-1-0.4c-0.3-0.1-0.6-0.3-0.9-0.4
					C42.5,35,42.2,34.8,42.2,34.7L42.2,34.7z"/>
				<radialGradient id="XMLID_170_" cx="47.8832" cy="32.0122" r="1.3397" gradientUnits="userSpaceOnUse">
					<stop  offset="2.970297e-02" style="stop-color:#F9C51B"/>
					<stop  offset="0.3639" style="stop-color:#F6C11D"/>
					<stop  offset="0.7112" style="stop-color:#ECB421"/>
					<stop  offset="1" style="stop-color:#DFA427"/>
					<stop  offset="1" style="stop-color:#DEA327"/>
				</radialGradient>
				<path id="XMLID_21_" class="st37" d="M46.3,31.1c0,0,0.2,0.1,0.6,0.2c0.2,0,0.4,0.1,0.6,0.2c0.2,0.1,0.4,0.1,0.6,0.2
					c0.2,0.1,0.5,0.1,0.7,0.2c0.2,0.1,0.3,0.2,0.5,0.4c0.1,0.1,0.2,0.3,0.3,0.4c0.1,0.1,0.1,0.2,0.1,0.2l0,0.1c0,0-0.1,0-0.2,0
					c-0.1,0-0.3,0-0.5,0c-0.2,0-0.4-0.1-0.6-0.2c-0.2-0.1-0.4-0.3-0.6-0.4c-0.2-0.1-0.4-0.3-0.6-0.4c-0.2-0.1-0.3-0.3-0.5-0.4
					C46.4,31.3,46.2,31.2,46.3,31.1L46.3,31.1z"/>
			</g>
			<g id="XMLID_17_">
				<radialGradient id="XMLID_171_" cx="49.6393" cy="27.3623" r="2.1255" gradientUnits="userSpaceOnUse">
					<stop  offset="2.970297e-02" style="stop-color:#F9C51B"/>
					<stop  offset="0.3639" style="stop-color:#F6C11D"/>
					<stop  offset="0.7112" style="stop-color:#ECB421"/>
					<stop  offset="1" style="stop-color:#DFA427"/>
					<stop  offset="1" style="stop-color:#DEA327"/>
				</radialGradient>
				<path id="XMLID_19_" class="st38" d="M47.3,25.5c0,0,0.3,0.2,0.8,0.5c0.2,0.1,0.5,0.3,0.8,0.5c0.3,0.2,0.6,0.4,0.9,0.6
					c0.3,0.2,0.7,0.4,0.9,0.6c0.3,0.2,0.5,0.4,0.7,0.7c0.2,0.2,0.3,0.4,0.4,0.6C52,29,52,29.1,52,29.1L52,29.2c0,0-0.1,0-0.3-0.1
					c-0.2,0-0.4-0.1-0.7-0.2c-0.3-0.1-0.5-0.3-0.8-0.5c-0.3-0.2-0.5-0.5-0.8-0.7c-0.3-0.2-0.6-0.5-0.8-0.7c-0.3-0.2-0.5-0.5-0.7-0.7
					C47.5,25.9,47.2,25.6,47.3,25.5L47.3,25.5z"/>
				<radialGradient id="XMLID_172_" cx="53.549" cy="24.8353" r="1.3386" gradientUnits="userSpaceOnUse">
					<stop  offset="2.970297e-02" style="stop-color:#F9C51B"/>
					<stop  offset="0.3639" style="stop-color:#F6C11D"/>
					<stop  offset="0.7112" style="stop-color:#ECB421"/>
					<stop  offset="1" style="stop-color:#DFA427"/>
					<stop  offset="1" style="stop-color:#DEA327"/>
				</radialGradient>
				<path id="XMLID_18_" class="st39" d="M52.3,23.5c0,0,0.2,0.1,0.5,0.3c0.1,0.1,0.3,0.2,0.5,0.4c0.2,0.1,0.4,0.3,0.5,0.4
					c0.2,0.1,0.4,0.3,0.5,0.4c0.2,0.2,0.3,0.3,0.3,0.5c0.1,0.2,0.1,0.3,0.1,0.4c0,0.1,0,0.2,0,0.2l-0.1,0.1c0,0-0.1,0-0.2,0
					c-0.1,0-0.3-0.1-0.4-0.2c-0.2-0.1-0.3-0.2-0.5-0.4c-0.1-0.2-0.2-0.4-0.4-0.6c-0.1-0.2-0.3-0.4-0.4-0.6c-0.1-0.2-0.2-0.4-0.3-0.5
					C52.4,23.7,52.2,23.5,52.3,23.5L52.3,23.5z"/>
			</g>
			<g id="XMLID_14_">
				<radialGradient id="XMLID_173_" cx="56.7292" cy="21.0409" r="2.1243" gradientUnits="userSpaceOnUse">
					<stop  offset="2.970297e-02" style="stop-color:#F9C51B"/>
					<stop  offset="0.3639" style="stop-color:#F6C11D"/>
					<stop  offset="0.7112" style="stop-color:#ECB421"/>
					<stop  offset="1" style="stop-color:#DFA427"/>
					<stop  offset="1" style="stop-color:#DEA327"/>
				</radialGradient>
				<path id="XMLID_16_" class="st40" d="M55.1,18.6c0,0,0.3,0.3,0.6,0.7c0.2,0.2,0.4,0.5,0.6,0.7c0.2,0.3,0.5,0.6,0.7,0.9
					c0.2,0.3,0.5,0.6,0.7,0.8c0.2,0.3,0.3,0.6,0.4,0.8c0.1,0.3,0.2,0.5,0.2,0.7c0,0.2,0,0.3,0,0.3l-0.1,0.1c0,0-0.1,0-0.2-0.1
					c-0.1-0.1-0.3-0.3-0.5-0.4c-0.2-0.2-0.4-0.4-0.6-0.7c-0.2-0.3-0.3-0.6-0.5-1c-0.2-0.3-0.4-0.6-0.5-1c-0.2-0.3-0.3-0.6-0.4-0.8
					C55.2,18.9,55,18.6,55.1,18.6L55.1,18.6z"/>
				<radialGradient id="XMLID_174_" cx="61.2826" cy="19.9395" r="1.3403" gradientUnits="userSpaceOnUse">
					<stop  offset="2.970297e-02" style="stop-color:#F9C51B"/>
					<stop  offset="0.3639" style="stop-color:#F6C11D"/>
					<stop  offset="0.7112" style="stop-color:#ECB421"/>
					<stop  offset="1" style="stop-color:#DFA427"/>
					<stop  offset="1" style="stop-color:#DEA327"/>
				</radialGradient>
				<path id="XMLID_15_" class="st41" d="M60.5,18.2c0,0,0.1,0.2,0.3,0.5c0.1,0.1,0.2,0.3,0.3,0.5c0.1,0.2,0.2,0.4,0.4,0.6
					c0.1,0.2,0.3,0.4,0.4,0.6c0.1,0.2,0.1,0.4,0.1,0.6c0,0.2,0,0.3,0,0.5c0,0.1,0,0.2,0,0.2l-0.1,0c0,0-0.1,0-0.2-0.1
					c-0.1-0.1-0.2-0.2-0.4-0.3c-0.1-0.1-0.3-0.3-0.3-0.5c-0.1-0.2-0.1-0.4-0.2-0.7c-0.1-0.2-0.1-0.4-0.2-0.7
					c-0.1-0.2-0.1-0.4-0.1-0.6C60.5,18.5,60.4,18.3,60.5,18.2L60.5,18.2z"/>
			</g>
			<g id="XMLID_11_">
				<radialGradient id="XMLID_175_" cx="65.5431" cy="17.4014" r="2.118" gradientUnits="userSpaceOnUse">
					<stop  offset="2.970297e-02" style="stop-color:#F9C51B"/>
					<stop  offset="0.3639" style="stop-color:#F6C11D"/>
					<stop  offset="0.7112" style="stop-color:#ECB421"/>
					<stop  offset="1" style="stop-color:#DFA427"/>
					<stop  offset="1" style="stop-color:#DEA327"/>
				</radialGradient>
				<path id="XMLID_13_" class="st42" d="M64.8,14.5c0,0,0.1,0.3,0.3,0.9c0.1,0.3,0.2,0.6,0.3,0.9c0.1,0.3,0.2,0.7,0.4,1
					c0.1,0.4,0.3,0.7,0.4,1c0.1,0.3,0.1,0.7,0.1,0.9c0,0.3,0,0.5,0,0.7c0,0.2-0.1,0.3-0.1,0.3l-0.1,0c0,0-0.1-0.1-0.2-0.2
					c-0.1-0.1-0.2-0.3-0.4-0.6c-0.1-0.3-0.3-0.6-0.3-0.9c-0.1-0.3-0.1-0.7-0.2-1.1c-0.1-0.4-0.1-0.7-0.2-1.1
					c-0.1-0.3-0.1-0.7-0.1-0.9C64.8,14.9,64.7,14.5,64.8,14.5L64.8,14.5z"/>
				<radialGradient id="XMLID_176_" cx="70.2025" cy="17.848" r="1.3468" gradientUnits="userSpaceOnUse">
					<stop  offset="2.970297e-02" style="stop-color:#F9C51B"/>
					<stop  offset="0.3639" style="stop-color:#F6C11D"/>
					<stop  offset="0.7112" style="stop-color:#ECB421"/>
					<stop  offset="1" style="stop-color:#DFA427"/>
					<stop  offset="1" style="stop-color:#DEA327"/>
				</radialGradient>
				<path id="XMLID_12_" class="st43" d="M70,16c0,0,0.1,0.2,0.2,0.6c0,0.2,0.1,0.4,0.2,0.6c0.1,0.2,0.1,0.4,0.2,0.7
					c0,0.2,0.1,0.5,0.2,0.7c0,0.2,0,0.4-0.1,0.6c0,0.2-0.1,0.3-0.2,0.4c-0.1,0.1-0.1,0.2-0.1,0.2l-0.1,0c0,0-0.1-0.1-0.1-0.1
					c-0.1-0.1-0.2-0.2-0.2-0.4c-0.1-0.2-0.1-0.4-0.2-0.6c0-0.2,0-0.5,0-0.7c0-0.2,0-0.5,0-0.7c0-0.2,0-0.4,0-0.6
					C69.9,16.2,69.9,16,70,16L70,16z"/>
			</g>
		</g>
		<g>
			<g>
				<radialGradient id="SVGID_6_" cx="75.3707" cy="54.9283" r="60.9133" gradientUnits="userSpaceOnUse">
					<stop  offset="0" style="stop-color:#616161"/>
					<stop  offset="1" style="stop-color:#808080"/>
				</radialGradient>
				<path style="fill:url(#SVGID_6_);" d="M107.6,125.2c0.1,0,0.3-0.1,0.4-0.1c0.3-0.1,0.6-0.2,1-0.3c0.9-0.3,1.9-0.5,2.8-0.9
					c0,0,0.1,0,0.1,0c2.1-0.7,4.1-1.6,6.1-2.7c0.2-0.1,0.4-0.2,0.5-0.3c0.2-0.1,0.4-0.2,0.6-0.3c20.4-11.4,28.8-36.5,18.7-58.4
					c-8.8-19.1-26.7-26.1-41.8-26c-16.6,0.1-32.1,13.3-25,28.8c4.2-22.9,45-28.1,57.5-0.4c9.7,21.3-0.1,44.2-19.6,50.6
					C76.2,126,50.3,99.8,53.4,70.2c0,0,0,0,0,0l-0.6,2.5c-0.6,2.8-0.8,5.7-0.8,8.7c0,8.8,2.5,17,6.9,24c0,0.1,0.1,0.1,0.1,0.2
					c0.1,0.2,0.2,0.3,0.3,0.5c3.5,5.4,8,9.8,13.2,13.2c0.1,0.1,0.2,0.1,0.3,0.2c0.1,0.1,0.2,0.1,0.3,0.2c5.2,3.3,11.2,5.5,17.5,6.4
					c0.2,0,0.4,0.1,0.5,0.1c0.1,0,0.1,0,0.2,0c4.8,0.6,9.7,0.4,14.5-0.5c0,0,0.1,0,0.1,0C106.6,125.5,107.1,125.4,107.6,125.2z"/>
				<linearGradient id="SVGID_7_" gradientUnits="userSpaceOnUse" x1="52.7461" y1="82.0024" x2="138.1757" y2="82.0024">
					<stop  offset="0" style="stop-color:#474747"/>
					<stop  offset="1" style="stop-color:#808080"/>
				</linearGradient>
				<path style="opacity:0.34;fill:url(#SVGID_7_);" d="M59.7,103.9c0,0.1,0.1,0.1,0.1,0.2c0.1,0.1,0.2,0.3,0.3,0.4
					c3.3,4.9,7.5,9,12.3,12c0.1,0.1,0.2,0.1,0.3,0.2c0.1,0.1,0.2,0.1,0.3,0.2c4.9,3,10.4,5,16.4,5.8c0.2,0,0.3,0,0.5,0.1
					c0.1,0,0.1,0,0.2,0c4.4,0.5,9,0.4,13.5-0.5c0,0,0.1,0,0.1,0c0.5-0.1,1-0.2,1.5-0.3c0.1,0,0.3-0.1,0.4-0.1
					c0.3-0.1,0.6-0.2,0.9-0.2c0.9-0.2,1.7-0.5,2.6-0.8c0,0,0.1,0,0.1,0c2-0.7,3.9-1.5,5.7-2.4c0.2-0.1,0.3-0.2,0.5-0.3
					c0.2-0.1,0.4-0.2,0.5-0.3c19-10.4,27.8-33.9,18.4-53.8c-8.2-17.4-24.9-24.3-39.9-23C81,42.2,72.6,49.7,69.3,56.7
					c-0.1,2.7,0.4,5.6,1.7,8.5c4.2-22.9,45-28.1,57.5-0.4c9.7,21.3-0.1,44.2-19.6,50.6C76.2,126,50.3,99.8,53.4,70.2
					C51.1,84.6,55.7,97.6,59.7,103.9z"/>
				<linearGradient id="SVGID_8_" gradientUnits="userSpaceOnUse" x1="60.8343" y1="56.7503" x2="78.197" y2="51.2528">
					<stop  offset="5.008000e-04" style="stop-color:#5F5F5F"/>
					<stop  offset="1" style="stop-color:#898989;stop-opacity:0.2"/>
				</linearGradient>
				<path style="opacity:0.67;fill:url(#SVGID_8_);" d="M74,57.7C72.7,47.1,82.5,40,86.6,37.9C74.6,41.2,65.2,55,71.2,64.2
					C71.5,62.3,72.8,59.4,74,57.7z"/>
				<g class="st48">
					<linearGradient id="SVGID_9_" gradientUnits="userSpaceOnUse" x1="86.4516" y1="41.9924" x2="105.6889" y2="122.3767">
						<stop  offset="0" style="stop-color:#474747"/>
						<stop  offset="1" style="stop-color:#808080"/>
					</linearGradient>
					<path style="fill:url(#SVGID_9_);" d="M53.4,70.2c-1.5,10.1,0.1,20.6,4.5,29.8c4.4,9.1,12.6,16.3,22,19.9
						c9.4,3.6,20.2,3.8,29.7,0.4c4.8-1.7,9.2-4.3,13.1-7.5c3.9-3.2,7.1-7.2,9.6-11.6c5-8.7,6.8-19.4,4.4-29.2
						c-2.4-9.8-8.4-18.8-16.9-24.3c-8.5-5.6-19.1-7.6-29.1-5.9c-5,0.9-9.8,2.9-13.9,6c-4,3.1-7.3,7.3-8.7,12.2
						c1.3-5,4.6-9.2,8.6-12.4c4-3.2,8.9-5.2,13.9-6.2c10.1-2,20.9,0.1,29.6,5.7c8.7,5.6,14.9,14.7,17.4,24.7
						c2.5,10.1,0.7,21-4.4,29.9c-2.5,4.5-5.9,8.5-9.9,11.8c-4,3.3-8.5,5.9-13.4,7.6c-9.7,3.5-20.7,3.3-30.3-0.5
						c-9.6-3.8-17.8-11.1-22.2-20.4C53.1,90.8,51.7,80.3,53.4,70.2z"/>
				</g>
			</g>
			<linearGradient id="SVGID_10_" gradientUnits="userSpaceOnUse" x1="126.5772" y1="49.5566" x2="76.0261" y2="28.7725">
				<stop  offset="5.008000e-04" style="stop-color:#5F5F5F"/>
				<stop  offset="1" style="stop-color:#898989"/>
			</linearGradient>
			<path class="st51" d="M93.9,36.5c0.5,0,0.9-0.1,1.4-0.1C94.8,36.4,94.4,36.4,93.9,36.5z"/>
			<linearGradient id="SVGID_11_" gradientUnits="userSpaceOnUse" x1="95.1073" y1="36.9005" x2="92.9945" y2="36.0318">
				<stop  offset="5.008000e-04" style="stop-color:#5F5F5F"/>
				<stop  offset="1" style="stop-color:#898989"/>
			</linearGradient>
			<path class="st52" d="M92.8,36.6c0.8-0.1,1.7-0.1,2.5-0.2C94.4,36.4,93.6,36.5,92.8,36.6z"/>
			<g>
				<linearGradient id="SVGID_12_" gradientUnits="userSpaceOnUse" x1="116.5568" y1="73.8764" x2="64.9133" y2="52.6432">
					<stop  offset="5.008000e-04" style="stop-color:#5F5F5F"/>
					<stop  offset="1" style="stop-color:#898989"/>
				</linearGradient>
				<path class="st53" d="M116.3,76.9c-8,16.6-32.9,15.1-43.2,6.9c-17.1-13.6-8.7-46.3,22.2-47.5c-24.4,0.7-32.7,28.5-16,38.4
					c11.6,6.9,28.1,2.3,24.9-9l0.1-2.9l11,2.4C119.6,68.7,117.8,72.9,116.3,76.9z"/>
				<linearGradient id="SVGID_13_" gradientUnits="userSpaceOnUse" x1="101.5872" y1="50.9755" x2="73.1881" y2="78.5065">
					<stop  offset="5.008000e-04" style="stop-color:#5F5F5F"/>
					<stop  offset="1" style="stop-color:#898989"/>
				</linearGradient>
				<path class="st54" d="M104.2,65.8c3.2,11.3-13.3,15.9-24.9,9C63.5,65.5,70.1,40,91.5,36.7c0,0,0,0,0,0c-3.1,0.4-5.9,1.1-8.5,2.2
					c-2.7,1.2-5.7,3.2-8.8,6.3c-9,11.8-8.3,25.7,2.6,34.2c11.3,8.8,39.5,3,34.1-15.1l-6.5-1.4L104.2,65.8z"/>
				<linearGradient id="SVGID_14_" gradientUnits="userSpaceOnUse" x1="78.3098" y1="81.2023" x2="92.5407" y2="84.7261">
					<stop  offset="5.008000e-04" style="stop-color:#5F5F5F"/>
					<stop  offset="0.999" style="stop-color:#898989;stop-opacity:0"/>
				</linearGradient>
				<path class="st55" d="M79.9,76c-1.3,2.8-1.3,3.8-1.5,7c-0.1,0.8-0.1,1.7,0,2.5c3,2,6.4,3.9,11.9,4.3c-1.7-3.6-2.1-9.8-0.6-11.8
					C86.9,77.8,80.3,76.2,79.9,76z"/>
				<g class="st56">
					<linearGradient id="SVGID_15_" gradientUnits="userSpaceOnUse" x1="109.6086" y1="76.9356" x2="66.5939" y2="59.2501">
						<stop  offset="5.008000e-04" style="stop-color:#5F5F5F"/>
						<stop  offset="1" style="stop-color:#898989"/>
					</linearGradient>
					<path class="st57" d="M74.1,45.2c-2.1,2.9-3.8,6.2-4.8,9.6c-1,3.4-1.4,7.1-0.8,10.6c0.6,3.5,2.1,6.8,4.3,9.6
						c2.2,2.7,5,5.1,8.3,6.3c3.3,1.3,6.9,1.7,10.5,1.6c3.6-0.1,7.1-0.9,10.4-2.2c3.2-1.4,6.3-3.6,7.9-6.8c0.8-1.6,1.3-3.3,1.3-5.1
						c0.1-1.8-0.3-3.6-0.8-5.3c1.3,3.3,1.6,7.3-0.1,10.7c-1.6,3.4-4.7,5.7-8.1,7.3c-3.3,1.5-7,2.3-10.7,2.4
						c-3.7,0.1-7.4-0.3-10.9-1.6c-1.7-0.7-3.4-1.6-4.8-2.8c-1.4-1.2-2.7-2.5-3.9-3.9c-2.3-2.9-3.8-6.4-4.3-10
						c-0.5-3.6-0.1-7.4,1-10.8C70,51.2,71.9,48,74.1,45.2z"/>
				</g>
				<linearGradient id="SVGID_16_" gradientUnits="userSpaceOnUse" x1="111.6842" y1="59.8097" x2="110.6193" y2="73.547">
					<stop  offset="5.008000e-04" style="stop-color:#5F5F5F"/>
					<stop  offset="0.999" style="stop-color:#898989;stop-opacity:0"/>
				</linearGradient>
				<path class="st58" d="M104.5,69.7c3.3-1.1,8.1,0.4,10.4,3.2c0.9,1.1,1.4,2.4,1.5,3.7c1.4-4,3.1-7.9-1.2-11.3l-11-2.4l-0.1,2.9
					C104.7,67.5,104.7,68.6,104.5,69.7z"/>
			</g>
			<path class="st59" d="M93.9,36.5c0.5,0,0.9-0.1,1.4-0.1C94.8,36.4,94.4,36.4,93.9,36.5z"/>
			<g>
				<linearGradient id="SVGID_17_" gradientUnits="userSpaceOnUse" x1="121.5439" y1="104.8044" x2="72.8195" y2="54.7764">
					<stop  offset="0" style="stop-color:#686868"/>
					<stop  offset="0.998" style="stop-color:#868686"/>
				</linearGradient>
				<path class="st60" d="M116.3,76.9c5.5-9.8-1.8-27.1-21.9-23.7c-22,3.8-30.7,33.8-11.8,49.5c14.5,12.1,41.5,2.8,38.8-18
					c-6.4,16.1-33.5,17.8-35.2-1.8C84.2,60.8,120.9,62,116.3,76.9z"/>
				<radialGradient id="SVGID_18_" cx="112.5693" cy="64.359" r="26.2114" gradientUnits="userSpaceOnUse">
					<stop  offset="2.043270e-03" style="stop-color:#868686"/>
					<stop  offset="1" style="stop-color:#868686;stop-opacity:0"/>
				</radialGradient>
				<path class="st61" d="M116.3,76.9c5.5-9.8-1.8-27.1-21.9-23.7c-22,3.8-30.7,33.8-11.8,49.5c14.5,12.1,41.5,2.8,38.8-18
					c-6.4,16.1-33.5,17.8-35.2-1.8C84.2,60.8,120.9,62,116.3,76.9z"/>
				<linearGradient id="SVGID_19_" gradientUnits="userSpaceOnUse" x1="106.5072" y1="103.0657" x2="94.8118" y2="62.8281">
					<stop  offset="0" style="stop-color:#686868"/>
					<stop  offset="1" style="stop-color:#868686"/>
				</linearGradient>
				<path class="st62" d="M121.5,86.4c0-0.5,0-1.1-0.1-1.6c-6.4,16.1-33.5,17.8-35.2-1.8c-2-22.2,34.7-21,30.2-6.1
					c1.5-2.6,2.1-6.1,1.6-9.5c-1.7-5.9-7.7-10-19.4-8.2c-18.7,2.8-26.8,27.7-10,39.2C102.1,107.7,121,100.5,121.5,86.4z"/>
				<g class="st63">
					<linearGradient id="SVGID_20_" gradientUnits="userSpaceOnUse" x1="106.1935" y1="102.8423" x2="93.7018" y2="59.8648">
						<stop  offset="0" style="stop-color:#686868"/>
						<stop  offset="1" style="stop-color:#868686"/>
					</linearGradient>
					<path class="st64" d="M117.9,67.4c-0.7-2.3-2.2-4.4-4.2-5.8c-2-1.4-4.4-2.1-6.8-2.4c-2.4-0.3-4.9-0.2-7.3,0.1
						c-2.4,0.3-4.8,0.9-6.9,2c-4.4,2-8,5.5-10.3,9.8c-2.3,4.2-3.2,9.2-2.3,13.9c0.8,4.7,3.5,9.1,7.3,12c3.8,3,8.4,4.8,13.3,5.1
						c4.8,0.3,9.8-0.8,13.8-3.6c2-1.4,3.7-3.1,5-5.2c1.2-2.1,1.9-4.5,2.1-6.9c0,1.2-0.2,2.5-0.5,3.6c-0.3,1.2-0.8,2.3-1.4,3.4
						c-1.2,2.2-2.9,4-4.9,5.5c-4.1,2.9-9.1,4.2-14.1,3.9c-5-0.2-9.9-2.1-13.8-5.2c-4-3-6.8-7.6-7.7-12.5c-0.9-5,0.1-10.1,2.5-14.5
						c2.4-4.4,6.2-8,10.7-10c2.3-1,4.7-1.6,7.2-1.9c2.5-0.3,4.9-0.3,7.4,0c2.4,0.4,4.9,1.2,6.9,2.7
						C115.9,62.9,117.3,65.1,117.9,67.4z"/>
				</g>
			</g>
		</g>
		<g>
			<linearGradient id="SVGID_21_" gradientUnits="userSpaceOnUse" x1="215.8547" y1="36.5272" x2="196.5102" y2="3.0215">
				<stop  offset="0" style="stop-color:#000000"/>
				<stop  offset="1" style="stop-color:#808080"/>
			</linearGradient>
			<path class="st65" d="M230,19.4c0.6-0.4,1.2-0.7,1.8-1c1.1-0.6,2.3-1.3,3.5-1.9c-0.3-0.2-0.6-0.3-0.8-0.5
				c-9.9-5.3-19.7-10.5-29.6-15.8c-0.5-0.3-0.8-0.3-1.3,0c-9.4,5.1-18.8,10.1-28.3,15.1c-0.7,0.4-1.3,0.7-2.1,1.1
				c0.3,0.2,0.5,0.3,0.7,0.4c3.7,2.2,7.5,4.3,11.2,6.5c0.2,0.1,0.5,0.3,0.5,0.5c0,1.5,0.1,3,0,4.4c0,0.6,0.1,1,0.6,1.3
				c0.4,0.3,0.9,0.6,1.4,0.7c1.3,0.4,2.6,0.8,3.9,1.1c4.9,0.9,9.8,1.1,14.7,1c4.6-0.1,9.1-0.4,13.6-1.6c1-0.3,1.9-0.8,2.8-1.2
				c0.3-0.2,0.5-0.6,0.6-1c0-1.5-0.1-3.1,0-4.6c0-0.2,0.2-0.5,0.4-0.6c1.5-1,3-1.9,4.5-2.8c0.1-0.1,0.2-0.1,0.4-0.2
				c0,0.1,0.1,0.2,0.1,0.2c0,1.5,0,3.1,0,4.6c0,0.2-0.2,0.4-0.3,0.5c-0.8,0.7-0.9,1.7-0.2,2.5c0.6,0.7,1.7,0.6,2.3,0
				c0.7-0.7,0.6-1.7-0.2-2.4c-0.2-0.1-0.3-0.4-0.3-0.6c0-1.7,0-3.4,0-5.1C229.6,19.8,229.8,19.6,230,19.4z M220,29.5
				c-1.3,0.4-2.7,0.7-4,0.9c-7.8,1-15.6,1-23.4,0c-1.3-0.2-2.7-0.5-4-0.9c-0.4-0.1-0.7-0.5-1-0.8c0.3-0.3,0.6-0.7,1-0.8
				c1.5-0.4,3-0.8,4.6-0.9c3.7-0.3,7.4-0.5,9.4-0.7c6.1,0.1,10.5,0.2,14.9,1c0.8,0.2,1.7,0.4,2.5,0.7c0.3,0.1,0.6,0.5,0.9,0.8
				C220.6,29,220.4,29.4,220,29.5z M222.5,20c-0.6-0.4-1.2-0.9-1.8-1.3c-2.7-1.6-5.6-2.4-8.6-2.8c-4.6-0.7-9.1-0.7-13.7-0.2
				c-3.1,0.3-6.2,0.9-9,2.3c-1.1,0.6-2.2,1.3-3.2,1.9c-0.1-0.5-0.1-1,0.4-1.5c1.7-1.6,3.8-2.6,6-3.3c4-1.3,8.1-1.6,12.2-1.6
				c3.4,0,6.8,0.3,10.1,1.2c2.5,0.7,4.8,1.6,6.8,3.3C222.3,18.5,222.8,19.1,222.5,20z"/>
			<linearGradient id="SVGID_22_" gradientUnits="userSpaceOnUse" x1="230.357" y1="36.4016" x2="226.5838" y2="29.8662">
				<stop  offset="0" style="stop-color:#000000"/>
				<stop  offset="1" style="stop-color:#808080"/>
			</linearGradient>
			<path style="fill:url(#SVGID_22_);" d="M230.5,36.3c-0.8-0.3-1.4-0.2-2,0.3c-0.5,0.4-1,0.9-1.5,1.4c0.2-2.9,0.4-5.8,0.6-8.7
				c1,0,1.9,0,2.9,0C230.5,31.5,230.5,33.9,230.5,36.3z"/>
		</g>
		<linearGradient id="SVGID_23_" gradientUnits="userSpaceOnUse" x1="215.8613" y1="128.8863" x2="168.1165" y2="46.1901">
			<stop  offset="0" style="stop-color:#000000"/>
			<stop  offset="1" style="stop-color:#808080"/>
		</linearGradient>
		<path style="fill:url(#SVGID_23_);" d="M249.4,63.5v33.9c0,1-0.8,1.8-1.8,1.8h-24.5v24.5c0,1-0.8,1.8-1.8,1.8h-33.9
			c-1,0-1.8-0.8-1.8-1.8l0-28.4l0-3.8l0-9.7l-5.1,9.7l-1.5,2.8l-8.5,16c-0.3,0.8-1.2,1.2-2,1.1c-0.8-0.1-1.5-0.7-1.7-1.6l-3.4-12.2
			l-1.8-6.2l-2.9-10.3l-1.9-6.9l-2.4-8.4l-5.5,21.3c-0.2,0.8-1,1.4-1.9,1.4h-26l0.3-3.8c0,0,0,0,0,0l0-0.1h24.1l7.4-28.4
			c0.2-0.9,1-1.4,1.9-1.4c0,0,0.1,0,0.1,0c0.9,0,1.7,0.7,1.8,1.6l3.3,11.9l6.4,23l3.2,11.5l6-11.5l10.3-19.7
			c0.4-0.8,1.3-1.3,2.2-1.1c0.9,0.2,1.5,1,1.5,1.9v49.2h30V97.4c0-1,0.8-1.8,1.8-1.8h24.5V65.3h-24.5c-1,0-1.8-0.8-1.8-1.8V39h-30.2
			v24.5c0,0.7-0.4,1.3-1,1.6c-0.2,0.1-0.5,0.2-0.8,0.2H168c-0.9,0-1.7-0.8-1.7-1.7c0-0.9,0.8-1.7,1.7-1.7h17.6V37.2
			c0-1,0.8-1.8,1.8-1.8h33.9c1,0,1.8,0.8,1.8,1.8v24.5h24.5C248.6,61.6,249.4,62.5,249.4,63.5z"/>
		<g>
			<g>
				<radialGradient id="SVGID_24_" cx="75.3707" cy="54.9283" r="60.9133" gradientUnits="userSpaceOnUse">
					<stop  offset="0" style="stop-color:#616161"/>
					<stop  offset="1" style="stop-color:#808080"/>
				</radialGradient>
				<path class="st68" d="M107.6,125.2c0.1,0,0.3-0.1,0.4-0.1c0.3-0.1,0.6-0.2,1-0.3c0.9-0.3,1.9-0.5,2.8-0.9c0,0,0.1,0,0.1,0
					c2.1-0.7,4.1-1.6,6.1-2.7c0.2-0.1,0.4-0.2,0.5-0.3c0.2-0.1,0.4-0.2,0.6-0.3c20.4-11.4,28.8-36.5,18.7-58.4
					c-8.8-19.1-26.7-26.1-41.8-26c-16.6,0.1-32.1,13.3-25,28.8c4.2-22.9,45-28.1,57.5-0.4c9.7,21.3-0.1,44.2-19.6,50.6
					C76.2,126,50.3,99.8,53.4,70.2c0,0,0,0,0,0l-0.6,2.5c-0.6,2.8-0.8,5.7-0.8,8.7c0,8.8,2.5,17,6.9,24c0,0.1,0.1,0.1,0.1,0.2
					c0.1,0.2,0.2,0.3,0.3,0.5c3.5,5.4,8,9.8,13.2,13.2c0.1,0.1,0.2,0.1,0.3,0.2c0.1,0.1,0.2,0.1,0.3,0.2c5.2,3.3,11.2,5.5,17.5,6.4
					c0.2,0,0.4,0.1,0.5,0.1c0.1,0,0.1,0,0.2,0c4.8,0.6,9.7,0.4,14.5-0.5c0,0,0.1,0,0.1,0C106.6,125.5,107.1,125.4,107.6,125.2z"/>
				<linearGradient id="SVGID_25_" gradientUnits="userSpaceOnUse" x1="52.7461" y1="82.0024" x2="138.1757" y2="82.0024">
					<stop  offset="0" style="stop-color:#474747"/>
					<stop  offset="1" style="stop-color:#808080"/>
				</linearGradient>
				<path style="opacity:0.34;fill:url(#SVGID_25_);" d="M59.7,103.9c0,0.1,0.1,0.1,0.1,0.2c0.1,0.1,0.2,0.3,0.3,0.4
					c3.3,4.9,7.5,9,12.3,12c0.1,0.1,0.2,0.1,0.3,0.2c0.1,0.1,0.2,0.1,0.3,0.2c4.9,3,10.4,5,16.4,5.8c0.2,0,0.3,0,0.5,0.1
					c0.1,0,0.1,0,0.2,0c4.4,0.5,9,0.4,13.5-0.5c0,0,0.1,0,0.1,0c0.5-0.1,1-0.2,1.5-0.3c0.1,0,0.3-0.1,0.4-0.1
					c0.3-0.1,0.6-0.2,0.9-0.2c0.9-0.2,1.7-0.5,2.6-0.8c0,0,0.1,0,0.1,0c2-0.7,3.9-1.5,5.7-2.4c0.2-0.1,0.3-0.2,0.5-0.3
					c0.2-0.1,0.4-0.2,0.5-0.3c19-10.4,27.8-33.9,18.4-53.8c-8.2-17.4-24.9-24.3-39.9-23C81,42.2,72.6,49.7,69.3,56.7
					c-0.1,2.7,0.4,5.6,1.7,8.5c4.2-22.9,45-28.1,57.5-0.4c9.7,21.3-0.1,44.2-19.6,50.6C76.2,126,50.3,99.8,53.4,70.2
					C51.1,84.6,55.7,97.6,59.7,103.9z"/>
				<linearGradient id="SVGID_26_" gradientUnits="userSpaceOnUse" x1="60.8343" y1="56.7503" x2="78.197" y2="51.2528">
					<stop  offset="5.008000e-04" style="stop-color:#5F5F5F"/>
					<stop  offset="1" style="stop-color:#898989;stop-opacity:0.2"/>
				</linearGradient>
				<path style="opacity:0.67;fill:url(#SVGID_26_);" d="M74,57.7C72.7,47.1,82.5,40,86.6,37.9C74.6,41.2,65.2,55,71.2,64.2
					C71.5,62.3,72.8,59.4,74,57.7z"/>
				<g class="st48">
					<linearGradient id="SVGID_27_" gradientUnits="userSpaceOnUse" x1="86.4516" y1="41.9924" x2="105.6889" y2="122.3767">
						<stop  offset="0" style="stop-color:#474747"/>
						<stop  offset="1" style="stop-color:#808080"/>
					</linearGradient>
					<path class="st71" d="M53.4,70.2c-1.5,10.1,0.1,20.6,4.5,29.8c4.4,9.1,12.6,16.3,22,19.9c9.4,3.6,20.2,3.8,29.7,0.4
						c4.8-1.7,9.2-4.3,13.1-7.5c3.9-3.2,7.1-7.2,9.6-11.6c5-8.7,6.8-19.4,4.4-29.2c-2.4-9.8-8.4-18.8-16.9-24.3
						c-8.5-5.6-19.1-7.6-29.1-5.9c-5,0.9-9.8,2.9-13.9,6c-4,3.1-7.3,7.3-8.7,12.2c1.3-5,4.6-9.2,8.6-12.4c4-3.2,8.9-5.2,13.9-6.2
						c10.1-2,20.9,0.1,29.6,5.7c8.7,5.6,14.9,14.7,17.4,24.7c2.5,10.1,0.7,21-4.4,29.9c-2.5,4.5-5.9,8.5-9.9,11.8
						c-4,3.3-8.5,5.9-13.4,7.6c-9.7,3.5-20.7,3.3-30.3-0.5c-9.6-3.8-17.8-11.1-22.2-20.4C53.1,90.8,51.7,80.3,53.4,70.2z"/>
				</g>
			</g>
			<linearGradient id="SVGID_28_" gradientUnits="userSpaceOnUse" x1="126.5772" y1="49.5566" x2="76.0261" y2="28.7725">
				<stop  offset="5.008000e-04" style="stop-color:#5F5F5F"/>
				<stop  offset="1" style="stop-color:#898989"/>
			</linearGradient>
			<path class="st72" d="M93.9,36.5c0.5,0,0.9-0.1,1.4-0.1C94.8,36.4,94.4,36.4,93.9,36.5z"/>
			<linearGradient id="SVGID_29_" gradientUnits="userSpaceOnUse" x1="95.1073" y1="36.9005" x2="92.9945" y2="36.0318">
				<stop  offset="5.008000e-04" style="stop-color:#5F5F5F"/>
				<stop  offset="1" style="stop-color:#898989"/>
			</linearGradient>
			<path style="fill:url(#SVGID_29_);" d="M92.8,36.6c0.8-0.1,1.7-0.1,2.5-0.2C94.4,36.4,93.6,36.5,92.8,36.6z"/>
			<g>
				<linearGradient id="SVGID_30_" gradientUnits="userSpaceOnUse" x1="116.5568" y1="73.8764" x2="64.9133" y2="52.6432">
					<stop  offset="5.008000e-04" style="stop-color:#5F5F5F"/>
					<stop  offset="1" style="stop-color:#898989"/>
				</linearGradient>
				<path class="st74" d="M116.3,76.9c-8,16.6-32.9,15.1-43.2,6.9c-17.1-13.6-8.7-46.3,22.2-47.5c-24.4,0.7-32.7,28.5-16,38.4
					c11.6,6.9,28.1,2.3,24.9-9l0.1-2.9l11,2.4C119.6,68.7,117.8,72.9,116.3,76.9z"/>
				<linearGradient id="SVGID_31_" gradientUnits="userSpaceOnUse" x1="101.5872" y1="50.9755" x2="73.1881" y2="78.5065">
					<stop  offset="5.008000e-04" style="stop-color:#5F5F5F"/>
					<stop  offset="1" style="stop-color:#898989"/>
				</linearGradient>
				<path style="opacity:0.21;fill:url(#SVGID_31_);" d="M104.2,65.8c3.2,11.3-13.3,15.9-24.9,9C63.5,65.5,70.1,40,91.5,36.7
					c0,0,0,0,0,0c-3.1,0.4-5.9,1.1-8.5,2.2c-2.7,1.2-5.7,3.2-8.8,6.3c-9,11.8-8.3,25.7,2.6,34.2c11.3,8.8,39.5,3,34.1-15.1l-6.5-1.4
					L104.2,65.8z"/>
				<linearGradient id="SVGID_32_" gradientUnits="userSpaceOnUse" x1="78.3098" y1="81.2023" x2="92.5407" y2="84.7261">
					<stop  offset="5.008000e-04" style="stop-color:#5F5F5F"/>
					<stop  offset="0.999" style="stop-color:#898989;stop-opacity:0"/>
				</linearGradient>
				<path class="st76" d="M79.9,76c-1.3,2.8-1.3,3.8-1.5,7c-0.1,0.8-0.1,1.7,0,2.5c3,2,6.4,3.9,11.9,4.3c-1.7-3.6-2.1-9.8-0.6-11.8
					C86.9,77.8,80.3,76.2,79.9,76z"/>
				<g class="st56">
					<linearGradient id="SVGID_33_" gradientUnits="userSpaceOnUse" x1="109.6086" y1="76.9356" x2="66.5939" y2="59.2501">
						<stop  offset="5.008000e-04" style="stop-color:#5F5F5F"/>
						<stop  offset="1" style="stop-color:#898989"/>
					</linearGradient>
					<path class="st77" d="M74.1,45.2c-2.1,2.9-3.8,6.2-4.8,9.6c-1,3.4-1.4,7.1-0.8,10.6c0.6,3.5,2.1,6.8,4.3,9.6
						c2.2,2.7,5,5.1,8.3,6.3c3.3,1.3,6.9,1.7,10.5,1.6c3.6-0.1,7.1-0.9,10.4-2.2c3.2-1.4,6.3-3.6,7.9-6.8c0.8-1.6,1.3-3.3,1.3-5.1
						c0.1-1.8-0.3-3.6-0.8-5.3c1.3,3.3,1.6,7.3-0.1,10.7c-1.6,3.4-4.7,5.7-8.1,7.3c-3.3,1.5-7,2.3-10.7,2.4
						c-3.7,0.1-7.4-0.3-10.9-1.6c-1.7-0.7-3.4-1.6-4.8-2.8c-1.4-1.2-2.7-2.5-3.9-3.9c-2.3-2.9-3.8-6.4-4.3-10
						c-0.5-3.6-0.1-7.4,1-10.8C70,51.2,71.9,48,74.1,45.2z"/>
				</g>
				<linearGradient id="SVGID_34_" gradientUnits="userSpaceOnUse" x1="111.6842" y1="59.8097" x2="110.6193" y2="73.547">
					<stop  offset="5.008000e-04" style="stop-color:#5F5F5F"/>
					<stop  offset="0.999" style="stop-color:#898989;stop-opacity:0"/>
				</linearGradient>
				<path class="st78" d="M104.5,69.7c3.3-1.1,8.1,0.4,10.4,3.2c0.9,1.1,1.4,2.4,1.5,3.7c1.4-4,3.1-7.9-1.2-11.3l-11-2.4l-0.1,2.9
					C104.7,67.5,104.7,68.6,104.5,69.7z"/>
			</g>
			<path class="st59" d="M93.9,36.5c0.5,0,0.9-0.1,1.4-0.1C94.8,36.4,94.4,36.4,93.9,36.5z"/>
			<g>
				<linearGradient id="SVGID_35_" gradientUnits="userSpaceOnUse" x1="121.5439" y1="104.8044" x2="72.8195" y2="54.7764">
					<stop  offset="0" style="stop-color:#686868"/>
					<stop  offset="0.998" style="stop-color:#868686"/>
				</linearGradient>
				<path style="fill:url(#SVGID_35_);" d="M116.3,76.9c5.5-9.8-1.8-27.1-21.9-23.7c-22,3.8-30.7,33.8-11.8,49.5
					c14.5,12.1,41.5,2.8,38.8-18c-6.4,16.1-33.5,17.8-35.2-1.8C84.2,60.8,120.9,62,116.3,76.9z"/>
				<radialGradient id="SVGID_36_" cx="112.5693" cy="64.359" r="26.2114" gradientUnits="userSpaceOnUse">
					<stop  offset="2.043270e-03" style="stop-color:#868686"/>
					<stop  offset="1" style="stop-color:#868686;stop-opacity:0"/>
				</radialGradient>
				<path class="st80" d="M116.3,76.9c5.5-9.8-1.8-27.1-21.9-23.7c-22,3.8-30.7,33.8-11.8,49.5c14.5,12.1,41.5,2.8,38.8-18
					c-6.4,16.1-33.5,17.8-35.2-1.8C84.2,60.8,120.9,62,116.3,76.9z"/>
				<linearGradient id="SVGID_37_" gradientUnits="userSpaceOnUse" x1="106.5072" y1="103.0657" x2="94.8118" y2="62.8281">
					<stop  offset="0" style="stop-color:#686868"/>
					<stop  offset="1" style="stop-color:#868686"/>
				</linearGradient>
				<path style="opacity:0.33;fill:url(#SVGID_37_);" d="M121.5,86.4c0-0.5,0-1.1-0.1-1.6c-6.4,16.1-33.5,17.8-35.2-1.8
					c-2-22.2,34.7-21,30.2-6.1c1.5-2.6,2.1-6.1,1.6-9.5c-1.7-5.9-7.7-10-19.4-8.2c-18.7,2.8-26.8,27.7-10,39.2
					C102.1,107.7,121,100.5,121.5,86.4z"/>
				<g class="st63">
					<linearGradient id="SVGID_38_" gradientUnits="userSpaceOnUse" x1="106.1935" y1="102.8423" x2="93.7018" y2="59.8648">
						<stop  offset="0" style="stop-color:#686868"/>
						<stop  offset="1" style="stop-color:#868686"/>
					</linearGradient>
					<path style="fill:url(#SVGID_38_);" d="M117.9,67.4c-0.7-2.3-2.2-4.4-4.2-5.8c-2-1.4-4.4-2.1-6.8-2.4c-2.4-0.3-4.9-0.2-7.3,0.1
						c-2.4,0.3-4.8,0.9-6.9,2c-4.4,2-8,5.5-10.3,9.8c-2.3,4.2-3.2,9.2-2.3,13.9c0.8,4.7,3.5,9.1,7.3,12c3.8,3,8.4,4.8,13.3,5.1
						c4.8,0.3,9.8-0.8,13.8-3.6c2-1.4,3.7-3.1,5-5.2c1.2-2.1,1.9-4.5,2.1-6.9c0,1.2-0.2,2.5-0.5,3.6c-0.3,1.2-0.8,2.3-1.4,3.4
						c-1.2,2.2-2.9,4-4.9,5.5c-4.1,2.9-9.1,4.2-14.1,3.9c-5-0.2-9.9-2.1-13.8-5.2c-4-3-6.8-7.6-7.7-12.5c-0.9-5,0.1-10.1,2.5-14.5
						c2.4-4.4,6.2-8,10.7-10c2.3-1,4.7-1.6,7.2-1.9c2.5-0.3,4.9-0.3,7.4,0c2.4,0.4,4.9,1.2,6.9,2.7
						C115.9,62.9,117.3,65.1,117.9,67.4z"/>
				</g>
			</g>
		</g>
	</g>
	<g>
		<g>
			<g>
				<g>
					<path class="st59" d="M14.9,160.5v-27.6h13.3v5.5h-7.4v5.4h6.8v5.1h-6.8v6h7.8v5.6H14.9z"/>
					<path class="st59" d="M44.1,160.5l-3.8-9.1l-3.8,9.1H30l6.8-14.5l-6.2-13.1H37l3.4,8.4l3.4-8.4h6.4L44,146l6.9,14.5H44.1z"/>
					<path class="st59" d="M62,161.2c-6.4,0-10.7-6-10.7-14.5c0-8.7,4.3-14.5,10.7-14.5c3.7,0,6.1,1.5,7.6,3.5l-3.4,4.5
						c-0.9-1.2-2-2-3.8-2c-3.3,0-5,3.7-5,8.6c0,4.8,1.7,8.6,5,8.6c1.7,0,2.9-1,3.7-2.1l3.5,4.3C68.1,159.6,65.8,161.2,62,161.2z"/>
					<path class="st59" d="M72.4,160.5v-27.6h13.3v5.5h-7.4v5.4h6.8v5.1h-6.8v6h7.8v5.6H72.4z"/>
					<path class="st59" d="M89.9,160.5v-27.6h6.3v21.8h7.4v5.8H89.9z"/>
					<path class="st59" d="M113.2,160.5v-27.6h13.3v5.5h-7.4v5.4h6.8v5.1h-6.8v6h7.8v5.6H113.2z"/>
					<path class="st59" d="M138.4,160.5h-7.8v-27.6h7.8c7.9,0,11.5,5.4,11.5,13.9C149.9,155.1,146.3,160.5,138.4,160.5z
						 M138.5,138.3H137V155h1.5c3,0,5.1-2.9,5.1-8.3C143.6,141.2,141.5,138.3,138.5,138.3z"/>
					<path class="st59" d="M162.4,161.2c-6.7,0-9.2-4.8-9.2-11v-17.4h6.3v16.8c0,3.1,0.6,5.5,3.1,5.5c2.5,0,3.1-2.4,3.1-5.5v-16.8
						h6.2v17.4C171.9,156.4,169.2,161.2,162.4,161.2z"/>
					<path class="st59" d="M185.9,161.2c-6.4,0-10.7-6-10.7-14.5c0-8.7,4.3-14.5,10.7-14.5c3.7,0,6.1,1.5,7.6,3.5l-3.4,4.5
						c-0.9-1.2-2-2-3.8-2c-3.3,0-5,3.7-5,8.6c0,4.8,1.7,8.6,5,8.6c1.7,0,2.9-1,3.7-2.1l3.5,4.3C192,159.6,189.7,161.2,185.9,161.2z"
						/>
					<path class="st59" d="M208.1,160.5l-1.1-5h-6.2l-1.1,5h-6.2l6.7-27.6h7.8l6.7,27.6H208.1z M203.9,138.9h-0.2l-2.3,11.7h4.7
						L203.9,138.9z"/>
					<path class="st59" d="M225,138.2v22.3h-6.1v-22.3h-5.1v-5.3H230v5.3H225z"/>
					<path class="st59" d="M232.5,160.5v-27.6h6.3v27.6H232.5z"/>
					<path class="st59" d="M253.1,161.2c-6.5,0-10.6-5.8-10.6-14.6c0-8.7,4-14.5,10.6-14.5c6.5,0,10.6,5.7,10.6,14.5
						C263.7,155.4,259.7,161.2,253.1,161.2z M253.1,138.2c-2.8,0-4.2,3.6-4.2,8.4c0,4.8,1.4,8.5,4.2,8.5c2.8,0,4.2-3.7,4.2-8.5
						C257.3,141.8,255.9,138.2,253.1,138.2z"/>
					<path class="st59" d="M279.4,160.5l-6.4-16.8h-0.1l0.2,16.8h-5.6v-27.6h6.9l6.4,17h0.1l-0.1-17h5.4v27.6H279.4z"/>
				</g>
				<g>
					<path class="st177" d="M14.9,160.5v-27.6h13.3v5.5h-7.4v5.4h6.8v5.1h-6.8v6h7.8v5.6H14.9z"/>
					<path class="st177" d="M44.1,160.5l-3.8-9.1l-3.8,9.1H30l6.8-14.5l-6.2-13.1H37l3.4,8.4l3.4-8.4h6.4L44,146l6.9,14.5H44.1z"/>
					<path class="st177" d="M62,161.2c-6.4,0-10.7-6-10.7-14.5c0-8.7,4.3-14.5,10.7-14.5c3.7,0,6.1,1.5,7.6,3.5l-3.4,4.5
						c-0.9-1.2-2-2-3.8-2c-3.3,0-5,3.7-5,8.6c0,4.8,1.7,8.6,5,8.6c1.7,0,2.9-1,3.7-2.1l3.5,4.3C68.1,159.6,65.8,161.2,62,161.2z"/>
					<path class="st177" d="M72.4,160.5v-27.6h13.3v5.5h-7.4v5.4h6.8v5.1h-6.8v6h7.8v5.6H72.4z"/>
					<path class="st177" d="M89.9,160.5v-27.6h6.3v21.8h7.4v5.8H89.9z"/>
					<path class="st177" d="M113.2,160.5v-27.6h13.3v5.5h-7.4v5.4h6.8v5.1h-6.8v6h7.8v5.6H113.2z"/>
					<path class="st177" d="M138.4,160.5h-7.8v-27.6h7.8c7.9,0,11.5,5.4,11.5,13.9C149.9,155.1,146.3,160.5,138.4,160.5z
						 M138.5,138.3H137V155h1.5c3,0,5.1-2.9,5.1-8.3C143.6,141.2,141.5,138.3,138.5,138.3z"/>
					<path class="st177" d="M162.4,161.2c-6.7,0-9.2-4.8-9.2-11v-17.4h6.3v16.8c0,3.1,0.6,5.5,3.1,5.5c2.5,0,3.1-2.4,3.1-5.5v-16.8
						h6.2v17.4C171.9,156.4,169.2,161.2,162.4,161.2z"/>
					<path class="st177" d="M185.9,161.2c-6.4,0-10.7-6-10.7-14.5c0-8.7,4.3-14.5,10.7-14.5c3.7,0,6.1,1.5,7.6,3.5l-3.4,4.5
						c-0.9-1.2-2-2-3.8-2c-3.3,0-5,3.7-5,8.6c0,4.8,1.7,8.6,5,8.6c1.7,0,2.9-1,3.7-2.1l3.5,4.3C192,159.6,189.7,161.2,185.9,161.2z"
						/>
					<path class="st177" d="M208.1,160.5l-1.1-5h-6.2l-1.1,5h-6.2l6.7-27.6h7.8l6.7,27.6H208.1z M203.9,138.9h-0.2l-2.3,11.7h4.7
						L203.9,138.9z"/>
					<path class="st177" d="M225,138.2v22.3h-6.1v-22.3h-5.1v-5.3H230v5.3H225z"/>
					<path class="st177" d="M232.5,160.5v-27.6h6.3v27.6H232.5z"/>
					<path class="st177" d="M253.1,161.2c-6.5,0-10.6-5.8-10.6-14.6c0-8.7,4-14.5,10.6-14.5c6.5,0,10.6,5.7,10.6,14.5
						C263.7,155.4,259.7,161.2,253.1,161.2z M253.1,138.2c-2.8,0-4.2,3.6-4.2,8.4c0,4.8,1.4,8.5,4.2,8.5c2.8,0,4.2-3.7,4.2-8.5
						C257.3,141.8,255.9,138.2,253.1,138.2z"/>
					<path class="st177" d="M279.4,160.5l-6.4-16.8h-0.1l0.2,16.8h-5.6v-27.6h6.9l6.4,17h0.1l-0.1-17h5.4v27.6H279.4z"/>
				</g>
			</g>
		</g>
		<g>
			<g id="XMLID_6_">
				<g id="XMLID_9_">
					<polygon id="XMLID_10_" class="st177" points="9,149.7 5.4,146.2 9,142.5 10.4,144 8.2,146.2 10.4,148.3 					"/>
				</g>
				<g id="XMLID_7_">
					<polygon id="XMLID_8_" class="st177" points="5.8,152.5 0,146.1 6.2,139.4 7.7,140.7 2.7,146.1 7.3,151.2 					"/>
				</g>
			</g>
			<g id="XMLID_1_">
				<g id="XMLID_4_">
					<polygon id="XMLID_5_" class="st177" points="292,149.7 295.6,146.2 291.9,142.5 290.5,144 292.7,146.2 290.6,148.3 					"/>
				</g>
				<g id="XMLID_2_">
					<polygon id="XMLID_3_" class="st177" points="295.2,152.5 301,146.1 294.8,139.4 293.3,140.7 298.2,146.1 293.7,151.2 					"/>
				</g>
			</g>
		</g>
	</g>
</g>
</svg>
